<svg width="469" height="257" viewBox="0 0 469 257" fill="none" xmlns="http://www.w3.org/2000/svg">
<rect y="-0.595703" width="469" height="257" rx="4" fill="#F7F7F6"/>
<path d="M180.295 172.014C201.732 174.522 223.168 177.036 244.604 179.543C252.543 180.474 260.497 181.406 268.316 183.094C272.982 184.102 277.626 185.384 282.396 185.58C289.422 185.874 296.308 183.822 303.039 181.791C304.479 181.357 306.039 180.832 306.861 179.571C307.627 178.394 307.542 176.875 307.409 175.481C306.299 163.694 303.952 152.027 300.418 140.723C298.929 135.961 297.277 130.568 299.715 126.212C300.467 124.875 301.57 123.719 302.048 122.262C303.165 118.831 300.144 115.175 296.652 114.23C293.16 113.284 289.472 114.258 285.987 115.238C285.488 112.073 284.982 108.914 284.483 105.749C284.343 104.845 284.216 103.844 284.729 103.087C285.305 102.226 286.465 102.016 287.497 101.883C292.401 101.238 297.369 100.594 302.273 101.203C307.065 101.799 311.688 103.577 316.514 103.795C324.7 104.159 332.906 99.5436 336.834 92.3791C340.761 85.2147 340.22 75.8442 335.499 69.17C331.367 63.3362 324.566 59.8275 317.582 58.2307C310.599 56.634 303.355 56.76 296.195 56.9001C271.338 57.3623 246.48 57.8245 221.622 58.2938C209.523 58.5179 197.235 58.777 185.677 62.3557C176.649 65.1571 168.309 69.9333 160.848 75.7181C157.51 78.3094 154.229 81.2368 152.515 85.0956C149.423 92.064 154.447 96.9313 157.152 102.884C160.531 110.322 163.51 117.976 166.328 125.638C169.152 133.314 171.752 141.073 174.105 148.903C174.766 151.137 179.248 171.895 180.295 172.014Z" fill="#DDEEEA"/>
<path d="M158.016 174.683C163.946 175.292 169.932 174.564 175.834 173.667C179.544 183.969 177.253 195.336 174.921 206.037C172.56 203.754 169.075 203.138 165.808 202.766C158.55 201.947 151.208 201.8 143.922 202.339C146.732 196.785 148.728 190.679 148.559 184.46C148.405 178.773 146.219 174.109 142.798 169.703C144.568 169.374 147.632 171.973 149.43 172.673C152.17 173.744 155.086 174.382 158.016 174.683Z" fill="#DDEEEA"/>
<path d="M150.308 198.627V177.547C150.308 175.201 152.219 173.303 154.565 173.303H172.72C175.074 173.303 176.978 175.208 176.978 177.547V198.627C176.978 200.973 175.067 202.871 172.72 202.871H154.565C152.219 202.871 150.308 200.973 150.308 198.627Z" fill="#DDEEEA"/>
<path d="M155.865 195.076V181.09C155.865 179.844 156.884 178.828 158.135 178.828H169.165C170.416 178.828 171.435 179.844 171.435 181.09V195.076C171.435 196.323 170.416 197.338 169.165 197.338H158.135C156.877 197.338 155.865 196.323 155.865 195.076Z" fill="#DDEEEA"/>
<path d="M159.449 203.782V172.169C159.449 169.823 161.36 167.925 163.706 167.925H181.862C184.215 167.925 186.119 169.83 186.119 172.169V203.782C186.119 206.128 184.208 208.026 181.862 208.026H163.706C161.36 208.033 159.449 206.128 159.449 203.782Z" fill="#DDEEEA"/>
<path d="M164.999 200.238V175.726C164.999 174.479 166.017 173.464 167.268 173.464H178.299C179.549 173.464 180.568 174.479 180.568 175.726V200.238C180.568 201.484 179.549 202.5 178.299 202.5H167.268C166.017 202.5 164.999 201.484 164.999 200.238Z" fill="#DDEEEA"/>
<path d="M168.652 213.964V162.153C168.652 159.807 170.563 157.909 172.91 157.909H191.065C193.419 157.909 195.323 159.814 195.323 162.153V213.964C195.323 216.31 193.412 218.208 191.065 218.208H172.91C170.563 218.208 168.652 216.31 168.652 213.964Z" fill="#DDEEEA"/>
<path d="M174.203 210.414V165.704C174.203 164.458 175.221 163.442 176.472 163.442H187.503C188.753 163.442 189.772 164.458 189.772 165.704V210.414C189.772 211.661 188.753 212.676 187.503 212.676H176.472C175.221 212.676 174.203 211.661 174.203 210.414Z" fill="#DDEEEA"/>
<path d="M177.737 213.964V162.153C177.737 159.807 179.648 157.909 181.995 157.909H200.15C202.503 157.909 204.407 159.814 204.407 162.153V213.964C204.407 216.31 202.496 218.208 200.15 218.208H182.002C179.648 218.208 177.737 216.31 177.737 213.964Z" fill="#DDEEEA"/>
<path d="M183.288 210.414V165.704C183.288 164.458 184.306 163.442 185.557 163.442H196.588C197.838 163.442 198.857 164.458 198.857 165.704V210.414C198.857 211.661 197.838 212.676 196.588 212.676H185.557C184.306 212.676 183.288 211.661 183.288 210.414Z" fill="#DDEEEA"/>
<path d="M186.822 213.964V162.153C186.822 159.807 188.733 157.909 191.08 157.909H209.235C211.588 157.909 213.492 159.814 213.492 162.153V213.964C213.492 216.31 211.581 218.208 209.235 218.208H191.08C188.726 218.208 186.822 216.303 186.822 213.964Z" fill="#DDEEEA"/>
<path d="M192.372 210.414V165.704C192.372 164.458 193.391 163.442 194.641 163.442H205.672C206.923 163.442 207.942 164.458 207.942 165.704V210.414C207.942 211.661 206.923 212.676 205.672 212.676H194.641C193.391 212.676 192.372 211.661 192.372 210.414Z" fill="#DDEEEA"/>
<path d="M196.025 198.627V177.547C196.025 175.201 197.936 173.303 200.283 173.303H218.438C220.792 173.303 222.696 175.208 222.696 177.547V198.627C222.696 200.973 220.785 202.871 218.438 202.871H200.283C197.936 202.871 196.025 200.973 196.025 198.627Z" fill="#DDEEEA"/>
<path d="M201.576 195.076V181.09C201.576 179.844 202.594 178.828 203.845 178.828H214.876C216.126 178.828 217.145 179.844 217.145 181.09V195.076C217.145 196.323 216.126 197.338 214.876 197.338H203.845C202.594 197.338 201.576 196.323 201.576 195.076Z" fill="#DDEEEA"/>
<path d="M205.11 209.272V166.741C205.11 164.395 207.021 162.497 209.368 162.497H227.523C229.876 162.497 231.78 164.402 231.78 166.741V209.272C231.78 211.619 229.869 213.517 227.523 213.517H209.368C207.014 213.524 205.11 211.619 205.11 209.272Z" fill="#DDEEEA"/>
<path d="M210.661 205.722V170.285C210.661 169.038 211.679 168.022 212.93 168.022H223.961C225.211 168.022 226.23 169.038 226.23 170.285V205.722C226.23 206.968 225.211 207.984 223.961 207.984H212.93C211.679 207.984 210.661 206.975 210.661 205.722Z" fill="#DDEEEA"/>
<path d="M214.068 201.099V174.941C214.068 172.595 215.979 170.697 218.326 170.697H236.481C238.834 170.697 240.738 172.602 240.738 174.941V201.099C240.738 203.445 238.827 205.343 236.481 205.343H218.326C215.979 205.35 214.068 203.445 214.068 201.099Z" fill="#DDEEEA"/>
<path d="M219.625 197.556V178.499C219.625 177.253 220.644 176.237 221.895 176.237H232.926C234.176 176.237 235.195 177.253 235.195 178.499V197.556C235.195 198.802 234.176 199.818 232.926 199.818H221.895C220.637 199.818 219.625 198.802 219.625 197.556Z" fill="#DDEEEA"/>
<path d="M223.377 211.373V164.927C223.377 162.581 225.288 160.683 227.635 160.683H245.79C248.144 160.683 250.048 162.588 250.048 164.927V211.373C250.048 213.719 248.137 215.617 245.79 215.617H227.635C225.288 215.624 223.377 213.719 223.377 211.373Z" fill="#DDEEEA"/>
<path d="M228.928 207.823V168.478C228.928 167.231 229.947 166.216 231.198 166.216H242.228C243.479 166.216 244.498 167.231 244.498 168.478V207.823C244.498 209.069 243.479 210.085 242.228 210.085H231.198C229.947 210.085 228.928 209.076 228.928 207.823Z" fill="#DDEEEA"/>
<path d="M232.118 203.901V172.169C232.118 169.823 234.029 167.925 236.376 167.925H254.531C256.885 167.925 258.789 169.83 258.789 172.169V203.901C258.789 206.247 256.878 208.145 254.531 208.145H236.376C234.029 208.145 232.118 206.247 232.118 203.901Z" fill="#DDEEEA"/>
<path d="M237.668 200.35V175.719C237.668 174.473 238.687 173.457 239.937 173.457H250.968C252.219 173.457 253.237 174.473 253.237 175.719V200.35C253.237 201.597 252.219 202.612 250.968 202.612H239.937C238.687 202.612 237.668 201.604 237.668 200.35Z" fill="#DDEEEA"/>
<path d="M241.202 211.373V164.927C241.202 162.581 243.113 160.683 245.46 160.683H263.615C265.969 160.683 267.873 162.588 267.873 164.927V211.373C267.873 213.719 265.962 215.617 263.615 215.617H245.46C243.106 215.624 241.202 213.719 241.202 211.373Z" fill="#DDEEEA"/>
<path d="M246.752 207.823V168.478C246.752 167.231 247.771 166.216 249.022 166.216H260.053C261.303 166.216 262.322 167.231 262.322 168.478V207.823C262.322 209.069 261.303 210.085 260.053 210.085H249.022C247.771 210.085 246.752 209.076 246.752 207.823Z" fill="#DDEEEA"/>
<path d="M250.287 216.577V159.856C250.287 157.51 252.198 155.612 254.544 155.612H272.699C275.053 155.612 276.957 157.517 276.957 159.856V216.577C276.957 218.923 275.046 220.821 272.699 220.821H254.544C252.191 220.821 250.287 218.923 250.287 216.577Z" fill="#DDEEEA"/>
<path d="M255.837 213.026V163.408C255.837 162.161 256.856 161.146 258.107 161.146H269.138C270.388 161.146 271.407 162.161 271.407 163.408V213.026C271.407 214.273 270.388 215.288 269.138 215.288H258.107C256.856 215.288 255.837 214.28 255.837 213.026Z" fill="#DDEEEA"/>
<path d="M259.245 216.577V159.856C259.245 157.51 261.156 155.612 263.502 155.612H281.657C284.011 155.612 285.915 157.517 285.915 159.856V216.577C285.915 218.923 284.004 220.821 281.657 220.821H263.502C261.156 220.821 259.245 218.923 259.245 216.577Z" fill="#DDEEEA"/>
<path d="M264.803 213.026V163.408C264.803 162.161 265.821 161.146 267.072 161.146H278.103C279.353 161.146 280.372 162.161 280.372 163.408V213.026C280.372 214.273 279.353 215.288 278.103 215.288H267.072C265.814 215.288 264.803 214.28 264.803 213.026Z" fill="#DDEEEA"/>
<path d="M268.695 203.893V172.161C268.695 169.815 270.606 167.917 272.953 167.917H291.108C293.461 167.917 295.365 169.822 295.365 172.161V203.893C295.365 206.239 293.454 208.137 291.108 208.137H272.953C270.606 208.137 268.695 206.232 268.695 203.893Z" fill="#DDEEEA"/>
<path d="M274.245 200.343V175.712C274.245 174.466 275.264 173.45 276.514 173.45H287.545C288.796 173.45 289.815 174.466 289.815 175.712V200.343C289.815 201.59 288.796 202.605 287.545 202.605H276.514C275.264 202.605 274.245 201.59 274.245 200.343Z" fill="#DDEEEA"/>
<path d="M277.534 213.95V162.014C277.534 159.667 279.445 157.77 281.791 157.77H299.946C302.3 157.77 304.204 159.674 304.204 162.014V213.95C304.204 216.297 302.293 218.195 299.946 218.195H281.791C279.445 218.202 277.534 216.297 277.534 213.95Z" fill="#DDEEEA"/>
<path d="M283.09 210.399V165.564C283.09 164.317 284.109 163.302 285.36 163.302H296.39C297.641 163.302 298.66 164.317 298.66 165.564V210.399C298.66 211.646 297.641 212.661 296.39 212.661H285.36C284.102 212.661 283.09 211.653 283.09 210.399Z" fill="#DDEEEA"/>
<path d="M286.618 209.475V166.726C286.618 164.38 288.529 162.482 290.876 162.482H309.031C311.385 162.482 313.289 164.387 313.289 166.726V209.475C313.289 211.821 311.378 213.719 309.031 213.719H290.876C288.529 213.726 286.618 211.821 286.618 209.475Z" fill="#DDEEEA"/>
<path d="M292.176 205.932V170.278C292.176 169.031 293.195 168.016 294.445 168.016H305.476C306.727 168.016 307.745 169.031 307.745 170.278V205.932C307.745 207.178 306.727 208.194 305.476 208.194H294.445C293.188 208.194 292.176 207.178 292.176 205.932Z" fill="#DDEEEA"/>
<path d="M295.703 216.577V159.24C295.703 156.894 297.614 154.996 299.961 154.996H318.116C320.469 154.996 322.373 156.901 322.373 159.24V216.577C322.373 218.923 320.462 220.821 318.116 220.821H299.968C297.614 220.821 295.703 218.923 295.703 216.577Z" fill="#DDEEEA"/>
<path d="M301.253 213.026V162.79C301.253 161.544 302.271 160.528 303.522 160.528H314.553C315.803 160.528 316.822 161.544 316.822 162.79V213.026C316.822 214.272 315.803 215.288 314.553 215.288H303.522C302.271 215.288 301.253 214.279 301.253 213.026Z" fill="#DDEEEA"/>
<path d="M304.787 211.373V164.927C304.787 162.581 306.698 160.683 309.045 160.683H327.2C329.553 160.683 331.457 162.588 331.457 164.927V211.373C331.457 213.719 329.546 215.617 327.2 215.617H309.045C306.691 215.624 304.787 213.719 304.787 211.373Z" fill="#DDEEEA"/>
<path d="M310.338 207.823V168.478C310.338 167.231 311.356 166.216 312.607 166.216H323.638C324.888 166.216 325.907 167.231 325.907 168.478V207.823C325.907 209.069 324.888 210.085 323.638 210.085H312.607C311.356 210.085 310.338 209.076 310.338 207.823Z" fill="#DDEEEA"/>
<path d="M313.753 209.475V166.726C313.753 164.38 315.664 162.482 318.01 162.482H336.165C338.519 162.482 340.423 164.387 340.423 166.726V209.475C340.423 211.821 338.512 213.719 336.165 213.719H318.01C315.657 213.726 313.753 211.821 313.753 209.475Z" fill="#DDEEEA"/>
<path d="M319.303 205.932V170.278C319.303 169.031 320.322 168.016 321.572 168.016H332.603C333.854 168.016 334.872 169.031 334.872 170.278V205.932C334.872 207.178 333.854 208.194 332.603 208.194H321.572C320.315 208.194 319.303 207.178 319.303 205.932Z" fill="#DDEEEA"/>
<path d="M322.956 213.95V162.014C322.956 159.667 324.867 157.77 327.214 157.77H345.369C347.723 157.77 349.627 159.674 349.627 162.014V213.95C349.627 216.297 347.716 218.195 345.369 218.195H327.214C324.86 218.202 322.956 216.297 322.956 213.95Z" fill="#DDEEEA"/>
<path d="M328.507 210.399V165.564C328.507 164.317 329.525 163.302 330.776 163.302H341.807C343.057 163.302 344.076 164.317 344.076 165.564V210.399C344.076 211.646 343.057 212.661 341.807 212.661H330.776C329.525 212.661 328.507 211.653 328.507 210.399Z" fill="#DDEEEA"/>
<path d="M332.161 216.577V159.24C332.161 156.894 334.072 154.996 336.418 154.996H354.573C356.927 154.996 358.831 156.901 358.831 159.24V216.577C358.831 218.923 356.92 220.821 354.573 220.821H336.418C334.065 220.821 332.161 218.923 332.161 216.577Z" fill="#DDEEEA"/>
<path d="M337.711 213.026V162.79C337.711 161.544 338.73 160.528 339.981 160.528H351.011C352.262 160.528 353.281 161.544 353.281 162.79V213.026C353.281 214.272 352.262 215.288 351.011 215.288H339.981C338.73 215.288 337.711 214.279 337.711 213.026Z" fill="#DDEEEA"/>
<path d="M341.245 201.246V174.815C341.245 172.469 343.156 170.571 345.502 170.571H363.657C366.011 170.571 367.915 172.476 367.915 174.815V201.246C367.915 203.592 366.004 205.49 363.657 205.49H345.502C343.149 205.497 341.245 203.592 341.245 201.246Z" fill="#DDEEEA"/>
<path d="M346.795 197.696V178.36C346.795 177.113 347.814 176.098 349.065 176.098H360.095C361.346 176.098 362.365 177.113 362.365 178.36V197.696C362.365 198.943 361.346 199.958 360.095 199.958H349.065C347.814 199.958 346.795 198.95 346.795 197.696Z" fill="#DDEEEA"/>
<path d="M350.329 198.69V177.231C350.329 174.885 352.24 172.987 354.587 172.987H372.742C375.096 172.987 377 174.892 377 177.231V198.69C377 201.036 375.089 202.934 372.742 202.934H354.587C352.233 202.934 350.329 201.036 350.329 198.69Z" fill="#DDEEEA"/>
<path d="M355.881 195.139V180.783C355.881 179.536 356.899 178.521 358.15 178.521H369.181C370.431 178.521 371.45 179.536 371.45 180.783V195.139C371.45 196.386 370.431 197.402 369.181 197.402H358.15C356.892 197.402 355.881 196.386 355.881 195.139Z" fill="#DDEEEA"/>
<path d="M165.603 191.798H161.69C161.535 191.798 161.409 191.672 161.409 191.518V184.634C161.409 184.48 161.535 184.354 161.69 184.354H165.603C165.758 184.354 165.884 184.48 165.884 184.634V191.518C165.884 191.679 165.758 191.798 165.603 191.798Z" fill="#020203"/>
<path d="M174.744 196.96H170.831C170.676 196.96 170.55 196.834 170.55 196.68V179.263C170.55 179.108 170.676 178.982 170.831 178.982H174.744C174.899 178.982 175.025 179.108 175.025 179.263V196.68C175.018 196.841 174.899 196.96 174.744 196.96Z" fill="#020203"/>
<path d="M183.948 207.136H180.034C179.88 207.136 179.753 207.01 179.753 206.856V169.241C179.753 169.087 179.88 168.961 180.034 168.961H183.948C184.102 168.961 184.229 169.087 184.229 169.241V206.856C184.229 207.017 184.102 207.136 183.948 207.136Z" fill="#020203"/>
<path d="M193.032 207.136H189.119C188.964 207.136 188.838 207.01 188.838 206.856V169.241C188.838 169.087 188.964 168.961 189.119 168.961H193.032C193.187 168.961 193.313 169.087 193.313 169.241V206.856C193.306 207.017 193.187 207.136 193.032 207.136Z" fill="#020203"/>
<path d="M202.117 207.136H198.204C198.049 207.136 197.923 207.01 197.923 206.856V169.241C197.923 169.087 198.049 168.961 198.204 168.961H202.117C202.272 168.961 202.398 169.087 202.398 169.241V206.856C202.391 207.017 202.272 207.136 202.117 207.136Z" fill="#020203"/>
<path d="M211.321 191.798H207.407C207.253 191.798 207.126 191.672 207.126 191.518V184.634C207.126 184.48 207.253 184.354 207.407 184.354H211.321C211.476 184.354 211.602 184.48 211.602 184.634V191.518C211.595 191.679 211.476 191.798 211.321 191.798Z" fill="#020203"/>
<path d="M220.405 202.451H216.492C216.337 202.451 216.211 202.325 216.211 202.17V173.835C216.211 173.681 216.337 173.555 216.492 173.555H220.405C220.56 173.555 220.686 173.681 220.686 173.835V202.17C220.679 202.325 220.56 202.451 220.405 202.451Z" fill="#020203"/>
<path d="M229.363 194.278H225.45C225.295 194.278 225.169 194.152 225.169 193.998V182.043C225.169 181.889 225.295 181.763 225.45 181.763H229.363C229.518 181.763 229.644 181.889 229.644 182.043V193.998C229.644 194.159 229.518 194.278 229.363 194.278Z" fill="#020203"/>
<path d="M238.673 204.552H234.76C234.605 204.552 234.479 204.426 234.479 204.272V172.021C234.479 171.867 234.605 171.741 234.76 171.741H238.673C238.828 171.741 238.954 171.867 238.954 172.021V204.272C238.947 204.426 238.828 204.552 238.673 204.552Z" fill="#020203"/>
<path d="M247.414 197.079H243.5C243.346 197.079 243.219 196.953 243.219 196.799V179.269C243.219 179.115 243.346 178.989 243.5 178.989H247.414C247.568 178.989 247.695 179.115 247.695 179.269V196.799C247.688 196.953 247.568 197.079 247.414 197.079Z" fill="#020203"/>
<path d="M256.498 204.552H252.584C252.43 204.552 252.303 204.426 252.303 204.272V172.021C252.303 171.867 252.43 171.741 252.584 171.741H256.498C256.652 171.741 256.779 171.867 256.779 172.021V204.272C256.772 204.426 256.652 204.552 256.498 204.552Z" fill="#020203"/>
<path d="M265.582 209.755H261.669C261.514 209.755 261.388 209.629 261.388 209.474V166.95C261.388 166.796 261.514 166.67 261.669 166.67H265.582C265.737 166.67 265.863 166.796 265.863 166.95V209.474C265.856 209.629 265.73 209.755 265.582 209.755Z" fill="#020203"/>
<path d="M274.54 209.755H270.627C270.472 209.755 270.346 209.629 270.346 209.474V166.95C270.346 166.796 270.472 166.67 270.627 166.67H274.54C274.695 166.67 274.821 166.796 274.821 166.95V209.474C274.821 209.629 274.695 209.755 274.54 209.755Z" fill="#020203"/>
<path d="M283.99 197.065H280.077C279.922 197.065 279.796 196.939 279.796 196.785V179.256C279.796 179.102 279.922 178.976 280.077 178.976H283.99C284.145 178.976 284.271 179.102 284.271 179.256V196.785C284.264 196.946 284.145 197.065 283.99 197.065Z" fill="#020203"/>
<path d="M292.829 207.128H288.916C288.761 207.128 288.635 207.002 288.635 206.848V169.114C288.635 168.96 288.761 168.834 288.916 168.834H292.829C292.984 168.834 293.11 168.96 293.11 169.114V206.848C293.11 207.002 292.984 207.128 292.829 207.128Z" fill="#020203"/>
<path d="M301.914 202.654H298.001C297.846 202.654 297.719 202.528 297.719 202.374V173.821C297.719 173.667 297.846 173.541 298.001 173.541H301.914C302.069 173.541 302.195 173.667 302.195 173.821V202.374C302.195 202.535 302.069 202.654 301.914 202.654Z" fill="#020203"/>
<path d="M310.998 209.755H307.085C306.93 209.755 306.804 209.629 306.804 209.475V166.342C306.804 166.188 306.93 166.062 307.085 166.062H310.998C311.153 166.062 311.279 166.188 311.279 166.342V209.475C311.279 209.629 311.153 209.755 310.998 209.755Z" fill="#020203"/>
<path d="M320.082 204.552H316.169C316.014 204.552 315.888 204.426 315.888 204.272V172.021C315.888 171.867 316.014 171.741 316.169 171.741H320.082C320.237 171.741 320.363 171.867 320.363 172.021V204.272C320.356 204.426 320.237 204.552 320.082 204.552Z" fill="#020203"/>
<path d="M329.04 202.654H325.127C324.972 202.654 324.846 202.528 324.846 202.374V173.821C324.846 173.667 324.972 173.541 325.127 173.541H329.04C329.195 173.541 329.321 173.667 329.321 173.821V202.374C329.321 202.535 329.195 202.654 329.04 202.654Z" fill="#020203"/>
<path d="M338.252 207.128H334.338C334.184 207.128 334.057 207.002 334.057 206.848V169.114C334.057 168.96 334.184 168.834 334.338 168.834H338.252C338.406 168.834 338.533 168.96 338.533 169.114V206.848C338.526 207.002 338.399 207.128 338.252 207.128Z" fill="#020203"/>
<path d="M347.455 209.755H343.542C343.387 209.755 343.261 209.629 343.261 209.475V166.342C343.261 166.188 343.387 166.062 343.542 166.062H347.455C347.61 166.062 347.737 166.188 347.737 166.342V209.475C347.729 209.629 347.603 209.755 347.455 209.755Z" fill="#020203"/>
<path d="M356.54 194.425H352.627C352.472 194.425 352.346 194.299 352.346 194.145V181.91C352.346 181.756 352.472 181.63 352.627 181.63H356.54C356.695 181.63 356.821 181.756 356.821 181.91V194.145C356.814 194.299 356.688 194.425 356.54 194.425Z" fill="#020203"/>
<path d="M365.618 191.862H361.704C361.55 191.862 361.423 191.736 361.423 191.582V184.319C361.423 184.165 361.55 184.039 361.704 184.039H365.618C365.772 184.039 365.899 184.165 365.899 184.319V191.582C365.899 191.743 365.772 191.862 365.618 191.862Z" fill="#020203"/>
<path d="M184.673 159.023C179.972 159.023 176.22 157.713 173.529 155.129C170.782 152.489 169.391 148.784 169.391 144.106V132.613C166.974 132.018 165.183 129.84 165.183 127.242V123.432C165.183 121.926 165.801 120.484 166.89 119.44C167.923 118.446 169.307 117.899 170.733 117.899C170.81 117.899 171.717 117.934 171.717 117.934C173.157 117.92 174.246 117.514 175.237 116.632C176.298 115.686 176.902 114.538 177.134 113.011C177.541 110.308 179.881 108.305 182.621 108.305H186.408C189.471 108.305 191.959 110.784 191.959 113.837V117.899H195.113C198.176 117.899 200.664 120.378 200.664 123.432V127.242C200.664 130.295 198.176 132.774 195.113 132.774H191.959V140.135C192.204 140.1 192.457 140.086 192.703 140.086C193.293 140.086 193.891 140.177 194.474 140.373L197.945 141.536C199.392 142.019 200.572 143.076 201.212 144.463C201.851 145.843 201.893 147.425 201.324 148.84C199.799 152.643 195.612 159.023 184.673 159.023Z" fill="#DDEEEA"/>
<path d="M186.408 127.242V142.307C186.408 144.821 186.57 146.488 186.907 147.3C187.237 148.112 187.919 148.519 188.959 148.519C190.518 148.519 191.769 147.552 192.711 145.626L196.181 146.789C194.39 151.257 190.554 153.491 184.68 153.491C181.448 153.491 179.017 152.707 177.387 151.145C175.757 149.583 174.942 147.237 174.942 144.106V127.242H170.733V123.432L171.619 123.468C174.471 123.468 176.916 122.564 178.947 120.75C180.977 118.943 182.2 116.632 182.628 113.838H186.415V123.432H195.12V127.242H186.408Z" fill="#DDEEEA"/>
<path d="M227.46 158.526C223.189 158.526 220.118 157.524 217.912 156.145C216.971 156.6 216.015 156.985 215.046 157.307C212.615 158.113 210.036 158.526 207.394 158.526C203.277 158.526 199.968 157.426 197.565 155.262C195.036 152.979 193.701 149.989 193.701 146.606C193.701 144.099 194.452 140.639 197.67 137.362C197.389 137.158 197.136 136.948 196.912 136.745C194.972 134.987 193.911 132.641 193.911 130.127C193.911 127.109 195.183 122.844 201.225 119.657C204.977 117.682 209.636 116.723 215.467 116.723C218.544 116.723 221.095 116.912 223.266 117.304C226.006 117.801 228.332 118.796 230.172 120.266C232.083 121.793 233.418 123.551 234.142 125.491C234.746 127.116 235.034 129.056 235.034 131.43V140.359H236.278C237.782 140.359 239.215 140.961 240.262 142.04C241.309 143.111 241.871 144.561 241.828 146.06C241.674 151.41 238.962 154.338 236.714 155.843C234.065 157.629 230.959 158.526 227.46 158.526Z" fill="#DDEEEA"/>
<path d="M218.679 149.254C216.958 150.5 215.159 151.432 213.283 152.062C211.407 152.685 209.44 152.994 207.388 152.994C204.676 152.994 202.639 152.384 201.283 151.159C199.927 149.933 199.245 148.42 199.245 146.607C199.245 144.043 200.601 141.774 203.313 139.799C206.025 137.824 210.936 135.639 218.033 133.237V130.625C218.033 128.769 217.583 127.571 216.691 127.046C215.791 126.514 214.73 126.248 213.508 126.248C210.536 126.248 208.885 127.333 208.555 129.49C208.316 130.975 207.845 132.047 207.142 132.719C206.433 133.391 205.337 133.72 203.854 133.72C202.512 133.72 201.444 133.363 200.65 132.642C199.863 131.928 199.463 131.087 199.463 130.121C199.463 127.936 200.917 126.073 203.819 124.546C206.721 123.019 210.599 122.256 215.461 122.256C218.173 122.256 220.442 122.417 222.276 122.753C224.103 123.082 225.578 123.692 226.703 124.588C227.827 125.484 228.564 126.423 228.93 127.41C229.295 128.398 229.478 129.735 229.478 131.43V144.849C229.478 146.873 230.089 147.881 231.319 147.881C232.379 147.881 233.054 147.223 233.335 145.906H236.272C236.202 148.329 235.309 150.115 233.602 151.271C231.888 152.419 229.843 153.001 227.461 153.001C223.119 152.994 220.189 151.747 218.679 149.254ZM218.047 145.444V137.187C214.765 138.553 212.623 139.785 211.625 140.892C210.62 141.998 210.121 143.14 210.121 144.309C210.121 145.206 210.416 146.011 211.007 146.726C211.597 147.44 212.377 147.804 213.339 147.804C214.189 147.804 215.004 147.601 215.784 147.202C216.557 146.81 217.316 146.221 218.047 145.444Z" fill="#DDEEEA"/>
<path d="M237.227 157.861C234.163 157.861 231.676 155.382 231.676 152.329V148.589C231.676 145.661 233.96 143.266 236.84 143.063V115.512C233.953 115.316 231.676 112.921 231.676 109.986V106.211C231.676 103.48 233.672 101.162 236.377 100.742L253.007 98.1646C253.288 98.1226 253.576 98.1016 253.857 98.1016C255.171 98.1016 256.457 98.5708 257.469 99.4322C258.698 100.483 259.408 102.016 259.408 103.634V143.077C262.176 143.392 264.326 145.731 264.326 148.575V152.315C264.326 155.368 261.839 157.847 258.775 157.847H237.227V157.861Z" fill="#DDEEEA"/>
<path d="M253.857 103.641V143.889C253.857 145.703 254.138 146.935 254.707 147.594C255.276 148.252 256.632 148.581 258.775 148.581V152.321H237.227V148.581C239.11 148.581 240.445 148.357 241.225 147.909C242.004 147.461 242.391 146.123 242.391 143.889V114.643C242.391 112.787 242.089 111.547 241.484 110.924C240.887 110.301 239.461 109.993 237.22 109.993V106.218L253.857 103.641Z" fill="#DDEEEA"/>
<path d="M307.43 69.3734C303.65 69.3734 300.165 67.4824 298.107 64.3169C296.048 61.1514 295.746 57.2085 297.299 53.7699L302.392 42.4454C304.177 38.4745 308.161 35.9043 312.524 35.9043H326.892C331.775 35.9043 336.033 39.0208 337.494 43.671C338.948 48.3143 337.234 53.3006 333.222 56.074L316.838 67.3984C314.969 68.687 312.777 69.3734 310.507 69.3734H307.43Z" fill="#DDEEEA"/>
<path d="M332.19 45.3242C331.466 43.0131 329.316 41.4443 326.892 41.4443H312.524C310.339 41.4443 308.35 42.726 307.458 44.7149L302.364 56.0393C301.592 57.7552 301.746 59.7371 302.772 61.3129C303.798 62.8886 305.547 63.8411 307.43 63.8411H310.507C311.639 63.8411 312.742 63.4979 313.669 62.8536L330.054 51.5292C332.049 50.1495 332.92 47.6353 332.19 45.3242Z" fill="#DDEEEA"/>
<path d="M344.091 105.385C341.773 105.385 339.391 105.133 336.995 104.636C335.724 105.126 334.375 105.385 332.983 105.385H329.794C323.723 105.385 318.847 100.651 318.693 94.5998L318.447 85.0052C318.412 83.5555 318.65 82.1338 319.149 80.8102C318.088 78.373 317.554 75.7467 317.554 72.9734C317.554 66.5863 320.393 60.9206 325.557 57.0128C329.927 53.7072 335.436 52.0264 341.935 52.0264C344.239 52.0264 346.579 52.2575 348.925 52.7197C350.155 52.2645 351.462 52.0264 352.804 52.0264H355.74C361.748 52.0264 366.617 56.7116 366.841 62.6925L367.158 71.4397C367.193 72.3431 367.116 73.2325 366.933 74.101C368.612 77.0354 369.462 80.2989 369.462 83.8356C369.462 90.4888 366.357 96.3646 360.715 100.385C356.064 103.711 350.471 105.385 344.091 105.385Z" fill="#DDEEEA"/>
<path d="M361.284 75.5711C361.101 75.326 360.919 75.0808 360.722 74.8497C361.333 73.9043 361.649 72.7907 361.607 71.6492L361.291 62.902C361.179 59.9256 358.727 57.5654 355.741 57.5654H352.804C351.644 57.5654 350.541 57.9226 349.628 58.5599C347.042 57.9016 344.471 57.5654 341.935 57.5654C336.679 57.5654 332.295 58.8681 328.916 61.4243C325.114 64.2957 323.112 68.2946 323.112 72.9728C323.112 75.8862 323.92 78.5545 325.522 80.9076C324.51 81.9721 323.962 83.3938 324.004 84.8575L324.25 94.4521C324.328 97.4496 326.787 99.8447 329.801 99.8447H332.991C334.199 99.8447 335.337 99.4525 336.272 98.7732C338.935 99.4876 341.562 99.8447 344.106 99.8447C349.305 99.8447 353.808 98.5141 357.497 95.8808C361.699 92.8834 363.926 88.7164 363.926 83.828C363.912 80.7606 363.026 77.9732 361.284 75.5711Z" fill="#DDEEEA"/>
<path d="M184.673 164.556C178.483 164.556 173.438 162.721 169.672 159.115C165.85 155.445 163.834 150.255 163.834 144.106V135.933C161.234 133.889 159.625 130.723 159.625 127.249V123.439C159.625 120.435 160.869 117.529 163.04 115.449C165.112 113.46 167.846 112.367 170.726 112.367C170.782 112.367 171.26 112.381 171.59 112.395C171.604 112.346 171.619 112.276 171.633 112.185C172.117 109.006 173.888 106.33 176.375 104.656C171.815 103.641 167.691 101.582 164.059 98.4865C163.756 98.2274 163.454 97.9613 163.166 97.6881C162.759 98.0383 162.33 98.3745 161.895 98.6966C156.864 102.415 149.782 104.229 140.241 104.229H115.081C108.954 104.229 103.973 99.2639 103.973 93.157V89.2421C103.973 84.865 106.53 81.0762 110.233 79.2833C110.233 73.9327 110.233 64.8424 110.233 59.4498C106.53 57.6499 103.973 53.8611 103.973 49.491V45.5761C103.973 39.5462 108.708 34.6859 114.757 34.5108L133.194 33.9786L136.13 33.9716C147.126 33.9716 154.3 35.5193 159.393 38.993C165.134 42.9009 168.422 48.7277 168.738 55.4719C172.918 53.1888 177.605 52.0332 182.748 52.0332C190.041 52.0332 196.259 54.2253 201.24 58.5464C201.366 58.6514 201.486 58.7565 201.605 58.8685C201.619 58.8545 201.64 58.8405 201.654 58.8265C206.931 54.3163 213.275 52.0332 220.512 52.0332C223.323 52.0332 225.971 52.3554 228.451 53.0067C228.311 52.2994 228.234 51.571 228.234 50.8287V47.0538C228.234 41.5632 232.189 36.962 237.634 36.1146L254.272 33.5374C254.834 33.4533 255.403 33.4043 255.979 33.4043C258.628 33.4043 261.192 34.3497 263.202 36.0656C265.668 38.1736 267.08 41.2341 267.08 44.4696V54.2813C271.036 52.7686 275.617 52.0262 280.999 52.0262C284.413 52.0262 287.294 52.2433 289.788 52.6986C293.442 53.3569 296.603 54.7365 299.175 56.7815C301.887 58.9456 303.805 61.5088 304.88 64.4012C305.716 66.6563 306.116 69.2265 306.116 72.2659V76.531C307.479 77.1053 308.73 77.9457 309.77 79.0102C311.85 81.1392 312.988 84.0666 312.903 87.036C312.735 93.0449 310.051 98.0943 305.35 101.26C301.774 103.662 297.622 104.881 292.992 104.881C291.151 104.881 289.402 104.727 287.758 104.418V112.353H299.547C305.674 112.353 310.655 117.319 310.655 123.425V127.165C310.655 131.318 308.351 134.946 304.95 136.837C305.407 137.432 305.772 137.887 306.053 138.224C310.304 139.82 313.206 143.875 313.206 148.575V152.314C313.206 158.421 308.224 163.387 302.097 163.387H283.408C282.924 163.387 282.439 163.359 281.954 163.296C281.476 163.359 280.992 163.387 280.5 163.387H260.328C260.061 163.387 259.801 163.373 259.548 163.352C259.288 163.373 259.028 163.387 258.775 163.387H237.227C236.278 163.387 235.33 163.261 234.409 163.015C232.217 163.709 229.885 164.059 227.454 164.059C223.807 164.059 220.533 163.45 217.681 162.245C217.386 162.357 217.09 162.455 216.795 162.553C213.795 163.548 210.627 164.059 207.388 164.059C203.418 164.059 199.947 163.247 197.031 161.643C193.525 163.583 189.38 164.556 184.673 164.556ZM197.439 112.605C198.563 112.843 199.638 113.257 200.629 113.824C204.781 112.059 209.664 111.198 215.46 111.198C218.875 111.198 221.756 111.415 224.25 111.87C224.981 112.003 225.683 112.164 226.372 112.346C226.203 111.583 226.119 110.798 226.119 109.993V106.218C226.119 105.798 226.14 105.378 226.189 104.972C224.517 105.252 222.796 105.392 221.039 105.392C213.802 105.392 207.444 103.151 202.125 98.7386C200.488 100.104 198.647 101.302 196.596 102.324C195.064 103.088 193.483 103.711 191.846 104.187C194.888 105.896 197.038 108.992 197.439 112.605Z" fill="#DDEEEA"/>
<path d="M302.983 143.119C302.597 142.741 301.655 141.732 299.751 139.169L295.852 133.959C297.735 132.894 298.936 132.705 299.547 132.705C302.611 132.705 305.098 130.226 305.098 127.173V123.433C305.098 120.379 302.611 117.9 299.547 117.9H283.409C282.994 117.9 282.594 117.942 282.2 118.033V103.648C282.2 102.03 281.491 100.497 280.261 99.4462C279.854 99.096 279.397 98.8369 278.919 98.6198C279.474 98.4797 280.022 98.3257 280.57 98.1436C281.54 97.8214 282.502 97.4292 283.437 96.981C285.636 98.3607 288.706 99.3622 292.985 99.3622C296.484 99.3622 299.597 98.4657 302.231 96.6869C304.48 95.1741 307.192 92.2467 307.346 86.8962C307.388 85.4045 306.826 83.9548 305.779 82.8833C304.733 81.8117 303.299 81.2094 301.796 81.2094H300.552V72.2802C300.552 69.906 300.264 67.9661 299.66 66.3343C298.936 64.3944 297.601 62.6365 295.69 61.1168C293.849 59.6461 291.524 58.6516 288.784 58.1544C286.613 57.7622 284.055 57.5731 280.978 57.5731C275.146 57.5731 270.495 58.5326 266.743 60.5075C264.284 61.8031 262.626 63.2738 261.516 64.7726V44.4838C261.516 42.8661 260.806 41.3323 259.577 40.2818C258.565 39.4204 257.279 38.9512 255.965 38.9512C255.684 38.9512 255.396 38.9722 255.115 39.0142L238.485 41.5914C235.78 42.0116 233.785 44.3297 233.785 47.0611V50.8359C233.785 53.7633 236.068 56.1584 238.949 56.3615V67.1117C238 65.4519 236.806 63.9742 235.351 62.7136C231.41 59.2959 226.414 57.5591 220.505 57.5591C214.632 57.5591 209.51 59.394 205.266 63.0217C203.728 64.3384 202.463 65.8511 201.437 67.5319C200.453 65.697 199.168 64.0862 197.594 62.7206C193.652 59.3029 188.657 57.5661 182.748 57.5661C176.874 57.5661 171.752 59.401 167.509 63.0287C165.099 65.0947 163.328 67.6439 162.197 70.5573C161.565 69.6959 160.848 68.8835 160.026 68.1342C159.626 67.77 159.211 67.4198 158.775 67.0907C161.684 64.2403 163.216 60.5986 163.216 56.5366C163.216 51.144 160.813 46.6549 156.267 43.5524C152.213 40.7861 145.82 39.4974 136.145 39.4974H133.37L114.934 40.0297C111.933 40.1137 109.538 42.5649 109.538 45.5623V49.4772C109.538 52.5307 112.025 55.0099 115.088 55.0099C115.355 55.0099 115.587 55.0169 115.798 55.0239C115.798 55.1219 115.798 83.5836 115.798 83.6816C115.594 83.6886 115.355 83.6956 115.088 83.6956C112.025 83.6956 109.538 86.1748 109.538 89.2283V93.1432C109.538 96.1966 112.025 98.6758 115.088 98.6758H140.248C148.553 98.6758 154.56 97.2261 158.6 94.2357C160.616 92.744 162.176 90.9441 163.3 88.9131C164.41 90.9161 165.865 92.723 167.677 94.2637C172.019 97.9615 177.275 99.8384 183.282 99.8384C187.181 99.8384 190.821 99.005 194.109 97.3662C197.446 95.6924 200.088 93.4863 201.957 90.7971C202.013 90.72 202.041 90.636 202.09 90.5589C203.032 91.9106 204.135 93.1572 205.435 94.2637C209.777 97.9615 215.032 99.8384 221.039 99.8384C224.939 99.8384 228.578 99.005 231.866 97.3662C232.808 96.897 233.672 96.3717 234.501 95.8185C235.45 97.5133 237.248 98.6758 239.335 98.6758H249.663L236.377 100.735C233.672 101.155 231.677 103.473 231.677 106.204V109.979C231.677 112.907 233.96 115.302 236.841 115.505V140.416C236.651 140.395 236.461 140.36 236.272 140.36H235.028V131.431C235.028 129.056 234.74 127.116 234.136 125.492C233.419 123.552 232.084 121.794 230.166 120.267C228.325 118.796 226 117.802 223.26 117.305C221.089 116.913 218.531 116.723 215.461 116.723C209.629 116.723 204.971 117.683 201.219 119.658C200.706 119.924 200.243 120.204 199.8 120.491C198.816 118.937 197.088 117.893 195.107 117.893H191.952V113.831C191.952 110.778 189.465 108.298 186.402 108.298H182.615C179.867 108.298 177.535 110.301 177.127 113.005C176.895 114.524 176.298 115.673 175.23 116.625C174.24 117.508 173.151 117.914 171.71 117.928C171.71 117.928 170.804 117.893 170.727 117.893C169.293 117.893 167.916 118.446 166.883 119.434C165.794 120.477 165.176 121.92 165.176 123.426V127.236C165.176 129.834 166.968 132.012 169.385 132.607V144.1C169.385 148.778 170.776 152.483 173.523 155.123C176.214 157.707 179.966 159.017 184.666 159.017C190.582 159.017 194.509 157.147 197.13 154.829C197.278 154.969 197.411 155.123 197.559 155.256C199.962 157.42 203.271 158.52 207.388 158.52C210.03 158.52 212.601 158.106 215.039 157.301C216.009 156.979 216.971 156.587 217.906 156.138C220.112 157.518 223.182 158.52 227.454 158.52C230.005 158.52 232.344 158.029 234.445 157.084C235.267 157.56 236.201 157.854 237.22 157.854H258.769C259.036 157.854 259.289 157.812 259.549 157.777C259.809 157.812 260.062 157.854 260.329 157.854H280.5C280.999 157.854 281.491 157.791 281.954 157.665C282.418 157.791 282.903 157.854 283.409 157.854H302.098C305.161 157.854 307.648 155.375 307.648 152.322V148.582C307.648 145.829 305.632 143.546 302.983 143.119ZM139.834 83.3525C139.834 83.3525 139.728 83.3945 139.461 83.4155V75.7538C139.63 75.7888 139.735 75.8099 139.735 75.8029C139.735 75.8029 139.819 75.8799 139.939 76.118C140.051 76.3421 140.424 77.2385 140.424 79.5006C140.424 82.386 139.834 83.2965 139.834 83.3525ZM186.43 84.375C185.446 84.375 185.298 84.1509 185.137 83.9128L187.926 83.9057C187.167 84.375 186.654 84.375 186.43 84.375ZM224.187 84.375C223.203 84.375 223.056 84.1509 222.894 83.9128L225.684 83.9057C224.925 84.375 224.419 84.375 224.187 84.375ZM191.959 140.136V132.775H194.376C194.854 134.26 195.683 135.633 196.919 136.753C197.144 136.956 197.39 137.159 197.678 137.369C196.61 138.455 195.837 139.554 195.254 140.633L194.481 140.374C193.898 140.178 193.301 140.087 192.711 140.087C192.451 140.087 192.205 140.101 191.959 140.136ZM262.443 77.5817C262.668 77.7848 262.921 77.9949 263.202 78.198C262.535 78.8773 261.994 79.5637 261.523 80.25V76.5592C261.811 76.9164 262.099 77.2666 262.443 77.5817ZM238.949 83.1004V83.6396C238.829 83.5276 238.724 83.4085 238.597 83.3105C238.724 83.2474 238.836 83.1704 238.949 83.1004ZM260.891 98.6898C262.345 98.6898 263.652 98.1226 264.643 97.2121C266.104 98.1436 267.804 98.7809 269.757 99.096L259.493 100.672C259.197 100.714 258.916 100.791 258.642 100.882C258.333 100.35 257.961 99.8454 257.476 99.4322C257.118 99.124 256.71 98.8859 256.296 98.6828H260.891V98.6898ZM259.415 143.084V115.323C259.5 115.337 259.584 115.365 259.668 115.379V143.084C259.626 143.091 259.591 143.105 259.549 143.112C259.507 143.105 259.464 143.091 259.415 143.084Z" fill="#DDEEEA"/>
<path d="M283.408 157.861C282.909 157.861 282.417 157.798 281.954 157.672C281.49 157.798 281.005 157.861 280.499 157.861H260.328C257.265 157.861 254.777 155.382 254.777 152.328V148.589C254.777 145.759 256.906 143.42 259.66 143.091V115.386C256.906 115.057 254.777 112.717 254.777 109.888V106.148C254.777 103.417 256.78 101.092 259.485 100.679L275.799 98.1714C276.08 98.1294 276.361 98.1084 276.642 98.1084C277.956 98.1084 279.242 98.5776 280.26 99.439C281.49 100.49 282.2 102.023 282.2 103.641V118.026C282.586 117.942 282.994 117.893 283.408 117.893H299.547C302.61 117.893 305.097 120.372 305.097 123.426V127.165C305.097 130.219 302.61 132.698 299.547 132.698C298.935 132.698 297.741 132.887 295.851 133.952L299.75 139.162C301.654 141.725 302.596 142.734 302.982 143.112C305.624 143.532 307.648 145.822 307.648 148.575V152.314C307.648 155.368 305.16 157.847 302.097 157.847H283.408V157.861Z" fill="#DDEEEA"/>
<path d="M276.65 140.822V143.889C276.65 145.563 276.896 146.739 277.394 147.433C277.893 148.126 278.926 148.511 280.507 148.581V152.321H260.335V148.581C262.387 148.581 263.715 148.266 264.319 147.629C264.916 146.992 265.218 145.752 265.218 143.889V114.573C265.218 112.787 264.937 111.555 264.368 110.889C263.799 110.217 262.457 109.881 260.335 109.881V106.141L276.65 103.634V136.157L284.189 130.758C285.629 129.7 286.346 128.888 286.346 128.328C286.346 127.998 286.212 127.718 285.938 127.501C285.664 127.277 284.821 127.165 283.409 127.165V123.425H299.547V127.165C296.927 127.165 293.976 128.342 290.702 130.695L287.94 132.635L295.304 142.474C297.074 144.849 298.423 146.459 299.358 147.307C300.292 148.154 301.205 148.574 302.098 148.574V152.314H283.409V148.574C284.919 148.574 285.671 148.14 285.671 147.265C285.671 146.915 285.271 146.193 284.47 145.115L279.657 138.658L276.65 140.822Z" fill="#DDEEEA"/>
<path d="M145.657 67.721C150.378 68.5684 153.913 70.0671 156.273 72.2171C158.634 74.3672 159.814 77.1755 159.814 80.6282C159.814 84.5081 158.304 87.5685 155.283 89.8026C152.261 92.0367 147.252 93.1572 140.24 93.1572H115.08V89.2423C117.602 89.2423 119.282 88.8501 120.104 88.0588C120.926 87.2674 121.34 85.7126 121.34 83.3805V55.3391C121.34 53.084 120.954 51.5432 120.174 50.7168C119.394 49.8974 117.694 49.4842 115.08 49.4842V45.5694L133.516 45.0371H136.137C144.442 45.0371 150.104 46.0666 153.126 48.1256C156.147 50.1846 157.657 52.9859 157.657 56.5366C157.657 59.2189 156.66 61.488 154.664 63.3439C152.669 65.2068 149.669 66.6635 145.657 67.721ZM133.91 65.676H136.355C138.947 65.676 140.886 65.0737 142.158 63.8621C143.43 62.6506 144.069 60.5496 144.069 57.5661C144.069 55.332 143.669 53.5672 142.868 52.2716C142.067 50.976 141.013 50.1426 139.699 49.7644C138.392 49.3862 136.46 49.1971 133.91 49.1971V65.676ZM133.91 69.9761V83.5556C133.91 84.8722 134.043 85.8737 134.317 86.553C134.591 87.2324 135.118 87.8066 135.912 88.2689C136.699 88.7241 137.816 88.9552 139.256 88.9552C141.498 88.9552 143.177 88.1708 144.301 86.5951C145.425 85.0193 145.98 82.6522 145.98 79.5007C145.98 76.9864 145.615 75.0185 144.884 73.5898C144.153 72.1681 143.149 71.2087 141.877 70.7114C140.605 70.2142 138.715 69.9691 136.214 69.9691H133.91V69.9761Z" fill="#E7C924"/>
<path d="M178.573 78.373C178.573 82.2108 179.226 85.0892 180.533 87.0151C181.847 88.941 183.807 89.9075 186.428 89.9075C189.21 89.9075 191.775 88.4998 194.107 85.6775L197.396 87.6524C196.054 89.5783 194.121 91.1751 191.606 92.4357C189.091 93.6893 186.316 94.3196 183.273 94.3196C178.601 94.3196 174.603 92.9049 171.273 90.0686C167.943 87.2322 166.285 83.4084 166.285 78.5831C166.285 73.7648 167.894 69.9759 171.119 67.2236C174.343 64.4713 178.215 63.0986 182.746 63.0986C187.299 63.0986 191.037 64.3662 193.946 66.8945C196.862 69.4227 198.316 73.2535 198.316 78.373H178.573ZM178.531 74.8083H187.482C187.341 69.6118 185.817 67.0135 182.915 67.0135C181.454 67.0135 180.358 67.6648 179.627 68.9534C178.896 70.2491 178.531 72.203 178.531 74.8083Z" fill="#E7C924"/>
<path d="M216.33 78.373C216.33 82.2108 216.984 85.0892 218.291 87.0151C219.604 88.941 221.565 89.9075 224.185 89.9075C226.968 89.9075 229.532 88.4998 231.865 85.6775L235.153 87.6524C233.811 89.5783 231.879 91.1751 229.364 92.4357C226.848 93.6893 224.073 94.3196 221.031 94.3196C216.358 94.3196 212.361 92.9049 209.03 90.0686C205.707 87.2322 204.042 83.4084 204.042 78.5831C204.042 73.7648 205.651 69.9759 208.876 67.2236C212.101 64.4713 215.972 63.0986 220.504 63.0986C225.057 63.0986 228.794 64.3662 231.703 66.8945C234.619 69.4227 236.073 73.2535 236.073 78.373H216.33ZM216.295 74.8083H225.246C225.106 69.6118 223.581 67.0135 220.679 67.0135C219.218 67.0135 218.122 67.6648 217.391 68.9534C216.661 70.2491 216.295 72.203 216.295 74.8083Z" fill="#E7C924"/>
<path d="M255.972 44.4697V84.718C255.972 86.5319 256.253 87.7645 256.822 88.4228C257.391 89.0811 258.747 89.4103 260.89 89.4103V93.1501H239.334V89.4103C241.224 89.4103 242.559 89.1862 243.332 88.738C244.112 88.2898 244.498 86.9521 244.498 84.718V55.472C244.498 53.6161 244.196 52.3765 243.592 51.7532C242.995 51.1299 241.568 50.8218 239.327 50.8218V47.047L255.972 44.4697Z" fill="#E7C924"/>
<path d="M284.208 90.0829C282.487 91.3295 280.688 92.261 278.813 92.8913C276.937 93.5146 274.976 93.8227 272.918 93.8227C270.206 93.8227 268.168 93.2134 266.812 91.9878C265.456 90.7622 264.782 89.2495 264.782 87.4356C264.782 84.8724 266.138 82.6033 268.85 80.6284C271.562 78.6534 276.473 76.4684 283.569 74.0662V71.454C283.569 69.5981 283.119 68.4005 282.227 67.8753C281.328 67.343 280.267 67.0769 279.044 67.0769C276.072 67.0769 274.421 68.1624 274.091 70.3194C273.859 71.8041 273.381 72.8757 272.679 73.548C271.969 74.2203 270.873 74.5495 269.384 74.5495C268.042 74.5495 266.974 74.1923 266.18 73.4709C265.393 72.7566 264.993 71.9162 264.993 70.9497C264.993 68.7647 266.447 66.9018 269.349 65.3751C272.25 63.8483 276.129 63.085 280.991 63.085C283.703 63.085 285.979 63.246 287.806 63.5822C289.633 63.9114 291.108 64.5207 292.232 65.4171C293.356 66.3135 294.094 67.252 294.459 68.2394C294.825 69.2269 295.007 70.5646 295.007 72.2594V85.6638C295.007 87.6878 295.619 88.6963 296.848 88.6963C297.909 88.6963 298.584 88.0379 298.865 86.7213H301.801C301.731 89.1445 300.839 90.9303 299.132 92.0859C297.417 93.2344 295.373 93.8157 292.991 93.8157C288.649 93.8227 285.719 92.5761 284.208 90.0829ZM283.576 86.2731V78.0161C280.295 79.3818 278.152 80.6144 277.154 81.7209C276.15 82.8274 275.651 83.969 275.651 85.1385C275.651 86.035 275.946 86.8404 276.536 87.5547C277.126 88.269 277.906 88.6332 278.869 88.6332C279.719 88.6332 280.534 88.4301 281.314 88.0309C282.087 87.6387 282.845 87.0505 283.576 86.2731Z" fill="#E7C924"/>
<path d="M307.429 58.301L312.523 46.9766H326.891L310.507 58.301H307.429Z" fill="#E7C924"/>
<path d="M329.793 94.3194L329.547 84.7248H333.018C334.859 88.7027 338.231 90.6847 343.142 90.6847C345.194 90.6847 346.894 90.3345 348.236 89.6272C349.578 88.9198 350.252 88.1215 350.252 87.225C350.252 86.4477 349.887 85.8454 349.156 85.4252C348.398 85.026 346.718 84.5568 344.098 84.0175C340.037 83.1981 337.044 82.4137 335.111 81.6714C333.172 80.929 331.62 79.7875 330.439 78.2537C329.259 76.713 328.669 74.9552 328.669 72.9802C328.669 70.0388 329.877 67.6576 332.28 65.8368C334.69 64.0159 337.908 63.1055 341.941 63.1055C345.053 63.1055 348.229 63.7148 351.461 64.9403C352.03 64.4011 352.48 63.7918 352.81 63.1055H355.747L356.063 71.8527H353.231C351.412 68.2529 347.793 66.4531 342.362 66.4531C340.592 66.4531 339.137 66.7402 338.006 67.3215C336.875 67.8958 336.306 68.6311 336.306 69.5275C336.306 70.466 336.77 71.1593 337.69 71.6075C338.589 72.0558 340.781 72.623 344.273 73.3024C347.906 74.0307 350.639 74.7731 352.466 75.5224C354.292 76.2788 355.733 77.3713 356.787 78.821C357.833 80.2637 358.36 81.9445 358.36 83.8494C358.36 86.9309 356.99 89.4451 354.257 91.399C351.517 93.353 348.138 94.3264 344.098 94.3264C341.006 94.3264 337.774 93.6681 334.402 92.3515C333.763 92.8207 333.292 93.479 332.99 94.3264H329.793V94.3194Z" fill="#E7C924"/>
<path d="M185.958 126.661V141.726C185.958 144.24 186.119 145.907 186.456 146.719C186.787 147.531 187.468 147.937 188.508 147.937C190.068 147.937 191.318 146.971 192.26 145.045L195.731 146.208C193.939 150.676 190.103 152.91 184.229 152.91C180.997 152.91 178.566 152.125 176.936 150.564C175.306 149.002 174.491 146.656 174.491 143.525V126.661H170.283V122.851L171.168 122.886C174.021 122.886 176.466 121.983 178.496 120.169C180.527 118.362 181.749 116.051 182.178 113.257H185.965V122.851H194.67V126.661H185.958Z" fill="#37468A"/>
<path d="M218.228 148.673C216.507 149.919 214.708 150.851 212.832 151.481C210.956 152.104 208.989 152.413 206.938 152.413C204.225 152.413 202.188 151.803 200.832 150.578C199.476 149.352 198.794 147.839 198.794 146.025C198.794 143.462 200.15 141.193 202.862 139.218C205.574 137.243 210.486 135.058 217.582 132.656V130.044C217.582 128.188 217.132 126.99 216.24 126.465C215.341 125.933 214.28 125.667 213.057 125.667C210.085 125.667 208.434 126.752 208.104 128.909C207.865 130.394 207.394 131.466 206.692 132.138C205.982 132.81 204.886 133.139 203.403 133.139C202.061 133.139 200.994 132.782 200.2 132.061C199.413 131.346 199.012 130.506 199.012 129.54C199.012 127.355 200.467 125.492 203.368 123.965C206.27 122.438 210.148 121.675 215.01 121.675C217.722 121.675 219.992 121.836 221.826 122.172C223.652 122.501 225.128 123.11 226.252 124.007C227.376 124.903 228.114 125.842 228.479 126.829C228.844 127.817 229.027 129.154 229.027 130.849V144.254C229.027 146.278 229.638 147.286 230.868 147.286C231.929 147.286 232.603 146.628 232.884 145.311H235.821C235.751 147.734 234.859 149.52 233.151 150.676C231.437 151.824 229.392 152.406 227.011 152.406C222.669 152.413 219.739 151.166 218.228 148.673ZM217.596 144.863V136.606C214.315 137.972 212.179 139.204 211.174 140.311C210.169 141.417 209.671 142.559 209.671 143.728C209.671 144.625 209.966 145.43 210.556 146.145C211.146 146.859 211.926 147.223 212.888 147.223C213.739 147.223 214.554 147.02 215.334 146.621C216.106 146.229 216.865 145.64 217.596 144.863Z" fill="#37468A"/>
<path d="M253.413 103.06V143.308C253.413 145.122 253.694 146.354 254.263 147.013C254.833 147.671 256.189 148 258.331 148V151.74H236.783V148C238.666 148 240.001 147.776 240.781 147.328C241.561 146.88 241.947 145.542 241.947 143.308V114.062C241.947 112.206 241.645 110.966 241.041 110.343C240.443 109.72 239.017 109.412 236.776 109.412V105.637L253.413 103.06Z" fill="#37468A"/>
<path d="M276.199 140.241V143.308C276.199 144.982 276.445 146.158 276.944 146.852C277.443 147.545 278.475 147.93 280.056 148V151.74H259.885V148C261.936 148 263.264 147.685 263.868 147.048C264.466 146.411 264.768 145.171 264.768 143.308V113.992C264.768 112.206 264.487 110.974 263.918 110.308C263.349 109.636 262.007 109.3 259.885 109.3V105.56L276.199 103.053V135.576L283.738 130.177C285.178 129.119 285.895 128.307 285.895 127.747C285.895 127.417 285.761 127.137 285.487 126.92C285.213 126.696 284.37 126.584 282.958 126.584V122.844H299.097V126.584C296.476 126.584 293.525 127.761 290.251 130.114L287.49 132.054L294.853 141.893C296.623 144.268 297.972 145.878 298.907 146.726C299.841 147.573 300.755 147.993 301.647 147.993V151.733H282.958V147.993C284.469 147.993 285.22 147.559 285.22 146.684C285.22 146.333 284.82 145.612 284.019 144.534L279.206 138.077L276.199 140.241Z" fill="#37468A"/>
<path d="M125.001 220.871C143.227 220.871 158.002 206.143 158.002 187.976C158.002 169.809 143.227 155.081 125.001 155.081C106.775 155.081 92 169.809 92 187.976C92 206.143 106.775 220.871 125.001 220.871Z" fill="#DDEEEA"/>
<path d="M125.001 215.33C140.158 215.33 152.444 203.083 152.444 187.975C152.444 172.867 140.158 160.62 125.001 160.62C109.844 160.62 97.5576 172.867 97.5576 187.975C97.5576 203.083 109.844 215.33 125.001 215.33Z" fill="#DDEEEA"/>
<path d="M146.894 187.976C146.894 200.029 137.093 209.798 125.001 209.798C112.91 209.798 103.108 200.029 103.108 187.976C103.108 175.923 112.91 166.153 125.001 166.153C137.093 166.153 146.894 175.923 146.894 187.976ZM138.161 185.679C140.234 186.358 140.859 184.558 140.859 184.558C141.379 182.59 140.072 181.981 140.072 181.981C132.723 177.863 125.458 177.786 125.458 177.786C118.608 176.798 111.167 178.92 111.167 178.92C109.502 179.831 109.853 181.582 109.853 181.582C110.942 183.858 112.488 182.947 112.488 182.947C127.2 179.159 138.161 185.679 138.161 185.679ZM135.617 192.458C137.585 193.158 137.915 191.155 137.915 191.155C138.245 189.748 137.023 189.096 137.023 189.096C130.734 185.574 124.727 185.357 124.727 185.357C118.861 184.509 112.495 186.33 112.495 186.33C110.9 186.89 111.371 188.606 111.371 188.606C111.687 190.182 113.626 189.776 113.626 189.776C126.385 186.246 135.617 192.458 135.617 192.458ZM133.116 198.208C134.824 198.817 135.14 197.346 135.14 197.346C135.428 196.128 134.367 195.56 134.367 195.56C128.915 192.507 123.708 192.318 123.708 192.318C118.144 191.877 113.226 193.305 113.226 193.305C111.842 193.789 112.284 195.112 112.284 195.112C112.558 196.478 114.392 196.065 114.392 196.065C125.458 193.004 133.116 198.208 133.116 198.208Z" fill="#020304"/>
<path d="M338.563 163.667C337.333 163.667 336.125 163.471 334.965 163.072C331.22 161.797 328.101 158.772 326.618 154.976C325.178 151.285 325.396 147.272 327.209 143.966C329.618 139.701 332.352 136.13 334.986 132.684C335.801 131.613 336.806 130.716 337.958 130.058C339.413 129.224 341.085 128.783 342.792 128.783C343.769 128.783 344.759 128.923 345.736 129.21C350.008 130.45 353.823 133.097 356.472 136.669C358.06 138.805 359.001 141.06 359.282 143.378C359.619 146.145 359.043 148.904 357.575 151.579C357.378 151.929 357.181 152.265 356.971 152.588C355.038 155.606 352.376 157.854 349.27 159.08C348.638 159.332 347.991 159.535 347.331 159.689C345.09 162.203 341.914 163.667 338.563 163.667Z" fill="#DDEEEA"/>
<path d="M352.713 148.917C352.586 149.149 352.453 149.373 352.312 149.59C351.005 151.635 349.249 153.133 347.246 153.925C346.27 154.31 345.237 154.513 344.218 154.534C344.197 154.576 344.176 154.611 344.155 154.653C344.05 154.842 343.937 155.031 343.811 155.213C342.202 157.616 339.307 158.694 336.764 157.826C334.55 157.076 332.696 155.255 331.803 152.958C330.96 150.801 331.066 148.483 332.091 146.613C334.276 142.747 336.89 139.33 339.412 136.031C339.567 135.828 339.989 135.275 340.733 134.848C341.443 134.442 342.623 134.049 344.197 134.512C347.317 135.415 350.092 137.348 352.024 139.946C353.043 141.319 353.619 142.649 353.781 144.022C353.97 145.64 353.612 147.279 352.713 148.917Z" fill="#DDEEEA"/>
<path d="M337.965 154.317C338.976 154.66 340.115 154.044 340.705 153.162C341.295 152.279 341.464 151.187 341.604 150.129C342.827 150.963 344.485 151.019 345.869 150.479C347.246 149.933 348.37 148.848 349.164 147.601C349.761 146.67 350.204 145.584 350.07 144.484C349.965 143.637 349.529 142.86 349.017 142.173C347.569 140.226 345.475 138.77 343.143 138.09C342.96 138.034 342.742 137.992 342.581 138.083C342.496 138.132 342.433 138.216 342.37 138.294C339.883 141.543 337.382 144.807 335.372 148.371C334.213 150.423 335.611 153.519 337.965 154.317Z" fill="#DDEEEA"/>
<path d="M337.972 154.282C340.403 154.877 341.351 152.027 341.386 150.094L341.415 149.758C343.705 151.383 346.824 150.276 348.462 148.21C349.558 146.936 350.457 145.143 349.691 143.49C348.433 140.955 345.869 139.176 343.192 138.399C342.665 138.237 342.742 138.315 342.419 138.735L342.019 139.267C339.939 142.068 337.789 144.975 335.955 147.93C334.269 150.024 335.449 153.393 337.972 154.282ZM337.951 154.345C335.351 153.449 333.805 150.01 335.471 147.643C337.15 144.569 339.37 141.655 341.534 138.889C341.66 138.735 342.026 138.258 342.145 138.104C342.595 137.439 343.452 137.901 343.993 138.097C346.824 139.232 351.054 142.671 350.035 146.074C349.101 149.52 344.864 152.664 341.478 150.304L341.815 150.15C341.625 152.118 340.41 154.99 337.951 154.345Z" fill="black"/>
<path d="M342.026 143.126C339.293 143.126 336.581 142.433 334.178 141.123C326.246 136.795 323.323 126.85 327.658 118.943C330.539 113.698 336.054 110.441 342.061 110.441C344.795 110.441 347.507 111.135 349.909 112.444C353.746 114.538 356.542 117.998 357.771 122.193C359.001 126.388 358.523 130.8 356.423 134.631C353.556 139.87 348.034 143.126 342.026 143.126Z" fill="#DDEEEA"/>
<path d="M351.56 131.969C348.693 137.201 342.089 139.127 336.841 136.269C331.592 133.412 329.66 126.829 332.534 121.597C335.4 116.366 342.005 114.44 347.253 117.297C352.494 120.162 354.427 126.745 351.56 131.969Z" fill="#DDEEEA"/>
<path d="M342.047 133.875C345.973 133.875 349.157 130.702 349.157 126.788C349.157 122.873 345.973 119.7 342.047 119.7C338.12 119.7 334.936 122.873 334.936 126.788C334.936 130.702 338.12 133.875 342.047 133.875Z" fill="#FFCE05"/>
<path d="M345.475 120.54C351.292 123.685 350.513 131.899 344.077 133.699C340.36 134.806 336.004 132.677 334.922 128.867C333.004 122.494 339.728 117.318 345.475 120.54ZM345.44 120.596C340.198 117.732 333.84 123.075 335.512 128.692C337.156 134.617 345.222 135.646 348.039 130.058C349.768 126.857 348.791 122.361 345.44 120.596Z" fill="#020203"/>
<path d="M326.225 155.382C323.084 155.382 320.056 154.346 317.688 152.469C314.07 149.597 312.622 144.765 313.873 140.255C313.648 139.617 313.472 138.966 313.339 138.301C312.7 135.037 313.156 131.585 314.674 128.321C314.828 127.985 315.004 127.635 315.194 127.292C316.662 124.616 318.679 122.648 321.194 121.43C322.993 120.561 325.016 120.12 327.201 120.12C327.588 120.12 327.981 120.134 328.382 120.162C332.822 120.463 337.115 122.228 340.473 125.149C342.581 126.983 343.818 129.463 343.951 132.131C344.056 134.064 343.522 135.528 343.354 136.004C341.857 140.108 340.312 144.331 338.077 148.526C338.049 148.575 337.979 148.701 337.951 148.75C336.187 151.964 332.913 154.318 329.021 155.095C328.108 155.291 327.166 155.382 326.225 155.382Z" fill="#DDEEEA"/>
<path d="M333.138 146.011C332.112 147.881 330.215 149.218 327.932 149.674C325.508 150.164 322.972 149.582 321.145 148.133C319.044 146.466 318.384 143.455 319.55 140.807C319.641 140.604 319.733 140.408 319.838 140.219C319.859 140.177 319.88 140.142 319.908 140.1C319.374 139.231 318.995 138.258 318.791 137.236C318.377 135.128 318.693 132.844 319.719 130.645C319.831 130.407 319.943 130.176 320.07 129.945C320.969 128.306 322.164 127.116 323.618 126.415C324.869 125.813 326.309 125.575 328.016 125.687C331.255 125.904 334.382 127.193 336.834 129.322C338.07 130.393 338.379 131.598 338.415 132.417C338.457 133.244 338.225 133.895 338.141 134.133C336.707 138.055 335.232 142.089 333.187 145.941C333.166 145.948 333.145 145.997 333.138 146.011Z" fill="#DDEEEA"/>
<path d="M323.463 145.227C322.627 144.562 322.536 143.28 322.965 142.3C323.393 141.326 324.222 140.591 325.044 139.905C323.681 139.323 322.733 137.965 322.452 136.515C322.164 135.065 322.48 133.539 323.105 132.194C323.569 131.192 324.25 130.233 325.248 129.75C326.021 129.379 326.913 129.33 327.77 129.386C330.194 129.547 332.555 130.52 334.382 132.11C334.529 132.236 334.684 132.39 334.691 132.579C334.698 132.677 334.663 132.775 334.628 132.866C333.222 136.711 331.817 140.563 329.892 144.177C328.775 146.271 325.41 146.768 323.463 145.227Z" fill="#DDEEEA"/>
<path d="M323.449 145.255C321.587 143.553 323.344 140.962 324.904 139.743L324.96 140.108C321.138 138.546 321.51 133.293 323.92 130.646C326.246 127.957 331.431 129.652 333.918 131.409C334.375 131.76 335.232 132.222 334.909 132.964C334.838 133.153 334.649 133.706 334.578 133.903C333.412 137.208 332.147 140.64 330.454 143.714C329.344 146.39 325.606 146.95 323.449 145.255ZM323.484 145.199C325.213 146.537 328.002 146.249 329.33 144.569C330.04 143.49 330.475 142.223 331.044 141.06C332.084 138.742 333.068 136.081 333.995 133.699C334.058 133.482 334.389 132.733 334.396 132.6C334.318 132.383 333.827 132.026 333.602 131.837C331.571 130.268 328.894 129.245 326.295 129.546C323.604 130.009 322.585 133.258 322.634 135.646C322.712 137.313 323.618 138.973 325.136 139.715L325.459 139.876C324.545 140.584 323.569 141.298 323.056 142.342C322.599 143.238 322.648 144.527 323.484 145.199Z" fill="black"/>
<path d="M331.431 161.937C329.204 161.937 327.117 161.412 325.213 160.375C314.491 154.527 317.843 138.153 321.047 132.306C324.061 126.815 329.836 123.404 336.124 123.404C338.984 123.404 341.822 124.126 344.338 125.498C352.642 130.022 355.699 140.443 351.16 148.721C348.898 152.86 340.776 161.937 331.431 161.937Z" fill="#DDEEEA"/>
<path d="M346.298 146.067C343.839 150.556 334.599 159.177 327.883 155.515C321.159 151.852 323.463 139.449 325.929 134.96C329 129.364 336.068 127.298 341.689 130.358C347.295 133.426 349.368 140.471 346.298 146.067Z" fill="#DDEEEA"/>
<path d="M339.89 133.623C343.705 135.703 345.111 140.479 343.024 144.282C340.937 148.085 333.49 154.332 329.668 152.252C325.845 150.172 327.11 140.549 329.197 136.739C331.284 132.943 336.068 131.543 339.89 133.623Z" fill="#FFCE05"/>
<path d="M339.904 133.595C343.157 135.31 345.068 139.407 343.881 142.993C342.637 146.502 339.49 148.925 336.518 150.928C333.251 153.036 328.796 154.255 327.405 149.436C326.26 145.199 327.054 138.826 329.801 135.31C332.211 132.418 336.672 131.753 339.904 133.595ZM339.876 133.651C336.665 131.886 332.478 132.873 330.286 135.71C329.562 136.634 329.056 137.685 328.691 138.798C327.658 142.146 327.082 145.843 327.911 149.289C329.014 153.883 333.377 152.784 336.398 150.732C339.286 148.729 342.047 146.124 343.347 142.818C344.513 139.449 343.115 135.373 339.876 133.651Z" fill="#020203"/>
<path d="M344.788 123.342C343.635 125.443 340.98 126.22 338.872 125.072C336.764 123.923 335.984 121.276 337.136 119.175C338.289 117.074 340.944 116.296 343.052 117.445C345.16 118.594 345.94 121.241 344.788 123.342Z" fill="#DDEEEA"/>
<path d="M340.958 121.877C341.304 121.877 341.584 121.598 341.584 121.254C341.584 120.91 341.304 120.631 340.958 120.631C340.613 120.631 340.333 120.91 340.333 121.254C340.333 121.598 340.613 121.877 340.958 121.877Z" fill="#050606"/>
<path d="M351.125 126.801C349.973 128.902 347.317 129.679 345.209 128.531C343.101 127.382 342.321 124.735 343.474 122.634C344.626 120.533 347.282 119.755 349.389 120.904C351.497 122.053 352.277 124.693 351.125 126.801Z" fill="#DDEEEA"/>
<path d="M347.303 125.337C347.648 125.337 347.928 125.058 347.928 124.714C347.928 124.37 347.648 124.091 347.303 124.091C346.957 124.091 346.677 124.37 346.677 124.714C346.677 125.058 346.957 125.337 347.303 125.337Z" fill="#050606"/>
<path d="M339.075 129.722C337.923 129.722 336.792 129.511 335.717 129.091C331.094 127.298 328.726 122.207 330.257 117.571C328.241 115.498 327.047 112.647 327.138 109.664C327.3 104.748 330.904 100.426 335.724 99.383C336.489 99.2149 337.276 99.1309 338.063 99.1309C341.878 99.1309 344.541 101.057 345.412 101.694C348.946 104.243 350.872 108.592 350.555 113.32C350.295 117.263 348.968 120.645 347.907 123.355L347.724 123.818C347.576 124.196 347.408 124.56 347.211 124.91C345.595 127.873 342.476 129.722 339.075 129.722Z" fill="#DDEEEA"/>
<path d="M342.349 122.256C341.464 123.867 339.489 124.616 337.726 123.937C335.808 123.195 334.852 121.038 335.597 119.126L335.78 118.649C336.236 117.48 336.686 116.338 337.016 115.239C336.869 115.211 336.714 115.176 336.567 115.134C334.241 114.475 332.604 112.248 332.681 109.839C332.759 107.43 334.529 105.308 336.89 104.797C339.461 104.237 341.478 105.7 342.138 106.176C343.087 106.863 345.279 108.901 345.005 112.956C344.801 116.044 343.698 118.867 342.721 121.353L342.539 121.815C342.497 121.962 342.426 122.109 342.349 122.256ZM336.201 108.95C336.201 108.95 336.201 108.943 336.201 108.95C336.201 108.943 336.201 108.943 336.201 108.95Z" fill="#DDEEEA"/>
<path d="M339.061 120.456C339.792 117.361 342.876 112.073 340.08 109.489C339.222 108.782 337.726 108.067 336.904 109.181C336.405 109.79 336.574 110.757 337.241 111.219C337.866 111.709 338.927 111.513 339.412 110.799L339.447 110.82C338.239 112.942 335.168 110.953 336.574 108.943C337.515 107.605 339.328 108.327 340.29 109.265C342.742 111.877 340.508 117.781 339.061 120.456Z" fill="#050606"/>
<path d="M349.136 135.681C347.155 135.681 345.265 135.065 343.663 133.903C341.66 132.446 340.347 130.303 339.96 127.866C339.574 125.421 340.171 122.97 341.639 120.974L341.927 120.582C343.649 118.222 345.785 115.295 348.982 112.941C351.455 111.121 354.258 110.161 357.096 110.161C359.043 110.161 360.609 110.609 361.579 110.988C366.041 112.724 367.945 115.694 368.76 117.872C369.856 120.813 369.61 124.105 368.085 126.885C367.27 128.37 366.104 129.658 364.713 130.611C362.9 131.851 360.771 132.502 358.558 132.502C357.806 132.502 357.061 132.425 356.331 132.278C354.581 134.421 351.925 135.681 349.136 135.681Z" fill="#DDEEEA"/>
<path d="M363.209 124.238C362.815 124.953 362.26 125.583 361.572 126.059C359.577 127.425 356.815 127.257 355.01 125.66C354.89 125.555 354.785 125.45 354.679 125.338C353.928 126.213 353.204 127.201 352.466 128.216L352.164 128.629C350.949 130.289 348.616 130.653 346.951 129.442C345.286 128.23 344.913 125.912 346.136 124.245L346.431 123.846C348.005 121.689 349.789 119.245 352.291 117.403C355.565 114.994 358.473 115.722 359.569 116.149C360.328 116.444 362.647 117.347 363.567 119.812C364.101 121.276 363.94 122.901 363.209 124.238ZM360.42 122.628C360.42 122.635 360.42 122.635 360.42 122.628C360.42 122.635 360.42 122.635 360.42 122.628ZM357.16 123.132L357.167 123.118L357.16 123.132Z" fill="#DDEEEA"/>
<path d="M349.122 126.416C350.794 123.72 354.314 118.748 357.947 119.364C359.253 119.665 360.841 120.793 360.223 122.305C359.282 124.574 355.944 123.069 357.089 120.912L357.125 120.933C356.78 121.731 357.188 122.726 357.94 122.985C358.691 123.293 359.598 122.915 359.844 122.165C360.335 120.877 358.93 120.001 357.869 119.665C354.082 118.713 351.413 124.266 349.122 126.416Z" fill="#050606"/>
<path d="M334.17 161.146C332.618 161.146 331.072 160.754 329.716 160.011L322.943 156.321C320.189 154.815 318.397 152.063 318.144 148.946L317.962 146.649C317.814 144.849 318.201 143.056 319.072 141.467C319.809 140.122 320.877 138.973 322.17 138.14C323.674 137.167 325.423 136.655 327.215 136.655C328.768 136.655 330.306 137.047 331.669 137.79L340.824 142.776C343.923 144.464 345.77 147.7 345.644 151.222C345.595 152.651 345.201 154.073 344.513 155.333C343.543 157.091 342.068 158.464 340.248 159.304L338.063 160.306C336.826 160.866 335.519 161.146 334.17 161.146Z" fill="#DDEEEA"/>
<path d="M339.63 152.678C339.251 153.365 338.661 153.932 337.916 154.275L335.731 155.276C334.656 155.767 333.419 155.725 332.387 155.157L325.606 151.46C324.503 150.857 323.78 149.744 323.674 148.497L323.492 146.2C323.435 145.465 323.597 144.743 323.934 144.12C324.229 143.588 324.651 143.126 325.178 142.782C326.33 142.04 327.792 141.984 329 142.642L338.148 147.629C339.384 148.301 340.136 149.618 340.087 151.018C340.066 151.614 339.904 152.174 339.63 152.678Z" fill="#DDEEEA"/>
<path d="M336.356 150.893L334.171 151.894L327.391 148.196L327.208 145.906L336.356 150.893Z" fill="#050606"/>
<path d="M342.862 150.423C342.595 150.913 342.208 151.348 341.731 151.684L339.967 152.916C338.829 153.715 337.339 153.813 336.11 153.175L325.529 147.72C324.229 147.048 323.442 145.689 323.519 144.232L323.639 141.795C323.667 141.228 323.829 140.681 324.088 140.198C324.419 139.596 324.918 139.085 325.543 138.735C326.66 138.111 328.03 138.104 329.154 138.713L341.372 145.374C342.504 145.99 343.234 147.146 343.304 148.427C343.354 149.134 343.192 149.821 342.862 150.423Z" fill="#DDEEEA"/>
<path d="M339.588 148.638L337.831 149.87L327.25 144.415L327.377 141.978L339.588 148.638Z" fill="#050606"/>
<path d="M340.895 156.355C339.482 156.355 338.063 156.026 336.798 155.403L323.702 148.981C319.789 147.062 317.765 142.769 318.77 138.546L319.36 136.073C319.557 135.254 319.859 134.477 320.252 133.755C321.201 132.032 322.718 130.618 324.517 129.798C325.74 129.238 327.046 128.958 328.388 128.958C329.864 128.958 331.339 129.315 332.646 129.988L346.529 137.138C349.003 138.413 350.752 140.696 351.342 143.399C351.813 145.57 351.49 147.839 350.415 149.8C350.169 150.248 349.881 150.682 349.558 151.089L348.18 152.832C346.417 155.074 343.761 156.355 340.895 156.355Z" fill="#DDEEEA"/>
<path d="M345.553 147.139C345.455 147.321 345.342 147.489 345.209 147.657L343.825 149.408C342.736 150.788 340.825 151.222 339.244 150.445L326.154 144.023C324.595 143.259 323.773 141.515 324.173 139.828L324.763 137.355C324.841 137.026 324.96 136.718 325.122 136.431C325.501 135.738 326.098 135.17 326.836 134.834C327.876 134.358 329.084 134.386 330.103 134.911L343.993 142.048C344.984 142.559 345.694 143.476 345.925 144.562C346.115 145.444 345.982 146.362 345.553 147.139Z" fill="#DDEEEA"/>
<path d="M342.279 145.353L340.895 147.104L327.805 140.682L328.395 138.21L342.279 145.353Z" fill="#050606"/>
<path d="M337.965 154.387C338.976 154.73 340.115 154.113 340.705 153.231C341.295 152.349 341.464 151.256 341.604 150.199C342.827 151.032 344.485 151.088 345.869 150.549C347.246 150.002 348.37 148.917 349.164 147.67C349.761 146.739 350.204 145.653 350.07 144.554C349.965 143.706 349.529 142.929 349.017 142.243C347.569 140.296 345.475 138.839 343.143 138.16C342.96 138.104 342.742 138.062 342.581 138.153C342.496 138.202 342.433 138.286 342.37 138.363C339.883 141.612 337.382 144.876 335.372 148.441C334.213 150.5 335.611 153.588 337.965 154.387Z" fill="#DDEEEA"/>
<path d="M337.972 154.359C340.403 154.954 341.351 152.096 341.386 150.171L341.415 149.834C343.705 151.459 346.824 150.353 348.462 148.287C349.558 147.012 350.457 145.219 349.691 143.566C348.433 141.031 345.869 139.252 343.192 138.475C342.665 138.314 342.742 138.391 342.419 138.811L342.019 139.343C339.939 142.145 337.789 145.051 335.955 148.006C334.269 150.1 335.449 153.462 337.972 154.359ZM337.951 154.415C335.351 153.518 333.805 150.079 335.471 147.712C337.15 144.638 339.37 141.724 341.534 138.958C341.66 138.804 342.026 138.328 342.145 138.174C342.595 137.508 343.452 137.971 343.993 138.167C346.824 139.301 351.054 142.74 350.035 146.144C349.101 149.589 344.864 152.734 341.478 150.374L341.815 150.22C341.618 152.187 340.41 155.059 337.951 154.415Z" fill="black"/>
<path d="M342.048 133.944C345.974 133.944 349.158 130.771 349.158 126.857C349.158 122.943 345.974 119.77 342.048 119.77C338.121 119.77 334.937 122.943 334.937 126.857C334.937 130.771 338.121 133.944 342.048 133.944Z" fill="#FFCE05"/>
<path d="M345.476 120.61C351.293 123.754 350.514 131.969 344.078 133.769C340.361 134.875 336.005 132.746 334.923 128.937C333.005 122.571 339.729 117.388 345.476 120.61ZM345.441 120.666C340.206 117.801 333.841 123.145 335.513 128.762C337.157 134.686 345.223 135.716 348.04 130.127C349.769 126.934 348.785 122.43 345.441 120.666Z" fill="#020203"/>
<path d="M323.463 145.297C322.627 144.631 322.535 143.35 322.964 142.369C323.393 141.389 324.222 140.66 325.044 139.974C323.681 139.393 322.732 138.034 322.451 136.584C322.163 135.135 322.479 133.608 323.105 132.263C323.568 131.262 324.25 130.302 325.247 129.819C326.02 129.448 326.913 129.399 327.77 129.455C330.194 129.616 332.554 130.59 334.381 132.179C334.529 132.305 334.683 132.459 334.69 132.648C334.697 132.747 334.662 132.845 334.627 132.936C333.222 136.78 331.817 140.632 329.892 144.246C328.767 146.347 325.409 146.844 323.463 145.297Z" fill="#DDEEEA"/>
<path d="M323.442 145.324C321.58 143.623 323.337 141.031 324.897 139.813L324.953 140.177C321.131 138.615 321.503 133.363 323.913 130.715C326.239 128.026 331.424 129.721 333.911 131.479C334.368 131.829 335.225 132.291 334.902 133.033C334.831 133.223 334.642 133.776 334.571 133.972C333.405 137.277 332.14 140.709 330.447 143.784C329.344 146.466 325.606 147.019 323.442 145.324ZM323.484 145.275C325.213 146.613 328.002 146.326 329.33 144.645C330.04 143.566 330.475 142.299 331.044 141.136C332.084 138.818 333.068 136.157 333.995 133.776C334.058 133.559 334.389 132.809 334.396 132.676C334.318 132.459 333.827 132.102 333.602 131.913C331.571 130.344 328.894 129.322 326.295 129.623C323.604 130.085 322.585 133.335 322.634 135.723C322.712 137.39 323.618 139.049 325.135 139.792L325.459 139.953C324.545 140.66 323.569 141.374 323.056 142.418C322.599 143.314 322.648 144.596 323.484 145.275Z" fill="black"/>
<path d="M339.89 133.699C343.705 135.779 345.111 140.555 343.024 144.358C340.937 148.161 333.49 154.408 329.668 152.328C325.845 150.248 327.11 140.625 329.197 136.815C331.284 133.006 336.068 131.612 339.89 133.699Z" fill="#FFCE05"/>
<path d="M339.904 133.664C343.157 135.38 345.068 139.477 343.881 143.062C342.637 146.571 339.49 148.994 336.518 150.997C333.251 153.105 328.796 154.324 327.405 149.505C326.26 145.268 327.054 138.895 329.801 135.38C332.211 132.487 336.665 131.829 339.904 133.664ZM339.869 133.727C336.658 131.962 332.471 132.949 330.279 135.786C329.555 136.71 329.049 137.761 328.684 138.874C327.651 142.222 327.075 145.92 327.904 149.365C329.007 153.96 333.37 152.86 336.391 150.808C339.279 148.805 342.04 146.2 343.34 142.894C344.513 139.519 343.115 135.45 339.869 133.727Z" fill="#020203"/>
<path d="M340.958 121.955C341.304 121.955 341.584 121.676 341.584 121.331C341.584 120.987 341.304 120.708 340.958 120.708C340.613 120.708 340.333 120.987 340.333 121.331C340.333 121.676 340.613 121.955 340.958 121.955Z" fill="#050606"/>
<path d="M347.303 125.407C347.648 125.407 347.928 125.128 347.928 124.783C347.928 124.439 347.648 124.16 347.303 124.16C346.957 124.16 346.677 124.439 346.677 124.783C346.677 125.128 346.957 125.407 347.303 125.407Z" fill="#050606"/>
<path d="M339.061 120.533C339.792 117.437 342.876 112.15 340.08 109.565C339.222 108.858 337.726 108.144 336.904 109.257C336.405 109.866 336.574 110.833 337.241 111.295C337.866 111.785 338.927 111.589 339.412 110.875L339.447 110.896C338.239 113.018 335.168 111.029 336.574 109.019C337.515 107.681 339.328 108.403 340.29 109.341C342.742 111.946 340.508 117.85 339.061 120.533Z" fill="#050606"/>
<path d="M349.122 126.492C350.794 123.796 354.314 118.824 357.947 119.44C359.253 119.741 360.841 120.869 360.223 122.381C359.282 124.651 355.944 123.145 357.089 120.988L357.125 121.009C356.78 121.807 357.188 122.802 357.94 123.061C358.691 123.369 359.598 122.991 359.844 122.241C360.335 120.953 358.93 120.077 357.869 119.741C354.082 118.782 351.413 124.335 349.122 126.492Z" fill="#050606"/>
<path d="M336.356 150.962L334.171 151.963L327.391 148.273L327.208 145.976L336.356 150.962Z" fill="#050606"/>
<path d="M339.588 148.715L337.831 149.947L327.25 144.492L327.37 142.055L339.588 148.715Z" fill="#050606"/>
<path d="M342.279 145.43L340.895 147.174L327.805 140.751L328.389 138.279L342.279 145.43Z" fill="#050606"/>
</svg>
