<svg width="34" height="33" viewBox="0 0 34 33" fill="none" xmlns="http://www.w3.org/2000/svg">
<path d="M16.9194 0C12.5336 0 11.9821 0.0202755 10.2588 0.0973223C8.53559 0.178424 7.36185 0.450116 6.33357 0.85157C5.25497 1.25874 4.278 1.89743 3.47094 2.723C2.64888 3.5334 2.01257 4.51381 1.6063 5.59603C1.2063 6.62603 0.93357 7.80606 0.854782 9.52948C0.778015 11.263 0.757812 11.8145 0.757812 16.2224C0.757812 20.6262 0.778015 21.1777 0.854782 22.9072C0.93559 24.6347 1.2063 25.8127 1.6063 26.8447C2.02044 27.9112 2.57195 28.8155 3.47094 29.7178C4.36791 30.62 5.26892 31.1756 6.33155 31.5892C7.36185 31.9907 8.53357 32.2644 10.2548 32.3434C11.98 32.4205 12.5295 32.4408 16.9194 32.4408C21.3093 32.4408 21.8568 32.4205 23.5821 32.3434C25.3012 32.2623 26.479 31.9907 27.5073 31.5892C28.5852 31.1818 29.5615 30.5431 30.3679 29.7178C31.2669 28.8155 31.8184 27.9112 32.2326 26.8447C32.6305 25.8127 32.9033 24.6347 32.9841 22.9072C33.0608 21.1777 33.081 20.6262 33.081 16.2204C33.081 11.8145 33.0608 11.263 32.9841 9.5315C32.9033 7.80606 32.6305 6.62603 32.2326 5.59603C31.8263 4.51378 31.19 3.53336 30.3679 2.723C29.5611 1.89713 28.5841 1.25839 27.5053 0.85157C26.475 0.450116 25.2992 0.176397 23.58 0.0973223C21.8548 0.0202755 21.3073 0 16.9154 0H16.9214H16.9194ZM15.4709 2.92372H16.9214C21.2366 2.92372 21.7477 2.93792 23.4507 3.01699C25.0265 3.08796 25.8831 3.35356 26.4528 3.57457C27.2063 3.86856 27.7457 4.22135 28.3113 4.78907C28.877 5.35678 29.2265 5.89611 29.5194 6.65441C29.7416 7.22415 30.0043 8.08383 30.075 9.66532C30.1538 11.3745 30.1699 11.8875 30.1699 16.2163C30.1699 20.5451 30.1538 21.0601 30.075 22.7694C30.0043 24.3509 29.7396 25.2085 29.5194 25.7803C29.2603 26.4846 28.8468 27.1214 28.3093 27.6436C27.7437 28.2113 27.2063 28.5621 26.4507 28.8561C25.8851 29.0791 25.0285 29.3427 23.4507 29.4157C21.7477 29.4927 21.2366 29.511 16.9214 29.511C12.6063 29.511 12.0932 29.4927 10.3901 29.4157C8.81438 29.3427 7.95983 29.0791 7.39014 28.8561C6.68811 28.5964 6.05302 28.1821 5.53155 27.6436C4.99367 27.1206 4.57947 26.4831 4.31943 25.7782C4.09923 25.2085 3.83458 24.3488 3.76387 22.7673C3.68711 21.0581 3.67094 20.5451 3.67094 16.2123C3.67094 11.8814 3.68711 11.3705 3.76387 9.66127C3.8366 8.07978 4.09923 7.2201 4.32145 6.64833C4.61438 5.89206 4.96589 5.3507 5.53155 4.78299C6.09721 4.21527 6.63458 3.86451 7.39014 3.57051C7.95983 3.34748 8.81438 3.0839 10.3901 3.01091C11.881 2.94197 12.4588 2.9217 15.4709 2.91967V2.92372ZM25.5477 5.61631C25.293 5.61631 25.0408 5.66665 24.8055 5.76447C24.5702 5.86229 24.3564 6.00566 24.1764 6.18641C23.9963 6.36715 23.8534 6.58173 23.7559 6.81788C23.6585 7.05404 23.6083 7.30714 23.6083 7.56275C23.6083 7.81837 23.6585 8.07147 23.7559 8.30763C23.8534 8.54378 23.9963 8.75836 24.1764 8.9391C24.3564 9.11984 24.5702 9.26322 24.8055 9.36104C25.0408 9.45885 25.293 9.5092 25.5477 9.5092C26.0621 9.5092 26.5554 9.30413 26.9191 8.9391C27.2828 8.57407 27.4871 8.07898 27.4871 7.56275C27.4871 7.04652 27.2828 6.55144 26.9191 6.18641C26.5554 5.82138 26.0621 5.61631 25.5477 5.61631ZM16.9214 7.89122C15.8206 7.87398 14.7273 8.07671 13.7052 8.4876C12.6832 8.8985 11.7528 9.50934 10.9682 10.2846C10.1836 11.0598 9.56057 11.984 9.13527 13.0032C8.70997 14.0224 8.49094 15.1164 8.49094 16.2214C8.49094 17.3264 8.70997 18.4204 9.13527 19.4396C9.56057 20.4588 10.1836 21.383 10.9682 22.1582C11.7528 22.9335 12.6832 23.5443 13.7052 23.9552C14.7273 24.3661 15.8206 24.5688 16.9214 24.5516C19.1003 24.5175 21.1784 23.6248 22.7073 22.0663C24.2361 20.5078 25.093 18.4085 25.093 16.2214C25.093 14.0343 24.2361 11.935 22.7073 10.3765C21.1784 8.81798 19.1003 7.92533 16.9214 7.89122ZM16.9214 10.8129C18.3504 10.8129 19.7208 11.3826 20.7313 12.3967C21.7417 13.4108 22.3093 14.7862 22.3093 16.2204C22.3093 17.6545 21.7417 19.0299 20.7313 20.044C19.7208 21.0581 18.3504 21.6279 16.9214 21.6279C15.4925 21.6279 14.1221 21.0581 13.1116 20.044C12.1012 19.0299 11.5336 17.6545 11.5336 16.2204C11.5336 14.7862 12.1012 13.4108 13.1116 12.3967C14.1221 11.3826 15.4925 10.8129 16.9214 10.8129Z" fill="black"/>
</svg>
