<svg width="33" height="33" viewBox="0 0 33 33" fill="none" xmlns="http://www.w3.org/2000/svg">
<g clip-path="url(#clip0_5417_8062)">
<path d="M6.87297 20.4985C6.87297 22.376 5.3457 23.9068 3.47701 23.9068C1.60833 23.9068 0.0810547 22.376 0.0810547 20.5005C0.0810547 18.6251 1.60833 17.0922 3.47499 17.0922H6.87297V20.4985ZM8.58206 20.4985C8.58206 18.6251 10.1093 17.0922 11.978 17.0922C13.8467 17.0922 15.374 18.6251 15.374 20.4985V29.0345C15.374 30.9079 13.8467 32.4408 11.98 32.4408C11.08 32.4392 10.2173 32.0799 9.5805 31.4416C8.94372 30.8032 8.58473 29.9378 8.58206 29.0345V20.4985ZM11.98 6.81662C10.1093 6.81662 8.58206 5.28379 8.58206 3.40831C8.58206 1.53283 10.1093 0 11.98 0C13.8508 0 15.374 1.53283 15.374 3.40628V6.81662H11.98ZM11.98 8.53192C13.8467 8.53192 15.374 10.0647 15.374 11.9402C15.374 13.8157 13.8467 15.3485 11.98 15.3485H3.47499C1.61035 15.3485 0.0810547 13.8157 0.0810547 11.9423C0.0810547 10.0647 1.60833 8.53192 3.47499 8.53192H11.98ZM25.6144 11.9423C25.6144 10.0647 27.1396 8.53192 29.0083 8.53192C30.877 8.53192 32.4043 10.0647 32.4043 11.9402C32.4043 13.8157 30.877 15.3485 29.0103 15.3485H25.6144V11.9423ZM23.9013 11.9423C23.9013 13.8157 22.376 15.3485 20.5073 15.3485C19.6077 15.3464 18.7454 14.9869 18.1091 14.3486C17.4727 13.7103 17.114 12.8452 17.1114 11.9423V3.40628C17.1114 1.53485 18.6386 0 20.5053 0C22.376 0 23.9013 1.53283 23.9013 3.40628V11.9423ZM20.5053 25.6242C22.376 25.6242 23.9033 27.157 23.9033 29.0325C23.9033 30.9079 22.376 32.4408 20.5053 32.4408C18.6346 32.4408 17.1093 30.9079 17.1093 29.0345V25.6242H20.5033H20.5053ZM20.5053 23.9068C18.6386 23.9068 17.1114 22.376 17.1114 20.5005C17.1114 18.6251 18.6386 17.0922 20.5053 17.0922H29.0103C30.877 17.0922 32.4043 18.6251 32.4043 20.4985C32.4043 22.376 30.877 23.9068 29.0103 23.9068H20.5053Z" fill="black"/>
</g>
<defs>
<clipPath id="clip0_5417_8062">
<rect width="32.3232" height="32.4408" fill="white" transform="translate(0.0810547)"/>
</clipPath>
</defs>
</svg>
