<svg width="33" height="33" viewBox="0 0 33 33" fill="none" xmlns="http://www.w3.org/2000/svg">
<g clip-path="url(#clip0_5417_8055)">
<path d="M16.7578 0.220703C12.5143 0.220703 8.44469 1.90641 5.4441 4.90699C2.44352 7.90758 0.757813 11.9772 0.757812 16.2207C0.757813 20.4642 2.44352 24.5338 5.4441 27.5344C8.44469 30.535 12.5143 32.2207 16.7578 32.2207C21.0013 32.2207 25.0709 30.535 28.0715 27.5344C31.0721 24.5338 32.7578 20.4642 32.7578 16.2207C32.7578 11.9772 31.0721 7.90758 28.0715 4.90699C25.0709 1.90641 21.0013 0.220703 16.7578 0.220703V0.220703ZM24.0958 23.2967C24.0276 23.4086 23.9379 23.506 23.8319 23.5832C23.726 23.6604 23.6058 23.7159 23.4783 23.7466C23.3509 23.7772 23.2186 23.7824 23.0891 23.7619C22.9596 23.7413 22.8355 23.6954 22.7238 23.6267C18.9658 21.3327 14.2378 20.8127 8.66781 22.0867C8.40976 22.1456 8.13888 22.0995 7.91478 21.9587C7.69067 21.8179 7.53169 21.5938 7.47281 21.3357C7.41393 21.0776 7.45998 20.8068 7.60082 20.5827C7.74166 20.3586 7.96576 20.1996 8.22381 20.1407C14.3198 18.7487 19.5478 19.3467 23.7638 21.9247C23.9894 22.063 24.151 22.285 24.2132 22.5421C24.2754 22.7993 24.2332 23.0706 24.0958 23.2967ZM26.0538 18.9407C25.8805 19.2225 25.6025 19.424 25.2807 19.5009C24.9589 19.5778 24.6198 19.5238 24.3378 19.3507C20.0378 16.7087 13.4818 15.9427 8.39381 17.4867C8.08412 17.5603 7.75802 17.513 7.48203 17.3544C7.20604 17.1958 7.00095 16.9379 6.90859 16.6332C6.81623 16.3286 6.84357 16.0002 6.98503 15.7151C7.12648 15.4299 7.3714 15.2095 7.66981 15.0987C13.4798 13.3367 20.7038 14.1907 25.6418 17.2247C25.924 17.3976 26.1259 17.6756 26.2032 17.9974C26.2804 18.3192 26.2267 18.6585 26.0538 18.9407ZM26.2218 14.4047C21.0658 11.3407 12.5578 11.0587 7.63381 12.5527C7.25402 12.6678 6.84406 12.6273 6.49412 12.4402C6.14418 12.253 5.88292 11.9345 5.76781 11.5547C5.65271 11.1749 5.69319 10.765 5.88035 10.415C6.06751 10.0651 6.38602 9.80381 6.76581 9.6887C12.4158 7.9747 21.8118 8.3047 27.7498 11.8287C28.0914 12.0313 28.3385 12.3614 28.4368 12.7462C28.5351 13.131 28.4764 13.5391 28.2738 13.8807C28.0712 14.2223 27.7412 14.4694 27.3563 14.5677C26.9715 14.666 26.5634 14.6073 26.2218 14.4047Z" fill="black"/>
</g>
<defs>
<clipPath id="clip0_5417_8055">
<rect width="32" height="32" fill="white" transform="translate(0.757812 0.220703)"/>
</clipPath>
</defs>
</svg>
