<?xml version="1.0" encoding="utf-8"?>
<!-- Generator: Adobe Illustrator 26.1.0, SVG Export Plug-In . SVG Version: 6.00 Build 0)  -->
<svg version="1.1" id="Capa_1" xmlns="http://www.w3.org/2000/svg" xmlns:xlink="http://www.w3.org/1999/xlink" x="0px" y="0px"
	 viewBox="0 0 500 500" style="enable-background:new 0 0 500 500;" xml:space="preserve">
<style type="text/css">
	.st0{fill:#F3E3F0;}
	.st1{fill:none;}
	.st2{fill:#37468A;}
	.st3{font-family:'no_name_37';}
	.st4{font-size:133.1026px;}
	.st5{fill:#E7C924;stroke:#36468B;stroke-width:7.6822;stroke-miterlimit:10;}
</style>
<g>
	<g>
		<g>
			<path class="st0" d="M183.15,327.99c-30.16,0-52.91-23.7-52.91-55.12c0-32.84,22.22-56.68,52.84-56.68
				c30.57,0,47.06,22.4,47.06,43.49c0,9.76-3.07,17.14-7.98,22.53l2.71,2.94c7.44,8.09,6.95,20.66-1.1,28.14
				C213.13,323.18,199.84,327.99,183.15,327.99z M189.33,244.65"/>
			<path class="st0" d="M202.71,290.54l7.47,8.12c-7.34,6.82-16.18,9.36-27.03,9.36c-19.89,0-32.95-15.14-32.95-35.15
				c0-20.66,11.89-36.71,32.88-36.71c12.48,0,27.1,7.54,27.1,23.52c0,9.68-6.04,14.88-21.25,14.88H161.9
				c0.52,12.02,8.32,22.68,21.9,22.68C190.69,297.24,197.64,295.09,202.71,290.54z M161.97,264.68h25.99
				c8.84,0,10.85-2.86,10.85-5.13c0-7.08-5.98-12.87-16.18-12.87C173.86,246.68,165.28,252.99,161.97,264.68z"/>
			<path class="st0" d="M256.79,327.99c-30.16,0-52.91-23.7-52.91-55.12c0-32.84,22.22-56.68,52.84-56.68
				c30.57,0,47.06,22.4,47.06,43.49c0,9.76-3.07,17.14-7.98,22.53l2.71,2.94c7.44,8.09,6.95,20.66-1.1,28.14
				C286.76,323.18,273.48,327.99,256.79,327.99z M262.97,244.65"/>
			<path class="st0" d="M276.34,290.54l7.47,8.12c-7.34,6.82-16.18,9.36-27.03,9.36c-19.89,0-32.95-15.14-32.95-35.15
				c0-20.66,11.89-36.71,32.88-36.71c12.48,0,27.1,7.54,27.1,23.52c0,9.68-6.04,14.88-21.25,14.88h-27.03
				c0.52,12.02,8.32,22.68,21.9,22.68C264.32,297.24,271.28,295.09,276.34,290.54z M235.6,264.68h25.99
				c8.84,0,10.85-2.86,10.85-5.13c0-7.08-5.98-12.87-16.18-12.87C247.49,246.68,238.92,252.99,235.6,264.68z"/>
			<path class="st0" d="M301.38,326.75c-11.02,0-19.96-8.94-19.96-19.96V204.38c0-11.02,8.94-19.96,19.96-19.96h11.7
				c11.02,0,19.96,8.94,19.96,19.96v102.41c0,11.02-8.94,19.96-19.96,19.96H301.38z"/>
			<path class="st0" d="M313.07,306.79h-11.7V204.38h11.7V306.79z"/>
			<path class="st0" d="M359.8,327.99c-28.38,0-49.79-24-49.79-55.83c0-31.38,23.81-55.96,54.21-55.96c13.56,0,25.97,3.5,35.9,10.11
				c5.55,3.7,8.89,9.94,8.89,16.61v63.87c0,11.02-8.94,19.96-19.96,19.96h-9.42c-1.94,0-3.83-0.28-5.63-0.81
				C369.42,327.26,364.57,327.99,359.8,327.99z"/>
			<path class="st0" d="M389.04,306.79h-9.42l-2.27-4.61c-2.73,2.86-10.27,5.85-17.54,5.85c-18.13,0-29.83-16.05-29.83-35.87
				c0-20.79,15.27-36,34.25-36c9.75,0,18.39,2.47,24.82,6.76V306.79z M377.34,289.76v-40.16c-2.93-1.62-6.56-2.66-12.48-2.66
				c-13.19,0-23.13,10.2-23.13,25.21c0,11.76,5.2,25.15,18.84,25.15C367.14,297.3,374.09,293.99,377.34,289.76z"/>
		</g>
		<path class="st0" d="M100.69,323.14c-4.22,0-8.46-0.49-12.59-1.45c-8.51-1.98-14.74-9.26-15.39-17.98l-7.61-103
			c-0.44-5.91,1.78-11.71,6.04-15.83c8.6-8.3,19.9-12.88,31.82-12.88c3.49,0,6.99,0.4,10.4,1.2c24.6,5.72,39.96,30.4,34.24,55
			c-0.53,2.29-1.32,4.51-2.28,6.62c9.44,12.83,13.06,29.36,9.33,45.42C148.79,305.51,126.6,323.14,100.69,323.14
			C100.69,323.14,100.69,323.14,100.69,323.14z"/>
		<path class="st0" d="M119.41,237.31c3.24-3.28,7.64-8.81,8.76-13.62c3.23-13.91-5.42-27.8-19.32-31.03
			c-8.87-2.06-17.74,0.71-23.83,6.6l0,0l7.61,103l0,0c19.09,4.44,38.16-7.43,42.6-26.52c3.31-14.25-2.46-28.49-13.55-36.64
			L119.41,237.31z"/>
	</g>
	<g>
		<g>
			<rect x="143.71" y="204.29" class="st1" width="256.41" height="103.73"/>
			<text transform="matrix(1 0 0 1 143.7086 306.7845)" class="st2 st3 st4">eela</text>
		</g>
		<path class="st5" d="M119.41,237.31c3.24-3.28,7.64-8.81,8.76-13.62c3.23-13.91-5.42-27.8-19.32-31.03
			c-8.87-2.06-17.74,0.71-23.83,6.6l0,0l7.61,103l0,0c19.09,4.44,38.16-7.43,42.6-26.52c3.31-14.25-2.46-28.49-13.55-36.64
			L119.41,237.31z"/>
	</g>
</g>
</svg>
