<svg width="21" height="25" viewBox="0 0 21 25" fill="none" xmlns="http://www.w3.org/2000/svg">
<path fill-rule="evenodd" clip-rule="evenodd" d="M1.28711 12.8261C1.28711 12.6272 1.35494 12.4364 1.47569 12.2958C1.59643 12.1551 1.7602 12.0761 1.93096 12.0761H17.1167L13.0644 7.35708C12.9435 7.21625 12.8756 7.02525 12.8756 6.82608C12.8756 6.62692 12.9435 6.43591 13.0644 6.29508C13.1853 6.15425 13.3492 6.07513 13.5202 6.07513C13.6912 6.07513 13.8552 6.15425 13.9761 6.29508L19.1268 12.2951C19.1868 12.3647 19.2344 12.4475 19.2668 12.5386C19.2993 12.6297 19.316 12.7274 19.316 12.8261C19.316 12.9247 19.2993 13.0224 19.2668 13.1135C19.2344 13.2046 19.1868 13.2874 19.1268 13.3571L13.9761 19.3571C13.8552 19.4979 13.6912 19.577 13.5202 19.577C13.3492 19.577 13.1853 19.4979 13.0644 19.3571C12.9435 19.2163 12.8756 19.0252 12.8756 18.8261C12.8756 18.6269 12.9435 18.4359 13.0644 18.2951L17.1167 13.5761H1.93096C1.7602 13.5761 1.59643 13.4971 1.47569 13.3564C1.35494 13.2158 1.28711 13.025 1.28711 12.8261Z" fill="black"/>
</svg>
