<svg width="41" height="41" viewBox="0 0 41 41" fill="none" xmlns="http://www.w3.org/2000/svg">
<path d="M3.05078 16.2458C2.38774 16.2458 1.75186 16.5092 1.28301 16.978C0.814173 17.4469 0.550781 18.0827 0.550781 18.7458L0.550781 21.4608C0.550781 24.7945 5.55078 24.7945 5.55078 21.4608V18.7458C5.55078 18.0827 5.28739 17.4469 4.81855 16.978C4.34971 16.5092 3.71382 16.2458 3.05078 16.2458ZM38.0508 16.2458C37.3877 16.2458 36.7519 16.5092 36.283 16.978C35.8142 17.4469 35.5508 18.0827 35.5508 18.7458V21.4608C35.5508 24.7945 40.5508 24.7945 40.5508 21.4608V18.7458C40.5508 18.0827 40.2874 17.4469 39.8185 16.978C39.3497 16.5092 38.7138 16.2458 38.0508 16.2458ZM11.6833 24.4295C11.0202 24.4295 10.3844 24.6929 9.91551 25.1618C9.44667 25.6306 9.18328 26.2665 9.18328 26.9295V29.6445C9.18328 32.9783 14.1833 32.9783 14.1833 29.6445V26.9495C14.1833 25.5633 13.0695 24.4495 11.6833 24.4495V24.4295ZM11.6833 8.06203C11.0202 8.06203 10.3844 8.32542 9.91551 8.79426C9.44667 9.2631 9.18328 9.89899 9.18328 10.562V19.4945C9.18328 22.8283 14.1833 22.8283 14.1833 19.4945V10.5495C14.1833 9.16328 13.0695 8.04953 11.6833 8.04953V8.06203ZM29.4183 8.06203C28.032 8.06203 26.9183 9.18203 26.9183 10.562V13.297C26.9183 16.6308 31.9183 16.6308 31.9183 13.297V10.562C31.9183 9.89899 31.6549 9.2631 31.186 8.79426C30.7172 8.32542 30.0813 8.06203 29.4183 8.06203ZM20.5508 0.113281C19.8877 0.113281 19.2519 0.376673 18.783 0.845514C18.3142 1.31436 18.0508 1.95024 18.0508 2.61328V5.32828C18.0508 8.66203 23.0508 8.66203 23.0508 5.32828V2.61328C23.0508 1.95024 22.7874 1.31436 22.3185 0.845514C21.8497 0.376673 21.2138 0.113281 20.5508 0.113281V0.113281ZM20.5508 32.3795C19.8877 32.3795 19.2519 32.6429 18.783 33.1118C18.3142 33.5806 18.0508 34.2165 18.0508 34.8795V37.6145C18.0383 40.9483 23.0383 40.967 23.0508 37.6345V34.8995C23.0508 33.532 21.9308 32.3995 20.5508 32.3995V32.3795ZM29.4183 18.277C28.032 18.277 26.9183 19.4095 26.9183 20.777V29.6633C26.9183 32.997 31.9183 32.997 31.9183 29.6633V20.777C31.9183 20.114 31.6549 19.4781 31.186 19.0093C30.7172 18.5404 30.0813 18.277 29.4183 18.277ZM20.5508 10.3283C19.1708 10.3283 18.0508 11.4608 18.0508 12.8283V27.3795C18.0508 30.7133 23.0508 30.7133 23.0508 27.3795V12.8483C23.0508 11.462 21.9308 10.3483 20.5508 10.3483V10.3283Z" fill="#1C1C19"/>
</svg>
