<svg width="33" height="33" viewBox="0 0 33 33" fill="none" xmlns="http://www.w3.org/2000/svg">
<g clip-path="url(#clip0_5417_8057)">
<path d="M0.757812 2.5127C0.757812 1.2467 1.80981 0.220703 3.10781 0.220703H30.4078C31.7058 0.220703 32.7578 1.2467 32.7578 2.5127V29.9287C32.7578 31.1947 31.7058 32.2207 30.4078 32.2207H3.10781C1.80981 32.2207 0.757812 31.1947 0.757812 29.9287V2.5127ZM10.6438 27.0087V12.5587H5.84181V27.0087H10.6438ZM8.24381 10.5847C9.91781 10.5847 10.9598 9.4767 10.9598 8.0887C10.9298 6.6707 9.91981 5.5927 8.27581 5.5927C6.63181 5.5927 5.55781 6.6727 5.55781 8.0887C5.55781 9.4767 6.59981 10.5847 8.21181 10.5847H8.24381ZM18.0598 27.0087V18.9387C18.0598 18.5067 18.0918 18.0747 18.2198 17.7667C18.5658 16.9047 19.3558 16.0107 20.6838 16.0107C22.4218 16.0107 23.1158 17.3347 23.1158 19.2787V27.0087H27.9178V18.7207C27.9178 14.2807 25.5498 12.2167 22.3898 12.2167C19.8418 12.2167 18.6998 13.6167 18.0598 14.6027V14.6527H18.0278C18.0384 14.636 18.0491 14.6193 18.0598 14.6027V12.5587H13.2598C13.3198 13.9147 13.2598 27.0087 13.2598 27.0087H18.0598Z" fill="black"/>
</g>
<defs>
<clipPath id="clip0_5417_8057">
<rect width="32" height="32" fill="white" transform="translate(0.757812 0.220703)"/>
</clipPath>
</defs>
</svg>
