<svg width="200" height="200" viewBox="0 0 200 200" fill="none" xmlns="http://www.w3.org/2000/svg">
<path d="M27.932 86.1797L32.648 86.9157C33.604 87.0637 34.28 87.4357 34.676 88.0277C35.072 88.6197 35.208 89.3237 35.08 90.1357C34.952 90.9477 34.584 91.6437 33.972 92.2237L33.192 91.5517C33.676 91.0837 33.956 90.5837 34.04 90.0437C34.124 89.5037 34.052 89.0557 33.824 88.6957C33.596 88.3357 33.176 88.1117 32.564 88.0157L31.872 87.9077C32.164 88.1277 32.38 88.4077 32.52 88.7517C32.66 89.0957 32.7 89.4637 32.64 89.8597C32.528 90.5797 32.184 91.1277 31.612 91.5117C31.04 91.8957 30.38 92.0277 29.632 91.9117C28.888 91.7957 28.3 91.4677 27.868 90.9277C27.44 90.3877 27.28 89.7637 27.392 89.0477C27.504 88.3317 27.888 87.7997 28.548 87.4437L27.744 87.3197L27.932 86.1797ZM29.768 90.7877C30.212 90.8557 30.616 90.7797 30.98 90.5557C31.344 90.3317 31.564 89.9877 31.636 89.5237C31.708 89.0597 31.612 88.6597 31.344 88.3237C31.076 87.9877 30.712 87.7837 30.248 87.7117C29.784 87.6397 29.368 87.7237 29 87.9637C28.632 88.2037 28.412 88.5557 28.34 89.0157C28.268 89.4757 28.376 89.8717 28.668 90.1957C28.96 90.5197 29.324 90.7197 29.768 90.7877Z" fill="#37468A"/>
<path d="M32.1642 81.2202L29.2922 80.4842L29.5802 79.3682L34.8802 80.7282L34.5922 81.8442L33.6242 81.5962C33.9042 81.8602 34.0962 82.1722 34.2002 82.5362C34.3042 82.9002 34.3122 83.2642 34.2162 83.6282C34.0642 84.2282 33.7562 84.6642 33.2962 84.9362C32.8362 85.2122 32.2602 85.2602 31.5722 85.0842L28.3242 84.2522L28.6122 83.1362L31.5202 83.8842C32.4962 84.1362 33.0882 83.8562 33.2962 83.0442C33.3962 82.6602 33.3522 82.2922 33.1722 81.9402C32.9922 81.5882 32.6522 81.3482 32.1642 81.2202Z" fill="#37468A"/>
<path d="M29.1722 77.1278C28.9882 77.2198 28.8042 77.2358 28.6162 77.1718C28.4282 77.1078 28.2882 76.9878 28.1962 76.8038C28.1042 76.6238 28.0922 76.4358 28.1522 76.2478C28.2162 76.0598 28.3362 75.9198 28.5202 75.8278C28.7042 75.7358 28.8882 75.7198 29.0762 75.7838C29.2642 75.8478 29.4042 75.9678 29.4962 76.1518C29.5882 76.3318 29.6002 76.5198 29.5402 76.7078C29.4762 76.8958 29.3522 77.0358 29.1722 77.1278ZM35.7402 78.1638L35.3802 79.2558L30.1842 77.5358L30.5482 76.4438L35.7402 78.1638Z" fill="#37468A"/>
<path d="M35.7241 76.0395C35.0481 76.3155 34.3161 76.2954 33.5281 75.9714C32.7401 75.6474 32.2121 75.1475 31.9441 74.4635C31.6761 73.7835 31.6801 73.1035 31.9561 72.4275C32.2321 71.7515 32.7441 71.3234 33.4841 71.1474L30.7041 70.0034L31.1441 68.9395L38.2041 71.8435L37.7641 72.9115L37.0041 72.5995C37.4001 73.2235 37.4441 73.9114 37.1321 74.6674C36.8721 75.3035 36.4001 75.7635 35.7241 76.0395ZM34.0081 74.9234C34.4921 75.1234 34.9521 75.1315 35.3841 74.9435C35.8161 74.7595 36.1201 74.4554 36.2921 74.0354C36.4641 73.6154 36.4561 73.1994 36.2681 72.7794C36.0801 72.3594 35.7441 72.0515 35.2641 71.8555C34.7841 71.6555 34.3201 71.6395 33.8761 71.7955C33.4321 71.9555 33.1241 72.2474 32.9481 72.6714C32.7721 73.0954 32.7841 73.5275 32.9841 73.9635C33.1801 74.4035 33.5241 74.7234 34.0081 74.9234Z" fill="#37468A"/>
<path d="M33.0561 67.4917C32.8641 67.5557 32.6761 67.5437 32.5001 67.4557C32.3241 67.3677 32.2001 67.2277 32.1361 67.0317C32.0721 66.8397 32.0841 66.6517 32.1721 66.4757C32.2601 66.2957 32.4001 66.1757 32.5921 66.1117C32.7841 66.0477 32.9721 66.0597 33.1481 66.1477C33.3281 66.2357 33.4481 66.3757 33.5121 66.5717C33.5761 66.7637 33.5641 66.9517 33.4761 67.1277C33.3881 67.3077 33.2481 67.4277 33.0561 67.4917ZM39.4161 69.4397L38.9041 70.4717L34.0001 68.0397L34.5121 67.0077L39.4161 69.4397Z" fill="#37468A"/>
<path d="M38.1201 65.5479L40.6801 67.0399L40.1001 68.0359L35.3721 65.2799L35.9521 64.2839L36.8161 64.7879C36.6201 64.4599 36.5201 64.1039 36.5161 63.7279C36.5161 63.3519 36.6081 62.9959 36.8001 62.6719C37.1121 62.1399 37.5241 61.8039 38.0441 61.6639C38.5601 61.5239 39.1281 61.6359 39.7441 61.9959L42.6401 63.6839L42.0601 64.6799L39.4641 63.1679C38.5921 62.6599 37.9481 62.7679 37.5241 63.4919C37.3241 63.8359 37.2641 64.1999 37.3441 64.5879C37.4201 64.9719 37.6801 65.2919 38.1201 65.5479Z" fill="#37468A"/>
<path d="M41.9162 55.1758L45.7962 57.9558C46.5802 58.5198 47.0202 59.1558 47.1082 59.8638C47.1962 60.5718 47.0002 61.2598 46.5202 61.9278C46.0402 62.5958 45.3962 63.0518 44.5922 63.2918L44.2002 62.3398C44.8402 62.1398 45.3202 61.8198 45.6362 61.3758C45.9522 60.9318 46.0922 60.4998 46.0482 60.0758C46.0042 59.6518 45.7322 59.2598 45.2322 58.8998L44.6642 58.4918C44.8282 58.8198 44.8922 59.1678 44.8642 59.5398C44.8362 59.9118 44.7042 60.2598 44.4722 60.5798C44.0482 61.1718 43.4962 61.5078 42.8122 61.5918C42.1282 61.6758 41.4802 61.4958 40.8642 61.0598C40.2522 60.6198 39.8722 60.0638 39.7322 59.3878C39.5922 58.7118 39.7322 58.0798 40.1522 57.4918C40.5722 56.9038 41.1602 56.5998 41.9082 56.5798L41.2482 56.1078L41.9162 55.1758ZM41.4802 60.1198C41.8442 60.3798 42.2402 60.4958 42.6682 60.4598C43.0962 60.4238 43.4442 60.2158 43.7202 59.8318C43.9922 59.4518 44.0882 59.0478 44.0002 58.6278C43.9122 58.2078 43.6802 57.8598 43.2962 57.5878C42.9122 57.3158 42.5042 57.2038 42.0682 57.2518C41.6322 57.3038 41.2762 57.5158 41.0042 57.8958C40.7322 58.2758 40.6522 58.6758 40.7642 59.0958C40.8762 59.5158 41.1162 59.8558 41.4802 60.1198Z" fill="#37468A"/>
<path d="M44.2998 50.6401C44.0958 50.6521 43.9198 50.5921 43.7718 50.4561C43.6238 50.3241 43.5438 50.1561 43.5318 49.9521C43.5198 49.7481 43.5798 49.5721 43.7158 49.4241C43.8478 49.2761 44.0158 49.1961 44.2198 49.1841C44.4238 49.1721 44.5998 49.2321 44.7478 49.3681C44.8958 49.5001 44.9758 49.6681 44.9878 49.8721C44.9998 50.0761 44.9398 50.2521 44.8038 50.4001C44.6718 50.5481 44.5038 50.6281 44.2998 50.6401ZM49.9078 54.2161L49.1398 55.0761L45.0638 51.4241L45.8318 50.5641L49.9078 54.2161Z" fill="#37468A"/>
<path d="M49.6681 50.068L51.6761 52.248L50.8281 53.028L47.1201 49.004L47.9681 48.224L48.6441 48.956C48.5361 48.596 48.5401 48.236 48.6561 47.868C48.7721 47.5 48.9681 47.188 49.2521 46.928C49.8881 46.344 50.5601 46.208 51.2721 46.524C51.1881 45.632 51.4441 44.912 52.0361 44.364C52.4921 43.948 52.9841 43.748 53.5201 43.768C54.0561 43.788 54.5641 44.06 55.0481 44.584L57.3201 47.052L56.4721 47.832L54.4361 45.624C53.7521 44.884 53.1041 44.796 52.4881 45.364C52.2001 45.628 52.0361 45.952 51.9881 46.332C51.9401 46.712 52.0801 47.084 52.3921 47.448L54.4561 49.688L53.6081 50.468L51.5721 48.26C51.2201 47.876 50.8921 47.66 50.5921 47.604C50.2921 47.552 49.9961 47.66 49.7001 47.928C49.4081 48.196 49.2401 48.528 49.2041 48.924C49.1681 49.312 49.3241 49.696 49.6681 50.068Z" fill="#37468A"/>
<path d="M57.6842 43.1083L59.3402 45.5643L58.3842 46.2083L55.3242 41.6723L56.2802 41.0283L56.8402 41.8563C56.7882 41.4843 56.8482 41.1283 57.0162 40.7843C57.1842 40.4403 57.4282 40.1603 57.7482 39.9443C58.4642 39.4603 59.1482 39.4283 59.8042 39.8483C59.8522 38.9523 60.2162 38.2803 60.8842 37.8283C61.3962 37.4843 61.9162 37.3603 62.4402 37.4603C62.9682 37.5603 63.4282 37.9043 63.8282 38.4963L65.7042 41.2763L64.7482 41.9203L63.0682 39.4283C62.5042 38.5923 61.8762 38.4083 61.1842 38.8763C60.8602 39.0963 60.6482 39.3883 60.5442 39.7603C60.4442 40.1323 60.5202 40.5203 60.7762 40.9243L62.4802 43.4483L61.5242 44.0923L59.8442 41.6003C59.5522 41.1683 59.2602 40.9043 58.9722 40.8043C58.6842 40.7043 58.3722 40.7683 58.0442 40.9923C57.7162 41.2163 57.5002 41.5163 57.4042 41.9003C57.3082 42.2843 57.4002 42.6883 57.6842 43.1083Z" fill="#37468A"/>
<path d="M63.9637 34.8804C63.7677 34.8244 63.6237 34.7084 63.5277 34.5324C63.4317 34.3564 63.4157 34.1724 63.4717 33.9764C63.5277 33.7804 63.6477 33.6364 63.8197 33.5404C63.9957 33.4444 64.1797 33.4284 64.3757 33.4844C64.5717 33.5404 64.7157 33.6564 64.8117 33.8324C64.9077 34.0084 64.9237 34.1924 64.8677 34.3884C64.8117 34.5844 64.6917 34.7284 64.5197 34.8244C64.3437 34.9204 64.1597 34.9364 63.9637 34.8804ZM68.0477 40.1324L67.0357 40.6844L64.4237 35.8764L65.4357 35.3244L68.0477 40.1324Z" fill="#37468A"/>
<path d="M71.7158 32.2998L73.7038 36.6398C74.1078 37.5198 74.1718 38.2878 73.8958 38.9438C73.6198 39.6038 73.1078 40.1038 72.3598 40.4438C71.6118 40.7878 70.8278 40.8638 70.0078 40.6718L70.1398 39.6478C70.7958 39.7918 71.3718 39.7518 71.8638 39.5238C72.3598 39.2958 72.6918 38.9878 72.8678 38.5998C73.0398 38.2118 72.9998 37.7358 72.7398 37.1758L72.4478 36.5398C72.4238 36.9038 72.3118 37.2398 72.0998 37.5478C71.8878 37.8558 71.6038 38.0918 71.2438 38.2558C70.5838 38.5598 69.9358 38.5758 69.2998 38.3078C68.6638 38.0398 68.1918 37.5638 67.8758 36.8798C67.5598 36.1958 67.5118 35.5238 67.7238 34.8678C67.9358 34.2118 68.3718 33.7358 69.0318 33.4318C69.6878 33.1318 70.3478 33.1558 71.0078 33.5118L70.6678 32.7718L71.7158 32.2998ZM68.8838 36.3758C69.0718 36.7838 69.3598 37.0798 69.7478 37.2598C70.1358 37.4398 70.5438 37.4318 70.9718 37.2358C71.3998 37.0398 71.6798 36.7398 71.8118 36.3318C71.9438 35.9238 71.9158 35.5078 71.7198 35.0798C71.5238 34.6518 71.2238 34.3518 70.8198 34.1798C70.4158 34.0078 70.0038 34.0158 69.5798 34.2118C69.1558 34.4078 68.8878 34.7118 68.7758 35.1358C68.6598 35.5518 68.6998 35.9638 68.8838 36.3758Z" fill="#37468A"/>
<path d="M76.6198 31.6236C76.0838 31.8196 75.7478 32.1396 75.6038 32.5876C75.4598 33.0356 75.4958 33.5516 75.7118 34.1356L76.5198 36.3396L75.4398 36.7356L73.5518 31.5996L74.6318 31.2036L75.0118 32.2356C75.0678 31.8516 75.2078 31.4996 75.4318 31.1836C75.6558 30.8676 75.9318 30.6436 76.2638 30.5156L76.6758 31.6036C76.6598 31.6116 76.6398 31.6156 76.6198 31.6236Z" fill="#37468A"/>
<path d="M83.3801 34.1804L82.3721 34.4724L82.1721 33.7684C81.8881 34.4124 81.3801 34.8444 80.6481 35.0524C80.1001 35.2084 79.6041 35.1844 79.1561 34.9804C78.7081 34.7724 78.4081 34.4124 78.2601 33.8964C78.1121 33.3804 78.1921 32.9364 78.5001 32.5684C78.8081 32.2004 79.2881 31.9244 79.9401 31.7364L81.3721 31.3244L81.3161 31.1244C81.1161 30.4244 80.6241 30.1884 79.8481 30.4124C79.3601 30.5524 78.9041 30.8764 78.4801 31.3844L77.7881 30.8324C78.2801 30.1404 78.9321 29.6804 79.7441 29.4444C80.3641 29.2644 80.9161 29.2764 81.3961 29.4764C81.8801 29.6764 82.2161 30.1124 82.4081 30.7844L83.3801 34.1804ZM81.7081 32.5404L81.5801 32.0964L80.3361 32.4564C79.5401 32.6844 79.2121 33.0524 79.3561 33.5524C79.4281 33.8084 79.5841 33.9764 79.8241 34.0564C80.0601 34.1364 80.3561 34.1244 80.7081 34.0204C81.0601 33.9204 81.3401 33.7324 81.5481 33.4564C81.7521 33.1844 81.8041 32.8764 81.7081 32.5404Z" fill="#37468A"/>
<path d="M85.356 30.7082L85.9159 33.6162L84.784 33.8322L83.752 28.4562L84.884 28.2402L85.0719 29.2202C85.1919 28.8562 85.392 28.5482 85.676 28.2962C85.96 28.0482 86.288 27.8842 86.656 27.8162C87.26 27.7002 87.788 27.7922 88.232 28.0882C88.676 28.3882 88.968 28.8882 89.1 29.5882L89.732 32.8802L88.6 33.0962L88.032 30.1442C87.84 29.1522 87.3359 28.7362 86.5159 28.8962C86.1239 28.9722 85.8079 29.1642 85.5719 29.4802C85.3319 29.8002 85.26 30.2082 85.356 30.7082Z" fill="#37468A"/>
<path d="M92.0121 28.0439L92.3241 30.8039C92.3521 31.0639 92.4441 31.2599 92.6001 31.3999C92.7561 31.5399 92.9521 31.5919 93.2001 31.5639C93.4441 31.5359 93.6681 31.3919 93.8641 31.1279L94.4241 31.8839C94.0641 32.2919 93.6401 32.5199 93.1521 32.5759C92.6641 32.6319 92.2281 32.5079 91.8481 32.2119C91.4641 31.9119 91.2441 31.4799 91.1761 30.9039L90.8681 28.1759L90.1841 28.2519L90.0801 27.3319L90.7641 27.2559L90.5721 25.5479L91.7161 25.4199L91.9081 27.1279L93.3401 26.9679L93.4441 27.8879L92.0121 28.0439Z" fill="#37468A"/>
<path d="M100.528 32.1322L99.212 32.0962L97.46 26.5762L98.652 26.6082L99.9 30.7762L101.364 26.6762L102.556 26.7082L103.808 30.8762L105.272 26.7762L106.464 26.8082L104.432 32.2282L103.116 32.1962L101.916 28.4202L100.528 32.1322Z" fill="#37468A"/>
<path d="M111.712 32.3763C111.092 32.8403 110.376 33.0123 109.56 32.8963C108.744 32.7803 108.104 32.4163 107.636 31.7963C107.168 31.1803 106.992 30.4803 107.104 29.7003C107.216 28.9203 107.58 28.2963 108.2 27.8363C108.82 27.3723 109.536 27.2003 110.352 27.3163C111.168 27.4323 111.808 27.7963 112.276 28.4163C112.744 29.0323 112.92 29.7323 112.808 30.5123C112.696 31.2883 112.332 31.9123 111.712 32.3763ZM108.544 31.2083C108.82 31.5843 109.204 31.8043 109.7 31.8763C110.196 31.9483 110.628 31.8403 110.996 31.5563C111.364 31.2723 111.588 30.8683 111.66 30.3483C111.732 29.8243 111.632 29.3763 111.356 29.0003C111.08 28.6243 110.696 28.4003 110.2 28.3323C109.704 28.2643 109.272 28.3683 108.904 28.6523C108.536 28.9363 108.312 29.3403 108.24 29.8603C108.168 30.3843 108.268 30.8323 108.544 31.2083Z" fill="#37468A"/>
<path d="M115.4 30.7875L114.624 33.6475L113.512 33.3475L114.944 28.0635L116.056 28.3635L115.796 29.3275C116.044 29.0475 116.352 28.8555 116.724 28.7595C117.096 28.6595 117.468 28.6635 117.836 28.7635C118.668 28.9915 119.144 29.4875 119.252 30.2555C119.964 29.7075 120.708 29.5395 121.488 29.7515C122.084 29.9115 122.516 30.2275 122.784 30.6915C123.052 31.1555 123.092 31.7315 122.908 32.4195L122.028 35.6555L120.916 35.3555L121.704 32.4555C121.968 31.4835 121.696 30.8875 120.888 30.6675C120.512 30.5635 120.148 30.5955 119.804 30.7635C119.456 30.9275 119.212 31.2395 119.076 31.6995L118.28 34.6395L117.168 34.3395L117.956 31.4395C118.092 30.9355 118.104 30.5435 117.988 30.2595C117.872 29.9755 117.624 29.7835 117.24 29.6795C116.856 29.5755 116.488 29.6115 116.132 29.7915C115.776 29.9635 115.532 30.2995 115.4 30.7875Z" fill="#37468A"/>
<path d="M128.868 36.0718L124.896 34.4558C124.772 34.8358 124.82 35.1998 125.04 35.5518C125.26 35.9038 125.568 36.1598 125.968 36.3238C126.604 36.5838 127.168 36.5798 127.66 36.3118L128 37.2278C127.224 37.5718 126.396 37.5638 125.52 37.2078C124.808 36.9198 124.3 36.4358 123.992 35.7598C123.684 35.0838 123.696 34.3479 124.02 33.5479C124.344 32.7519 124.856 32.2198 125.556 31.9558C126.256 31.6918 126.948 31.6998 127.64 31.9798C128.328 32.2598 128.832 32.7079 129.144 33.3199C129.456 33.9319 129.468 34.6038 129.168 35.3358L128.868 36.0718ZM125.236 33.6199L128.144 34.7998C128.316 34.3758 128.316 33.9918 128.144 33.6558C127.972 33.3198 127.688 33.0718 127.296 32.9118C126.904 32.7518 126.504 32.7278 126.096 32.8398C125.688 32.9518 125.4 33.2119 125.236 33.6199Z" fill="#37468A"/>
<path d="M131.424 36.5237L130.056 39.1517L129.032 38.6197L131.556 33.7637L132.576 34.2957L132.116 35.1797C132.436 34.9677 132.784 34.8517 133.16 34.8317C133.54 34.8117 133.892 34.8877 134.228 35.0637C134.776 35.3477 135.132 35.7477 135.296 36.2557C135.46 36.7677 135.376 37.3397 135.048 37.9717L133.5 40.9477L132.476 40.4157L133.864 37.7517C134.328 36.8557 134.192 36.2157 133.448 35.8317C133.096 35.6477 132.728 35.6037 132.344 35.7037C131.968 35.7997 131.66 36.0757 131.424 36.5237Z" fill="#37468A"/>
<path d="M140.712 45.6715L139.852 45.0715L140.268 44.4715C139.588 44.6555 138.936 44.5315 138.308 44.0955C137.84 43.7715 137.548 43.3675 137.424 42.8915C137.3 42.4115 137.396 41.9515 137.704 41.5115C138.012 41.0715 138.404 40.8515 138.884 40.8635C139.364 40.8715 139.88 41.0715 140.44 41.4595L141.664 42.3115L141.78 42.1435C142.196 41.5475 142.072 41.0195 141.408 40.5555C140.992 40.2635 140.452 40.1155 139.792 40.1035L139.784 39.2195C140.632 39.1675 141.4 39.3835 142.092 39.8635C142.62 40.2315 142.96 40.6675 143.108 41.1675C143.256 41.6675 143.132 42.2035 142.728 42.7795L140.712 45.6715ZM140.932 43.3435L141.196 42.9635L140.132 42.2235C139.452 41.7475 138.96 41.7235 138.664 42.1515C138.512 42.3715 138.48 42.5955 138.568 42.8315C138.656 43.0635 138.852 43.2875 139.152 43.4955C139.452 43.7035 139.776 43.8035 140.116 43.7915C140.46 43.7795 140.732 43.6315 140.932 43.3435Z" fill="#37468A"/>
<path d="M144.664 45.0282L142.756 47.2962L141.876 46.5522L145.4 42.3682L146.28 43.1122L145.636 43.8762C145.992 43.7402 146.36 43.7002 146.732 43.7642C147.104 43.8282 147.436 43.9802 147.724 44.2242C148.196 44.6202 148.456 45.0882 148.504 45.6202C148.552 46.1522 148.348 46.6922 147.888 47.2402L145.728 49.8042L144.848 49.0602L146.784 46.7642C147.432 45.9922 147.44 45.3362 146.8 44.8002C146.496 44.5442 146.144 44.4202 145.752 44.4322C145.352 44.4402 144.992 44.6402 144.664 45.0282Z" fill="#37468A"/>
<path d="M147.58 50.5837C147.592 49.8517 147.904 49.1877 148.512 48.5957C149.12 48.0037 149.792 47.7157 150.524 47.7397C151.256 47.7637 151.876 48.0357 152.388 48.5597C152.9 49.0837 153.088 49.7197 152.956 50.4677L155.108 48.3717L155.912 49.1957L150.448 54.5277L149.644 53.7037L150.232 53.1277C149.504 53.2437 148.852 53.0117 148.284 52.4277C147.8 51.9317 147.564 51.3197 147.58 50.5837ZM149.284 49.4517C148.908 49.8197 148.72 50.2357 148.72 50.7077C148.72 51.1797 148.876 51.5757 149.192 51.8997C149.508 52.2237 149.896 52.3837 150.352 52.3757C150.812 52.3677 151.228 52.1837 151.6 51.8197C151.972 51.4557 152.176 51.0397 152.204 50.5677C152.236 50.0957 152.088 49.6997 151.768 49.3677C151.448 49.0397 151.048 48.8797 150.568 48.8877C150.088 48.8997 149.66 49.0877 149.284 49.4517Z" fill="#37468A"/>
<path d="M64.1358 155.2L62.5718 157.716L61.5918 157.108L64.4798 152.46L65.4598 153.068L64.9318 153.916C65.2678 153.728 65.6238 153.64 65.9998 153.648C66.3758 153.656 66.7278 153.76 67.0478 153.96C67.5718 154.284 67.8958 154.708 68.0198 155.232C68.1438 155.752 68.0198 156.316 67.6398 156.924L65.8678 159.772L64.8878 159.164L66.4718 156.612C67.0038 155.756 66.9158 155.108 66.2038 154.664C65.8638 154.452 65.4998 154.384 65.1118 154.452C64.7318 154.52 64.4038 154.772 64.1358 155.2Z" fill="#37468A"/>
<path d="M72.1393 162.108C71.4073 162.36 70.6713 162.304 69.9313 161.948C69.1913 161.588 68.6913 161.044 68.4353 160.316C68.1793 159.588 68.2233 158.868 68.5673 158.156C68.9113 157.448 69.4473 156.964 70.1793 156.716C70.9113 156.464 71.6473 156.516 72.3873 156.876C73.1273 157.236 73.6273 157.78 73.8833 158.508C74.1393 159.24 74.0953 159.956 73.7513 160.668C73.4073 161.38 72.8713 161.856 72.1393 162.108ZM69.4833 160.032C69.6313 160.472 69.9313 160.804 70.3833 161.02C70.8353 161.24 71.2793 161.268 71.7153 161.112C72.1553 160.956 72.4873 160.64 72.7193 160.164C72.9513 159.688 72.9913 159.232 72.8433 158.788C72.6953 158.344 72.3953 158.016 71.9433 157.8C71.4913 157.58 71.0473 157.552 70.6113 157.708C70.1713 157.864 69.8393 158.18 69.6073 158.656C69.3753 159.132 69.3353 159.592 69.4833 160.032Z" fill="#37468A"/>
<path d="M76.2922 161.403L75.2842 164.191L74.2002 163.799L76.0602 158.651L77.1442 159.043L76.8042 159.983C77.0922 159.731 77.4242 159.567 77.7922 159.499C78.1642 159.431 78.5282 159.459 78.8802 159.587C79.4602 159.795 79.8642 160.143 80.0962 160.627C80.3242 161.111 80.3202 161.687 80.0762 162.359L78.9362 165.511L77.8522 165.119L78.8722 162.295C79.2162 161.347 78.9922 160.731 78.2042 160.447C77.8282 160.311 77.4602 160.319 77.0922 160.467C76.7362 160.611 76.4642 160.927 76.2922 161.403Z" fill="#37468A"/>
<path d="M81.4199 163.596L81.6959 162.552L84.9999 163.42L84.7239 164.464L81.4199 163.596Z" fill="#37468A"/>
<path d="M89.7916 162.376C90.5156 162.5 91.0916 162.852 91.5196 163.44C91.9476 164.028 92.0916 164.736 91.9516 165.568C91.8116 166.4 91.4396 167.032 90.8436 167.468C90.2436 167.9 89.6076 168.06 88.9276 167.948C88.2476 167.832 87.6876 167.432 87.2476 166.744L87.1116 167.556L85.9756 167.364L87.2516 159.836L88.3876 160.028L87.8676 163.1C88.4236 162.496 89.0676 162.252 89.7916 162.376ZM87.5436 164.864C87.4556 165.376 87.5396 165.824 87.7956 166.204C88.0516 166.584 88.4036 166.812 88.8476 166.888C89.2956 166.964 89.7116 166.868 90.0956 166.6C90.4796 166.332 90.7196 165.94 90.8076 165.42C90.8956 164.904 90.8036 164.444 90.5396 164.048C90.2716 163.652 89.9116 163.416 89.4596 163.336C89.0076 163.26 88.5956 163.364 88.2276 163.656C87.8596 163.952 87.6276 164.352 87.5436 164.864Z" fill="#37468A"/>
<path d="M94.2876 168.532L93.1396 168.424L93.6476 162.976L94.7956 163.084L94.2876 168.532ZM93.8196 161.896C93.6876 161.74 93.6316 161.564 93.6516 161.364C93.6716 161.168 93.7556 161 93.9156 160.872C94.0716 160.74 94.2476 160.688 94.4476 160.704C94.6436 160.724 94.8116 160.808 94.9396 160.968C95.0716 161.124 95.1236 161.3 95.1076 161.5C95.0876 161.7 94.9996 161.864 94.8436 161.992C94.6876 162.12 94.5076 162.176 94.3116 162.16C94.1116 162.14 93.9476 162.052 93.8196 161.896Z" fill="#37468A"/>
<path d="M97.4834 165.771L97.4274 168.735L96.2754 168.715L96.3794 163.243L97.5314 163.263L97.5114 164.259C97.7034 163.927 97.9634 163.667 98.2914 163.483C98.6194 163.295 98.9754 163.207 99.3514 163.215C99.9674 163.227 100.463 163.427 100.835 163.811C101.207 164.195 101.387 164.743 101.375 165.459L101.311 168.811L100.159 168.791L100.215 165.787C100.235 164.779 99.8274 164.267 98.9874 164.251C98.5874 164.243 98.2394 164.367 97.9394 164.627C97.6394 164.887 97.4954 165.267 97.4834 165.771Z" fill="#37468A"/>
<path d="M107.788 168.372L106.744 168.456L106.684 167.728C106.276 168.304 105.692 168.624 104.936 168.684C104.368 168.732 103.888 168.608 103.488 168.316C103.088 168.024 102.868 167.612 102.824 167.076C102.78 166.54 102.948 166.12 103.324 165.824C103.7 165.524 104.224 165.348 104.9 165.296L106.388 165.176L106.372 164.972C106.312 164.248 105.88 163.916 105.076 163.984C104.568 164.024 104.06 164.252 103.54 164.664L102.968 163.988C103.588 163.408 104.32 163.084 105.16 163.016C105.804 162.964 106.34 163.084 106.772 163.376C107.204 163.668 107.448 164.164 107.504 164.86L107.788 168.372ZM106.476 166.436L106.44 165.976L105.148 166.08C104.32 166.148 103.928 166.44 103.968 166.96C103.988 167.228 104.108 167.42 104.324 167.544C104.54 167.668 104.832 167.716 105.196 167.684C105.56 167.656 105.872 167.528 106.128 167.3C106.384 167.072 106.504 166.784 106.476 166.436Z" fill="#37468A"/>
<path d="M111.863 163.303C111.303 163.395 110.907 163.643 110.683 164.055C110.459 164.467 110.395 164.979 110.495 165.595L110.867 167.911L109.731 168.095L108.859 162.691L109.995 162.507L110.171 163.595C110.299 163.227 110.503 162.911 110.783 162.643C111.063 162.375 111.379 162.211 111.731 162.147L111.927 163.295C111.903 163.295 111.883 163.299 111.863 163.303Z" fill="#37468A"/>
<path d="M115.28 169.307C114.792 169.423 114.312 169.355 113.832 169.099L114.12 168.067C114.408 168.231 114.676 168.283 114.924 168.223C115.172 168.163 115.356 168.023 115.468 167.807C115.58 167.591 115.612 167.375 115.56 167.159C115.536 167.067 114.38 165.415 112.084 162.211L113.284 161.919L115.824 165.451L116.464 161.147L117.664 160.855L116.616 167.799C116.548 168.183 116.392 168.511 116.156 168.779C115.916 169.047 115.624 169.223 115.28 169.307Z" fill="#37468A"/>
<path d="M123.764 158.576C124.444 158.304 125.12 158.304 125.796 158.58C126.468 158.856 126.964 159.388 127.276 160.172C127.592 160.956 127.604 161.688 127.32 162.372C127.036 163.056 126.576 163.524 125.936 163.78C125.296 164.036 124.608 163.988 123.876 163.632L124.924 166.248L123.856 166.676L121.076 159.744L122.144 159.316L122.5 160.204C122.66 159.392 123.08 158.848 123.764 158.576ZM123.144 161.872C123.34 162.356 123.644 162.692 124.06 162.884C124.476 163.076 124.896 163.088 125.316 162.92C125.736 162.752 126.04 162.452 126.232 162.02C126.42 161.588 126.416 161.132 126.224 160.644C126.028 160.156 125.716 159.812 125.28 159.616C124.848 159.416 124.416 159.404 123.988 159.576C123.56 159.748 123.268 160.052 123.104 160.492C122.936 160.928 122.952 161.388 123.144 161.872Z" fill="#37468A"/>
<path d="M133.368 157.62L129.572 159.616C129.78 159.956 130.092 160.156 130.504 160.212C130.916 160.272 131.312 160.2 131.692 160C132.3 159.68 132.66 159.248 132.776 158.7L133.692 159.032C133.456 159.848 132.916 160.476 132.08 160.916C131.4 161.272 130.704 161.352 129.988 161.148C129.272 160.948 128.716 160.464 128.316 159.704C127.916 158.944 127.84 158.208 128.088 157.504C128.336 156.8 128.792 156.272 129.448 155.928C130.108 155.58 130.772 155.488 131.44 155.64C132.112 155.796 132.628 156.22 132.996 156.92L133.368 157.62ZM129.152 158.816L131.928 157.356C131.712 156.948 131.424 156.704 131.052 156.62C130.684 156.536 130.312 156.592 129.936 156.788C129.564 156.984 129.288 157.276 129.108 157.66C128.932 158.04 128.948 158.428 129.152 158.816Z" fill="#37468A"/>
<path d="M139.296 155.564C139.14 156.32 138.719 156.928 138.031 157.384C137.347 157.84 136.624 157.992 135.864 157.84C135.104 157.688 134.508 157.284 134.072 156.628C133.636 155.972 133.496 155.264 133.652 154.504C133.808 153.748 134.228 153.14 134.916 152.684C135.6 152.228 136.324 152.076 137.084 152.228C137.844 152.38 138.44 152.784 138.876 153.44C139.312 154.1 139.452 154.808 139.296 155.564ZM136.156 156.796C136.612 156.892 137.048 156.804 137.464 156.528C137.88 156.252 138.132 155.884 138.22 155.428C138.307 154.972 138.208 154.524 137.916 154.08C137.624 153.636 137.252 153.372 136.796 153.272C136.34 153.176 135.904 153.264 135.488 153.54C135.072 153.816 134.819 154.184 134.731 154.64C134.643 155.096 134.748 155.544 135.04 155.988C135.328 156.428 135.7 156.696 136.156 156.796Z" fill="#37468A"/>
<path d="M140.527 148.508C141.091 148.04 141.739 147.836 142.463 147.896C143.187 147.956 143.819 148.312 144.355 148.96C144.891 149.608 145.131 150.304 145.067 151.04C145.003 151.776 144.707 152.364 144.175 152.804C143.643 153.244 142.975 153.404 142.167 153.288L143.963 155.46L143.075 156.192L138.319 150.432L139.207 149.7L139.815 150.436C139.723 149.62 139.959 148.972 140.527 148.508ZM140.939 151.832C141.271 152.232 141.663 152.464 142.119 152.516C142.575 152.572 142.975 152.456 143.327 152.168C143.679 151.88 143.875 151.5 143.923 151.032C143.971 150.564 143.831 150.128 143.495 149.724C143.163 149.32 142.759 149.088 142.283 149.032C141.807 148.976 141.395 149.092 141.039 149.384C140.683 149.676 140.495 150.056 140.475 150.524C140.451 150.996 140.607 151.432 140.939 151.832Z" fill="#37468A"/>
<path d="M148.128 149.124L147.296 149.924L142.004 144.424L142.836 143.624L148.128 149.124Z" fill="#37468A"/>
<path d="M151.304 142.464L148.432 145.652C148.744 145.9 149.104 145.976 149.512 145.892C149.92 145.804 150.264 145.6 150.556 145.28C151.016 144.772 151.204 144.24 151.12 143.684L152.096 143.676C152.156 144.524 151.868 145.296 151.232 146C150.716 146.572 150.092 146.884 149.352 146.944C148.612 147.004 147.924 146.744 147.284 146.168C146.644 145.592 146.32 144.928 146.312 144.184C146.304 143.44 146.548 142.788 147.044 142.232C147.54 141.676 148.132 141.36 148.816 141.272C149.5 141.184 150.132 141.408 150.72 141.936L151.304 142.464ZM147.76 145.044L149.86 142.712C149.52 142.404 149.16 142.276 148.784 142.324C148.408 142.372 148.08 142.552 147.796 142.868C147.512 143.18 147.356 143.548 147.32 143.972C147.288 144.392 147.432 144.748 147.76 145.044Z" fill="#37468A"/>
<path d="M150.439 136.423C150.239 136.455 150.055 136.415 149.895 136.303C149.735 136.187 149.635 136.031 149.599 135.827C149.567 135.627 149.607 135.443 149.723 135.283C149.839 135.119 149.995 135.023 150.195 134.987C150.395 134.955 150.579 134.995 150.739 135.107C150.903 135.223 150.999 135.379 151.035 135.583C151.071 135.787 151.027 135.967 150.911 136.127C150.795 136.287 150.639 136.391 150.439 136.423ZM156.415 139.347L155.747 140.287L151.287 137.115L151.955 136.175L156.415 139.347Z" fill="#37468A"/>
<path d="M155.628 135.196L158.164 136.728L157.568 137.712L152.884 134.88L153.48 133.892L154.332 134.408C154.14 134.076 154.048 133.72 154.052 133.344C154.056 132.964 154.156 132.616 154.352 132.292C154.672 131.764 155.092 131.436 155.612 131.304C156.132 131.172 156.696 131.292 157.308 131.66L160.176 133.396L159.58 134.384L157.008 132.828C156.144 132.308 155.496 132.404 155.064 133.12C154.86 133.46 154.792 133.824 154.864 134.216C154.94 134.608 155.196 134.936 155.628 135.196Z" fill="#37468A"/>
<path d="M157.604 128.416L160.096 129.648C160.328 129.764 160.544 129.792 160.744 129.74C160.944 129.684 161.096 129.548 161.208 129.324C161.316 129.104 161.316 128.836 161.2 128.528L162.136 128.464C162.284 128.988 162.248 129.468 162.028 129.908C161.812 130.348 161.472 130.648 161.016 130.808C160.56 130.968 160.072 130.92 159.556 130.664L157.092 129.448L156.788 130.064L155.96 129.652L156.264 129.036L154.724 128.276L155.236 127.244L156.776 128.004L157.416 126.712L158.248 127.124L157.604 128.416Z" fill="#37468A"/>
<path d="M164.06 122.995C164.368 123.703 164.372 124.443 164.072 125.211C163.772 125.979 163.268 126.515 162.56 126.827C161.852 127.139 161.132 127.151 160.396 126.863C159.664 126.575 159.14 126.075 158.836 125.367C158.528 124.659 158.524 123.919 158.824 123.151C159.124 122.383 159.628 121.847 160.336 121.535C161.044 121.223 161.764 121.211 162.5 121.499C163.236 121.787 163.756 122.283 164.06 122.995ZM162.196 125.807C162.624 125.627 162.928 125.303 163.112 124.835C163.296 124.371 163.292 123.923 163.1 123.499C162.908 123.075 162.568 122.767 162.076 122.571C161.584 122.379 161.124 122.371 160.696 122.555C160.268 122.739 159.96 123.063 159.78 123.527C159.596 123.995 159.6 124.439 159.792 124.863C159.984 125.287 160.324 125.595 160.816 125.791C161.308 125.983 161.768 125.987 162.196 125.807Z" fill="#37468A"/>
<path d="M166.612 115.168C166.952 115.712 166.932 116.196 166.848 116.52C166.628 117.392 165.952 117.8 165.104 117.584L162.004 116.796L161.824 117.5L161.02 117.296L161.2 116.592L159.972 116.28L160.196 115.404L161.424 115.716L161.76 114.396L162.564 114.6L162.228 115.92L165.324 116.708C165.788 116.824 165.976 116.584 166.044 116.316C166.108 116.068 166.068 115.8 165.9 115.544L166.612 115.168Z" fill="#37468A"/>
<path d="M166.732 110.335L167.452 109.879C167.868 110.531 167.94 111.239 167.792 112.063C167.516 113.575 166.184 114.359 164.664 114.083C163.092 113.799 162.036 112.671 162.324 111.075C162.496 110.127 163.272 109.119 164.488 109.339C165.224 109.471 165.536 110.003 165.328 111.163L164.956 113.219C165.876 113.347 166.796 112.899 166.984 111.867C167.072 111.343 167.008 110.783 166.732 110.335ZM164.2 113.079L164.56 111.103C164.684 110.431 164.492 110.239 164.32 110.207C163.78 110.107 163.26 110.483 163.12 111.259C162.996 111.927 163.356 112.667 164.2 113.079Z" fill="#37468A"/>
<path d="M168.076 104.064C168.472 104.548 168.676 105.22 168.6 106.008C168.444 107.64 167.104 108.472 165.584 108.328C164.064 108.18 162.92 107.072 163.068 105.512C163.136 104.788 163.4 104.276 163.82 103.888L164.42 104.524C164.124 104.772 163.948 105.084 163.9 105.588C163.8 106.644 164.664 107.316 165.672 107.412C166.688 107.508 167.672 107.048 167.776 105.92C167.828 105.384 167.676 104.912 167.396 104.608L168.076 104.064Z" fill="#37468A"/>
<path d="M165.596 98.4076L168.788 98.4396L168.78 99.3435L165.588 99.3115C164.668 99.3035 164.156 99.5435 164.148 100.372C164.14 101.16 164.544 101.592 164.932 101.796L168.756 101.832L168.748 102.736L160.836 102.66L160.844 101.756L163.82 101.784C163.552 101.484 163.304 100.984 163.312 100.308C163.328 98.9676 164.024 98.3916 165.596 98.4076Z" fill="#37468A"/>
<path d="M127.508 147.648H72.4925L44.9805 99.9996L72.4925 52.3516H127.508L155.02 99.9996L127.508 147.648Z" fill="#E7C924"/>
<path d="M92.9639 137.547C92.9639 138.703 92.3439 139.415 90.4119 139.415H88.0439V132.735H90.1919C91.8519 132.735 92.4519 133.447 92.4519 134.523C92.4519 135.075 92.2239 135.495 91.9159 135.767C92.5199 136.099 92.9639 136.723 92.9639 137.547ZM88.9799 135.475H90.2639C91.0879 135.475 91.4839 135.271 91.4839 134.523C91.4839 133.927 91.2159 133.595 90.2439 133.595H88.9799V135.475ZM91.9959 137.547C91.9959 136.667 91.5519 136.303 90.4679 136.303H88.9799V138.559H90.5199C91.4359 138.555 91.9959 138.371 91.9959 137.547Z" fill="#37468A"/>
<path d="M97.9597 138.195L98.5197 138.807C97.9677 139.319 97.3037 139.511 96.4877 139.511C94.9917 139.511 94.0117 138.375 94.0117 136.871C94.0117 135.319 94.9037 134.111 96.4837 134.111C97.4197 134.111 98.5197 134.679 98.5197 135.879C98.5197 136.607 98.0637 136.995 96.9237 136.995H94.8917C94.9317 137.899 95.5157 138.699 96.5357 138.699C97.0557 138.699 97.5797 138.535 97.9597 138.195ZM94.8957 136.251H96.8477C97.5117 136.251 97.6637 136.035 97.6637 135.867C97.6637 135.335 97.2157 134.899 96.4477 134.899C95.7917 134.899 95.1477 135.371 94.8957 136.251Z" fill="#37468A"/>
<path d="M103.492 138.195L104.052 138.807C103.5 139.319 102.836 139.511 102.02 139.511C100.524 139.511 99.5439 138.375 99.5439 136.871C99.5439 135.319 100.436 134.111 102.016 134.111C102.952 134.111 104.052 134.679 104.052 135.879C104.052 136.607 103.596 136.995 102.456 136.995H100.424C100.464 137.899 101.048 138.699 102.068 138.699C102.588 138.699 103.112 138.535 103.492 138.195ZM100.428 136.251H102.38C103.044 136.251 103.196 136.035 103.196 135.867C103.196 135.335 102.748 134.899 101.98 134.899C101.324 134.899 100.68 135.371 100.428 136.251Z" fill="#37468A"/>
<path d="M106.248 139.416H105.368V131.72H106.248V139.416Z" fill="#37468A"/>
<path d="M111.956 139.415H111.248L111.076 139.067C110.872 139.283 110.304 139.507 109.76 139.507C108.396 139.507 107.52 138.299 107.52 136.811C107.52 135.247 108.668 134.107 110.092 134.107C110.824 134.107 111.472 134.291 111.956 134.615V139.415ZM111.08 138.135V135.119C110.86 134.999 110.588 134.919 110.144 134.919C109.152 134.919 108.404 135.687 108.404 136.815C108.404 137.699 108.796 138.703 109.82 138.703C110.312 138.703 110.836 138.455 111.08 138.135Z" fill="#37468A"/>
<path fill-rule="evenodd" clip-rule="evenodd" d="M106.04 65.5272L105.966 60.7568L104.54 60.7788L104.635 66.9776L106.576 66.9446L106.653 71.774L108.079 71.7514L107.98 65.4942L106.04 65.5272Z" fill="#37468A"/>
<path fill-rule="evenodd" clip-rule="evenodd" d="M105.234 59.485C105.077 59.485 104.95 59.6124 104.95 59.7696C104.95 59.9269 105.077 60.0543 105.234 60.0543C105.392 60.0543 105.519 59.9269 105.519 59.7696C105.519 59.6124 105.392 59.485 105.234 59.485ZM103.523 59.7696C103.523 58.8247 104.29 58.0586 105.234 58.0586C106.179 58.0586 106.946 58.8247 106.946 59.7696C106.946 60.7146 106.179 61.4807 105.234 61.4807C104.29 61.4807 103.523 60.7146 103.523 59.7696Z" fill="#37468A"/>
<path fill-rule="evenodd" clip-rule="evenodd" d="M96.3341 68.22C97.583 67.5893 98.8506 67.2012 99.9587 67.2012C101.067 67.2012 102.334 67.5896 103.583 68.2207C104.842 68.8569 106.13 69.7642 107.29 70.8613C109.592 73.039 111.487 76.0658 111.487 79.3238C111.487 82.7378 110.004 85.8006 107.651 87.911L107.448 88.0933L92.4621 88.0895L92.259 87.9073C89.9057 85.7964 88.4268 82.7298 88.4268 79.3201C88.4268 76.0619 90.323 73.036 92.6259 70.8592C93.7861 69.7626 95.0751 68.8558 96.3341 68.22ZM93.6057 71.8958C91.4549 73.9288 89.8531 76.6058 89.8531 79.3201C89.8531 82.2119 91.0652 84.8203 93.0136 86.6633L106.897 86.6668C108.846 84.8236 110.061 82.2184 110.061 79.3238C110.061 76.6092 108.46 73.9313 106.31 71.8975C105.243 70.8888 104.067 70.0636 102.94 69.4937C101.802 68.9187 100.762 68.6275 99.9587 68.6275C99.1555 68.6275 98.1151 68.9186 96.9771 69.4932C95.8492 70.0628 94.6724 70.8876 93.6057 71.8958Z" fill="#37468A"/>
<path fill-rule="evenodd" clip-rule="evenodd" d="M89.2565 89.3633H110.91L111.11 89.7482C112.921 93.2413 113.989 97.6221 113.989 102.355C113.989 107.978 112.481 113.103 110.006 116.842C107.535 120.576 104.041 123 100.083 123C96.1253 123 92.6315 120.577 90.1602 116.843C87.6853 113.104 86.1777 107.98 86.1777 102.355C86.1777 97.6184 87.246 93.2413 89.0569 89.7482L89.2565 89.3633ZM90.1288 90.7896C88.5491 93.9992 87.6041 98.0012 87.6041 102.355C87.6041 107.74 89.0498 112.582 91.3496 116.056C93.653 119.536 96.7554 121.574 100.083 121.574C103.411 121.574 106.514 119.535 108.817 116.055C111.117 112.58 112.563 107.738 112.563 102.355C112.563 98.0047 111.617 93.9995 110.038 90.7896H90.1288Z" fill="#37468A"/>
<path fill-rule="evenodd" clip-rule="evenodd" d="M111.001 114.261H88.9639V112.835H111.001V114.261Z" fill="#37468A"/>
<path fill-rule="evenodd" clip-rule="evenodd" d="M109.427 117.137H90.7393V115.711H109.427V117.137Z" fill="#37468A"/>
<path fill-rule="evenodd" clip-rule="evenodd" d="M106.925 120.069H93.1973V118.643H106.925V120.069Z" fill="#37468A"/>
<path fill-rule="evenodd" clip-rule="evenodd" d="M95.1652 60.6973L95.2647 66.892L93.3239 66.9213L93.4006 71.751L91.9744 71.7736L91.875 65.5167L93.8156 65.4873L93.739 60.7202L95.1652 60.6973Z" fill="#37468A"/>
<path fill-rule="evenodd" clip-rule="evenodd" d="M94.4376 59.4264C94.2804 59.4264 94.1529 59.5538 94.1529 59.711C94.1529 59.8683 94.2804 59.9957 94.4376 59.9957C94.5948 59.9957 94.7223 59.8683 94.7223 59.711C94.7223 59.5538 94.5948 59.4264 94.4376 59.4264ZM92.7266 59.711C92.7266 58.7661 93.4926 58 94.4376 58C95.3826 58 96.1487 58.7661 96.1487 59.711C96.1487 60.656 95.3826 61.4221 94.4376 61.4221C93.4926 61.4221 92.7266 60.656 92.7266 59.711Z" fill="#37468A"/>
<path fill-rule="evenodd" clip-rule="evenodd" d="M110.911 89.3525L142.265 97.6093L142.288 98.1334C142.573 104.51 137.635 109.91 131.262 110.196C126.506 110.41 122.292 107.716 120.339 103.688L120.297 103.608C119.814 103.899 119.266 104.194 118.696 104.448C117.85 104.824 116.902 105.134 116.019 105.173C111.267 105.385 107.243 101.705 107.027 96.9541L107.027 96.9536C106.891 93.9211 108.341 91.1853 110.639 89.5467L110.911 89.3525ZM108.452 96.8893C108.344 94.4778 109.437 92.2902 111.204 90.9047L108.452 96.8893ZM111.204 90.9047L140.873 98.7179C140.842 104.078 136.61 108.528 131.198 108.771C127.028 108.959 123.329 106.595 121.618 103.057L121.613 103.047L120.831 101.552L120.17 101.999C119.614 102.374 118.882 102.804 118.116 103.145C117.34 103.49 116.58 103.721 115.956 103.748L115.955 103.748C111.991 103.925 108.633 100.855 108.452 96.8897" fill="#37468A"/>
<path fill-rule="evenodd" clip-rule="evenodd" d="M89.2562 89.3643L89.5285 89.5584C91.8265 91.197 93.2757 93.9328 93.1397 96.9653L93.1396 96.9658C92.9237 101.717 88.9002 105.397 84.1483 105.185C83.2654 105.146 82.3171 104.836 81.4712 104.46C80.9006 104.206 80.3527 103.911 79.8696 103.62L79.8278 103.7C77.8753 107.728 73.6606 110.422 68.9051 110.207C62.5317 109.922 57.5935 104.522 57.879 98.1452L57.9024 97.621L89.2562 89.3643ZM59.2938 98.7296C59.3251 104.09 63.5568 108.54 68.9689 108.782C73.1386 108.971 76.8378 106.607 78.5487 103.069L78.5537 103.058L79.3363 101.564L79.9974 102.011C80.5528 102.386 81.2847 102.815 82.051 103.156C82.8274 103.502 83.5866 103.733 84.2113 103.76L84.2119 103.76C88.1765 103.937 91.5343 100.867 91.7147 96.9014C91.8229 94.4897 90.7305 92.302 88.9633 90.9164L59.2938 98.7296Z" fill="#37468A"/>
</svg>
