<svg width="205" height="53" viewBox="0 0 205 53" fill="none" xmlns="http://www.w3.org/2000/svg">
<path d="M96.6147 36.9527C96.6147 43.5076 93.1004 47.5461 82.1509 47.5461H68.7354V9.71179H80.9044C90.3084 9.71179 93.7118 13.7502 93.7118 19.8348C93.7118 22.9593 92.4116 25.338 90.6679 26.8869C94.0982 28.7684 96.6147 32.3062 96.6147 36.9527ZM74.0471 25.2272H81.321C85.9945 25.2272 88.2354 24.0647 88.2354 19.8348C88.2354 16.4616 86.7134 14.5801 81.2102 14.5801H74.0471V25.2272V25.2272ZM91.1383 36.9527C91.1383 31.9736 88.6218 29.9006 82.4801 29.9006H74.0438V42.6778H82.7556C87.9599 42.6778 91.1383 41.6262 91.1383 36.9527Z" fill="#37468A"/>
<path d="M124.911 40.6317L128.092 44.0889C124.968 46.9918 121.205 48.0703 116.585 48.0703C108.122 48.0703 102.562 41.6262 102.562 33.1059C102.562 24.31 107.621 17.4796 116.555 17.4796C121.867 17.4796 128.089 20.6882 128.089 27.4917C128.089 31.6141 125.515 33.8249 119.045 33.8249H107.537C107.759 38.9418 111.079 43.4775 116.857 43.4775C119.794 43.4808 122.754 42.567 124.911 40.6317ZM107.571 29.6252H118.635C122.398 29.6252 123.254 28.4089 123.254 27.4413C123.254 24.4276 120.711 21.9649 116.367 21.9649C112.631 21.9615 108.982 24.646 107.571 29.6252Z" fill="#37468A"/>
<path d="M156.251 40.6317L159.432 44.0889C156.308 46.9918 152.545 48.0703 147.925 48.0703C139.462 48.0703 133.901 41.6262 133.901 33.1059C133.901 24.31 138.961 17.4796 147.895 17.4796C153.207 17.4796 159.429 20.6882 159.429 27.4917C159.429 31.6141 156.855 33.8249 150.384 33.8249H138.877C139.099 38.9418 142.418 43.4775 148.197 43.4775C151.134 43.4808 154.094 42.567 156.251 40.6317ZM138.907 29.6252H149.971C153.734 29.6252 154.591 28.4089 154.591 27.4413C154.591 24.4276 152.047 21.9649 147.703 21.9649C143.971 21.9615 140.319 24.646 138.907 29.6252Z" fill="#37468A"/>
<path d="M171.881 47.5461H166.901V3.95654H171.881V47.5461Z" fill="#37468A"/>
<path d="M204.211 47.5461H200.199L199.232 45.584C198.069 46.8002 194.861 48.0736 191.763 48.0736C184.046 48.0736 179.066 41.2432 179.066 32.8068C179.066 23.9572 185.564 17.4829 193.641 17.4829C197.79 17.4829 201.469 18.5345 204.208 20.3589V47.5461H204.211ZM199.232 40.2991V23.2079C197.989 22.5158 196.44 22.0723 193.92 22.0723C188.306 22.0723 184.072 26.4132 184.072 32.8034C184.072 37.8095 186.287 43.5076 192.092 43.5076C194.891 43.5076 197.851 42.0965 199.232 40.2991Z" fill="#37468A"/>
<path d="M46.0466 52.7147H15.6138L0.397461 26.3573L15.6138 0H46.0466L61.2663 26.3573L46.0466 52.7147Z" fill="#E7C924"/>
<path fill-rule="evenodd" clip-rule="evenodd" d="M33.6754 13.0117L33.635 10.47L32.875 10.482L32.9275 13.7831L33.9613 13.7676L34.0018 16.3402L34.7618 16.3283L34.7094 12.9962L33.6754 13.0117Z" fill="#37468A"/>
<path fill-rule="evenodd" clip-rule="evenodd" d="M33.2472 9.79367C33.1637 9.79367 33.096 9.86133 33.096 9.94478C33.096 10.0282 33.1637 10.0959 33.2472 10.0959C33.3306 10.0959 33.3983 10.0282 33.3983 9.94478C33.3983 9.86133 33.3306 9.79367 33.2472 9.79367ZM32.3359 9.94478C32.3359 9.44153 32.7439 9.03357 33.2472 9.03357C33.7504 9.03357 34.1584 9.44153 34.1584 9.94478C34.1584 10.448 33.7504 10.856 33.2472 10.856C32.7439 10.856 32.3359 10.448 32.3359 9.94478Z" fill="#37468A"/>
<path fill-rule="evenodd" clip-rule="evenodd" d="M28.503 14.4446C29.1686 14.1085 29.844 13.9016 30.4345 13.9016C31.0251 13.9016 31.7004 14.1085 32.3657 14.4446C33.0364 14.7835 33.723 15.2669 34.341 15.8514C35.5676 17.0117 36.5774 18.6247 36.5774 20.3617C36.5774 22.1809 35.7882 23.814 34.5354 24.9377L34.4271 25.0348H26.4392L26.3308 24.9374C25.0784 23.8114 24.2891 22.1785 24.2891 20.3617C24.2891 18.6246 25.2996 17.0116 26.5269 15.8513C27.1452 15.2668 27.8321 14.7835 28.503 14.4446ZM27.0491 16.4037C25.9029 17.4873 25.0492 18.9143 25.0492 20.3617C25.0492 21.9019 25.6958 23.291 26.7335 24.2747H34.1333C35.1706 23.2936 35.8173 21.9046 35.8173 20.3617C35.8173 18.9142 34.9642 17.4872 33.8187 16.4036C33.2505 15.8662 32.6238 15.4266 32.0229 15.1231C31.4168 14.8168 30.8625 14.6617 30.4345 14.6617C30.0065 14.6617 29.4521 14.8168 28.8457 15.1231C28.2446 15.4267 27.6175 15.8663 27.0491 16.4037Z" fill="#37468A"/>
<path fill-rule="evenodd" clip-rule="evenodd" d="M24.7289 25.7136H36.2678L36.3742 25.9185C37.3409 27.78 37.9099 30.1125 37.9099 32.6378C37.9099 35.6348 37.1063 38.3653 35.7872 40.3577C34.47 42.3472 32.6078 43.6385 30.4984 43.6385C28.389 43.6385 26.5268 42.3472 25.2096 40.3577C23.8905 38.3653 23.0869 35.6348 23.0869 32.6378C23.0869 30.115 23.656 27.7826 24.6225 25.9187L24.7289 25.7136ZM25.1936 26.4737C24.3504 28.1863 23.847 30.3189 23.847 32.6378C23.847 35.5067 24.6176 38.0866 25.8434 39.9381C27.0711 41.7924 28.7247 42.8784 30.4984 42.8784C32.2721 42.8784 33.9257 41.7924 35.1534 39.9381C36.3792 38.0866 37.1498 35.5067 37.1498 32.6378C37.1498 30.3164 36.6464 28.1838 35.8033 26.4737H25.1936Z" fill="#37468A"/>
<path fill-rule="evenodd" clip-rule="evenodd" d="M36.3185 38.9818H24.5762V38.2217H36.3185V38.9818Z" fill="#37468A"/>
<path fill-rule="evenodd" clip-rule="evenodd" d="M35.4801 40.5134H25.5195V39.7533H35.4801V40.5134Z" fill="#37468A"/>
<path fill-rule="evenodd" clip-rule="evenodd" d="M34.1468 42.0759H26.8291V41.3158H34.1468V42.0759Z" fill="#37468A"/>
<path fill-rule="evenodd" clip-rule="evenodd" d="M27.8795 10.4364L27.9319 13.7372L26.8979 13.7553L26.9384 16.3282L26.1784 16.3402L26.126 13.0085L27.1599 12.9905L27.1195 10.4485L27.8795 10.4364Z" fill="#37468A"/>
<path fill-rule="evenodd" clip-rule="evenodd" d="M27.4913 9.7601C27.4078 9.7601 27.3402 9.82776 27.3402 9.91121C27.3402 9.99467 27.4078 10.0623 27.4913 10.0623C27.5747 10.0623 27.6424 9.99467 27.6424 9.91121C27.6424 9.82776 27.5747 9.7601 27.4913 9.7601ZM26.5801 9.91121C26.5801 9.40796 26.988 9 27.4913 9C27.9945 9 28.4025 9.40796 28.4025 9.91121C28.4025 10.4145 27.9945 10.8224 27.4913 10.8224C26.988 10.8224 26.5801 10.4145 26.5801 9.91121Z" fill="#37468A"/>
<path fill-rule="evenodd" clip-rule="evenodd" d="M36.2733 25.7091L52.9811 30.1085L52.9935 30.3879C53.1446 33.7842 50.515 36.6644 47.118 36.8155C44.5836 36.9281 42.3379 35.4932 41.2981 33.3482L41.2746 33.3037C41.0171 33.4589 40.7249 33.6162 40.4205 33.7517C39.9697 33.9524 39.4643 34.1179 38.9934 34.1391C36.4609 34.2515 34.3155 32.2923 34.203 29.7592C34.1299 28.142 34.9039 26.6859 36.1282 25.8126L36.2733 25.7091ZM36.4295 26.5362C35.4872 27.275 34.9042 28.4396 34.9623 29.725L34.9623 29.7253C35.0562 31.8384 36.8455 33.4735 38.9593 33.3797C39.2929 33.3648 39.6977 33.2415 40.1113 33.0573C40.5196 32.8756 40.9094 32.6468 41.2052 32.4467L41.5563 32.2093L41.9766 33.0052L41.9795 33.0113C42.8903 34.8956 44.8612 36.1549 47.0842 36.0562C49.9681 35.9278 52.222 33.5547 52.2395 30.6993L36.4295 26.5362Z" fill="#37468A"/>
<path fill-rule="evenodd" clip-rule="evenodd" d="M24.7264 25.7142L24.8715 25.8177C26.0958 26.691 26.8698 28.1472 26.7967 29.7645C26.6841 32.2976 24.5389 34.2566 22.0065 34.1442C21.5356 34.1231 21.03 33.9576 20.5792 33.7569C20.2748 33.6213 19.9826 33.464 19.725 33.3089L19.7015 33.3534C18.6617 35.4984 16.4161 36.9332 13.8818 36.8206C10.4847 36.6695 7.85507 33.7893 8.0062 30.3931L8.01863 30.1137L24.7264 25.7142ZM8.76022 30.7044C8.77768 33.5598 11.0316 35.9329 13.9155 36.0613C16.1385 36.16 18.1094 34.9007 19.0202 33.0164L19.0231 33.0103L19.4433 32.2144L19.7944 32.4519C20.0903 32.6519 20.4801 32.8807 20.8883 33.0625C21.302 33.2466 21.7067 33.3699 22.0404 33.3849C24.1541 33.4786 25.9435 31.8435 26.0373 29.7304L26.0374 29.7301C26.0955 28.4447 25.5125 27.2801 24.5702 26.5414L8.76022 30.7044Z" fill="#37468A"/>
</svg>
