<svg width="72" height="73" viewBox="0 0 72 73" fill="none" xmlns="http://www.w3.org/2000/svg">
<path d="M4.5 29.0385C3.30653 29.0385 2.16193 29.5126 1.31802 30.3565C0.474106 31.2004 0 32.345 0 33.5385L0 38.4255C0 44.4262 9 44.4262 9 38.4255V33.5385C9 32.345 8.52589 31.2004 7.68198 30.3565C6.83807 29.5126 5.69347 29.0385 4.5 29.0385V29.0385ZM67.5 29.0385C66.3065 29.0385 65.1619 29.5126 64.318 30.3565C63.4741 31.2004 63 32.345 63 33.5385V38.4255C63 44.4262 72 44.4262 72 38.4255V33.5385C72 32.345 71.5259 31.2004 70.682 30.3565C69.8381 29.5126 68.6935 29.0385 67.5 29.0385V29.0385ZM20.0385 43.7692C18.845 43.7692 17.7004 44.2434 16.8565 45.0873C16.0126 45.9312 15.5385 47.0758 15.5385 48.2692V53.1562C15.5385 59.157 24.5385 59.157 24.5385 53.1562V48.3052C24.5385 45.81 22.5338 43.8052 20.0385 43.8052V43.7692ZM20.0385 14.3078C18.845 14.3078 17.7004 14.7819 16.8565 15.6258C16.0126 16.4697 15.5385 17.6143 15.5385 18.8078V34.8863C15.5385 40.887 24.5385 40.887 24.5385 34.8863V18.7852C24.5385 16.29 22.5338 14.2852 20.0385 14.2852V14.3078ZM51.9615 14.3078C49.4662 14.3078 47.4615 16.3238 47.4615 18.8078V23.7307C47.4615 29.7315 56.4615 29.7315 56.4615 23.7307V18.8078C56.4615 17.6143 55.9874 16.4697 55.1435 15.6258C54.2996 14.7819 53.155 14.3078 51.9615 14.3078V14.3078ZM36 0C34.8065 0 33.6619 0.474106 32.818 1.31802C31.9741 2.16193 31.5 3.30653 31.5 4.5V9.387C31.5 15.3877 40.5 15.3877 40.5 9.387V4.5C40.5 3.30653 40.0259 2.16193 39.182 1.31802C38.3381 0.474106 37.1935 0 36 0V0ZM36 58.0792C34.8065 58.0792 33.6619 58.5534 32.818 59.3973C31.9741 60.2412 31.5 61.3858 31.5 62.5792V67.5022C31.4775 73.503 40.4775 73.5368 40.5 67.5383V62.6153C40.5 60.1538 38.484 58.1153 36 58.1153V58.0792ZM51.9615 32.6948C49.4662 32.6948 47.4615 34.7333 47.4615 37.1948V53.19C47.4615 59.1907 56.4615 59.1907 56.4615 53.19V37.1948C56.4615 36.0013 55.9874 34.8567 55.1435 34.0128C54.2996 33.1689 53.155 32.6948 51.9615 32.6948ZM36 18.387C33.516 18.387 31.5 20.4255 31.5 22.887V49.0792C31.5 55.08 40.5 55.08 40.5 49.0792V22.923C40.5 20.4277 38.484 18.423 36 18.423V18.387Z" fill="#1C1C19"/>
</svg>
