<svg width="202" height="202" viewBox="0 0 202 202" fill="none" xmlns="http://www.w3.org/2000/svg">
<path d="M8.76636 0.746582H0.746094V8.76685H8.76636V0.746582Z" fill="#44433B"/>
<path d="M16.7866 0.746582H8.76636V8.76685H16.7866V0.746582Z" fill="#44433B"/>
<path d="M24.8069 0.746582H16.7866V8.76685H24.8069V0.746582Z" fill="#44433B"/>
<path d="M32.8272 0.746582H24.8069V8.76685H32.8272V0.746582Z" fill="#44433B"/>
<path d="M40.8474 0.746582H32.8272V8.76685H40.8474V0.746582Z" fill="#44433B"/>
<path d="M48.8677 0.746582H40.8474V8.76685H48.8677V0.746582Z" fill="#44433B"/>
<path d="M56.888 0.746582H48.8677V8.76685H56.888V0.746582Z" fill="#44433B"/>
<path d="M72.9285 0.746582H64.9082V8.76685H72.9285V0.746582Z" fill="#44433B"/>
<path d="M88.969 0.746582H80.9488V8.76685H88.969V0.746582Z" fill="#44433B"/>
<path d="M96.9893 0.746582H88.969V8.76685H96.9893V0.746582Z" fill="#44433B"/>
<path d="M113.03 0.746582H105.01V8.76685H113.03V0.746582Z" fill="#44433B"/>
<path d="M121.05 0.746582H113.03V8.76685H121.05V0.746582Z" fill="#44433B"/>
<path d="M129.07 0.746582H121.05V8.76685H129.07V0.746582Z" fill="#44433B"/>
<path d="M137.091 0.746582H129.07V8.76685H137.091V0.746582Z" fill="#44433B"/>
<path d="M153.131 0.746582H145.111V8.76685H153.131V0.746582Z" fill="#44433B"/>
<path d="M161.151 0.746582H153.131V8.76685H161.151V0.746582Z" fill="#44433B"/>
<path d="M169.172 0.746582H161.151V8.76685H169.172V0.746582Z" fill="#44433B"/>
<path d="M177.192 0.746582H169.172V8.76685H177.192V0.746582Z" fill="#44433B"/>
<path d="M185.212 0.746582H177.192V8.76685H185.212V0.746582Z" fill="#44433B"/>
<path d="M193.232 0.746582H185.212V8.76685H193.232V0.746582Z" fill="#44433B"/>
<path d="M201.253 0.746582H193.232V8.76685H201.253V0.746582Z" fill="#44433B"/>
<path d="M8.76636 8.76685H0.746094V16.7871H8.76636V8.76685Z" fill="#44433B"/>
<path d="M56.888 8.76685H48.8677L48.8677 16.7871H56.888V8.76685Z" fill="#44433B"/>
<path d="M88.969 8.76685H80.9488V16.7871H88.969V8.76685Z" fill="#44433B"/>
<path d="M113.03 8.76685H105.01V16.7871H113.03V8.76685Z" fill="#44433B"/>
<path d="M121.05 8.76685H113.03V16.7871H121.05V8.76685Z" fill="#44433B"/>
<path d="M153.131 8.76685H145.111V16.7871H153.131V8.76685Z" fill="#44433B"/>
<path d="M201.253 8.76685H193.232V16.7871H201.253V8.76685Z" fill="#44433B"/>
<path d="M8.76636 16.7871H0.746094V24.8074H8.76636V16.7871Z" fill="#44433B"/>
<path d="M24.8069 16.7871H16.7866V24.8074H24.8069V16.7871Z" fill="#44433B"/>
<path d="M32.8272 16.7871H24.8069V24.8074H32.8272V16.7871Z" fill="#44433B"/>
<path d="M40.8474 16.7871H32.8272V24.8074H40.8474V16.7871Z" fill="#44433B"/>
<path d="M56.888 16.7871H48.8677V24.8074H56.888V16.7871Z" fill="#44433B"/>
<path d="M80.9488 16.7871H72.9285V24.8074H80.9488V16.7871Z" fill="#44433B"/>
<path d="M88.969 16.7871H80.9488V24.8074H88.969V16.7871Z" fill="#44433B"/>
<path d="M113.03 16.7871H105.01V24.8074H113.03V16.7871Z" fill="#44433B"/>
<path d="M121.05 16.7871H113.03V24.8074H121.05V16.7871Z" fill="#44433B"/>
<path d="M153.131 16.7871H145.111V24.8074H153.131V16.7871Z" fill="#44433B"/>
<path d="M169.172 16.7871H161.151V24.8074H169.172V16.7871Z" fill="#44433B"/>
<path d="M177.192 16.7871H169.172V24.8074H177.192V16.7871Z" fill="#44433B"/>
<path d="M185.212 16.7871H177.192V24.8074H185.212V16.7871Z" fill="#44433B"/>
<path d="M201.253 16.7871H193.232V24.8074H201.253V16.7871Z" fill="#44433B"/>
<path d="M8.76636 24.8074H0.746094V32.8277H8.76636V24.8074Z" fill="#44433B"/>
<path d="M24.8069 24.8074H16.7866V32.8277H24.8069V24.8074Z" fill="#44433B"/>
<path d="M32.8272 24.8074H24.8069V32.8277H32.8272V24.8074Z" fill="#44433B"/>
<path d="M40.8474 24.8074H32.8272V32.8277H40.8474V24.8074Z" fill="#44433B"/>
<path d="M56.888 24.8074H48.8677V32.8277H56.888V24.8074Z" fill="#44433B"/>
<path d="M72.9285 24.8074H64.9082V32.8277H72.9285V24.8074Z" fill="#44433B"/>
<path d="M105.01 24.8074H96.9893V32.8277H105.01V24.8074Z" fill="#44433B"/>
<path d="M121.05 24.8074H113.03V32.8277H121.05V24.8074Z" fill="#44433B"/>
<path d="M153.131 24.8074H145.111V32.8277H153.131V24.8074Z" fill="#44433B"/>
<path d="M169.172 24.8074H161.151V32.8277H169.172V24.8074Z" fill="#44433B"/>
<path d="M177.192 24.8074H169.172V32.8277H177.192V24.8074Z" fill="#44433B"/>
<path d="M185.212 24.8074H177.192V32.8277H185.212V24.8074Z" fill="#44433B"/>
<path d="M201.253 24.8074H193.232V32.8277H201.253V24.8074Z" fill="#44433B"/>
<path d="M8.76636 32.8277H0.746094V40.8479H8.76636V32.8277Z" fill="#44433B"/>
<path d="M24.8069 32.8277H16.7866V40.8479H24.8069V32.8277Z" fill="#44433B"/>
<path d="M32.8272 32.8277H24.8069V40.8479H32.8272V32.8277Z" fill="#44433B"/>
<path d="M40.8474 32.8277H32.8272V40.8479H40.8474V32.8277Z" fill="#44433B"/>
<path d="M56.888 32.8277H48.8677V40.8479H56.888V32.8277Z" fill="#44433B"/>
<path d="M72.9285 32.8277H64.9082V40.8479H72.9285V32.8277Z" fill="#44433B"/>
<path d="M80.9488 32.8277H72.9285V40.8479H80.9488V32.8277Z" fill="#44433B"/>
<path d="M88.969 32.8277H80.9488V40.8479H88.969V32.8277Z" fill="#44433B"/>
<path d="M129.07 32.8277H121.05L121.05 40.8479H129.07V32.8277Z" fill="#44433B"/>
<path d="M137.091 32.8277H129.07V40.8479H137.091V32.8277Z" fill="#44433B"/>
<path d="M153.131 32.8277H145.111V40.8479H153.131V32.8277Z" fill="#44433B"/>
<path d="M169.172 32.8277H161.151V40.8479H169.172V32.8277Z" fill="#44433B"/>
<path d="M177.192 32.8277H169.172V40.8479H177.192V32.8277Z" fill="#44433B"/>
<path d="M185.212 32.8277H177.192V40.8479H185.212V32.8277Z" fill="#44433B"/>
<path d="M201.253 32.8277H193.232V40.8479H201.253V32.8277Z" fill="#44433B"/>
<path d="M8.76636 40.8479H0.746094V48.8682H8.76636V40.8479Z" fill="#44433B"/>
<path d="M56.888 40.8479H48.8677V48.8682H56.888V40.8479Z" fill="#44433B"/>
<path d="M72.9285 40.8479H64.9082V48.8682H72.9285V40.8479Z" fill="#44433B"/>
<path d="M88.969 40.8479H80.9488V48.8682H88.969V40.8479Z" fill="#44433B"/>
<path d="M96.9893 40.8479H88.969V48.8682H96.9893V40.8479Z" fill="#44433B"/>
<path d="M121.05 40.8479H113.03V48.8682H121.05L121.05 40.8479Z" fill="#44433B"/>
<path d="M129.07 40.8479H121.05L121.05 48.8682H129.07V40.8479Z" fill="#44433B"/>
<path d="M153.131 40.8479H145.111V48.8682H153.131V40.8479Z" fill="#44433B"/>
<path d="M201.253 40.8479H193.232V48.8682H201.253V40.8479Z" fill="#44433B"/>
<path d="M8.76636 48.8682H0.746094V56.8884H8.76636V48.8682Z" fill="#44433B"/>
<path d="M16.7866 48.8682L8.76636 48.8682V56.8884H16.7866V48.8682Z" fill="#44433B"/>
<path d="M24.8069 48.8682H16.7866V56.8884H24.8069V48.8682Z" fill="#44433B"/>
<path d="M32.8272 48.8682H24.8069V56.8884H32.8272V48.8682Z" fill="#44433B"/>
<path d="M40.8474 48.8682H32.8272V56.8884H40.8474V48.8682Z" fill="#44433B"/>
<path d="M48.8677 48.8682L40.8474 48.8682V56.8884H48.8677L48.8677 48.8682Z" fill="#44433B"/>
<path d="M56.888 48.8682H48.8677L48.8677 56.8884H56.888V48.8682Z" fill="#44433B"/>
<path d="M72.9285 48.8682H64.9082V56.8884H72.9285V48.8682Z" fill="#44433B"/>
<path d="M88.969 48.8682H80.9488V56.8884H88.969V48.8682Z" fill="#44433B"/>
<path d="M105.01 48.8682L96.9893 48.8682V56.8884H105.01V48.8682Z" fill="#44433B"/>
<path d="M121.05 48.8682H113.03V56.8884H121.05V48.8682Z" fill="#44433B"/>
<path d="M137.091 48.8682L129.07 48.8682V56.8884H137.091V48.8682Z" fill="#44433B"/>
<path d="M153.131 48.8682H145.111V56.8884H153.131V48.8682Z" fill="#44433B"/>
<path d="M161.151 48.8682L153.131 48.8682V56.8884H161.151V48.8682Z" fill="#44433B"/>
<path d="M169.172 48.8682H161.151V56.8884H169.172V48.8682Z" fill="#44433B"/>
<path d="M177.192 48.8682H169.172V56.8884H177.192V48.8682Z" fill="#44433B"/>
<path d="M185.212 48.8682H177.192V56.8884H185.212V48.8682Z" fill="#44433B"/>
<path d="M193.232 48.8682L185.212 48.8682V56.8884H193.232V48.8682Z" fill="#44433B"/>
<path d="M201.253 48.8682H193.232V56.8884H201.253V48.8682Z" fill="#44433B"/>
<path d="M72.9285 56.8884H64.9082V64.9087H72.9285V56.8884Z" fill="#44433B"/>
<path d="M80.9488 56.8884H72.9285V64.9087H80.9488V56.8884Z" fill="#44433B"/>
<path d="M105.01 56.8884H96.9893V64.9087H105.01V56.8884Z" fill="#44433B"/>
<path d="M121.05 56.8884H113.03V64.9087H121.05V56.8884Z" fill="#44433B"/>
<path d="M137.091 56.8884H129.07V64.9087H137.091V56.8884Z" fill="#44433B"/>
<path d="M8.76636 64.9087H0.746094V72.929H8.76636V64.9087Z" fill="#44433B"/>
<path d="M16.7866 64.9087H8.76636V72.929H16.7866V64.9087Z" fill="#44433B"/>
<path d="M24.8069 64.9087H16.7866V72.929H24.8069V64.9087Z" fill="#44433B"/>
<path d="M40.8474 64.9087H32.8272V72.929H40.8474V64.9087Z" fill="#44433B"/>
<path d="M56.888 64.9087H48.8677V72.929H56.888V64.9087Z" fill="#44433B"/>
<path d="M72.9285 64.9087H64.9082V72.929H72.9285V64.9087Z" fill="#44433B"/>
<path d="M80.9488 64.9087H72.9285V72.929H80.9488V64.9087Z" fill="#44433B"/>
<path d="M96.9893 64.9087H88.969V72.929H96.9893V64.9087Z" fill="#44433B"/>
<path d="M113.03 64.9087H105.01V72.929H113.03V64.9087Z" fill="#44433B"/>
<path d="M121.05 64.9087H113.03V72.929H121.05V64.9087Z" fill="#44433B"/>
<path d="M129.07 64.9087H121.05V72.929H129.07V64.9087Z" fill="#44433B"/>
<path d="M145.111 64.9087H137.091V72.929H145.111V64.9087Z" fill="#44433B"/>
<path d="M153.131 64.9087H145.111V72.929H153.131V64.9087Z" fill="#44433B"/>
<path d="M161.151 64.9087H153.131V72.929H161.151V64.9087Z" fill="#44433B"/>
<path d="M169.172 64.9087H161.151V72.929H169.172V64.9087Z" fill="#44433B"/>
<path d="M177.192 64.9087H169.172V72.929H177.192V64.9087Z" fill="#44433B"/>
<path d="M201.253 64.9087H193.232V72.929H201.253V64.9087Z" fill="#44433B"/>
<path d="M24.8069 72.929H16.7866V80.9492H24.8069V72.929Z" fill="#44433B"/>
<path d="M40.8474 72.929H32.8272V80.9492H40.8474V72.929Z" fill="#44433B"/>
<path d="M64.9082 72.929H56.888V80.9492H64.9082V72.929Z" fill="#44433B"/>
<path d="M72.9285 72.929H64.9082V80.9492H72.9285V72.929Z" fill="#44433B"/>
<path d="M105.01 72.929H96.9893V80.9492H105.01V72.929Z" fill="#44433B"/>
<path d="M137.091 72.929H129.07V80.9492H137.091V72.929Z" fill="#44433B"/>
<path d="M153.131 72.929H145.111V80.9492H153.131V72.929Z" fill="#44433B"/>
<path d="M185.212 72.929H177.192V80.9492H185.212V72.929Z" fill="#44433B"/>
<path d="M193.232 72.929H185.212V80.9492H193.232V72.929Z" fill="#44433B"/>
<path d="M201.253 72.929H193.232V80.9492H201.253V72.929Z" fill="#44433B"/>
<path d="M16.7866 80.9492H8.76636V88.9695H16.7866V80.9492Z" fill="#44433B"/>
<path d="M24.8069 80.9492H16.7866V88.9695H24.8069V80.9492Z" fill="#44433B"/>
<path d="M32.8272 80.9492H24.8069V88.9695H32.8272V80.9492Z" fill="#44433B"/>
<path d="M40.8474 80.9492H32.8272V88.9695H40.8474V80.9492Z" fill="#44433B"/>
<path d="M56.888 80.9492H48.8677V88.9695H56.888V80.9492Z" fill="#44433B"/>
<path d="M72.9285 80.9492H64.9082V88.9695H72.9285V80.9492Z" fill="#44433B"/>
<path d="M80.9488 80.9492H72.9285V88.9695H80.9488V80.9492Z" fill="#44433B"/>
<path d="M88.969 80.9492H80.9488V88.9695H88.969V80.9492Z" fill="#44433B"/>
<path d="M121.05 80.9492H113.03V88.9695H121.05V80.9492Z" fill="#44433B"/>
<path d="M129.07 80.9492H121.05V88.9695H129.07V80.9492Z" fill="#44433B"/>
<path d="M137.091 80.9492H129.07V88.9695H137.091V80.9492Z" fill="#44433B"/>
<path d="M153.131 80.9492H145.111V88.9695H153.131V80.9492Z" fill="#44433B"/>
<path d="M177.192 80.9492H169.172V88.9695H177.192V80.9492Z" fill="#44433B"/>
<path d="M185.212 80.9492H177.192V88.9695H185.212V80.9492Z" fill="#44433B"/>
<path d="M48.8677 88.9695H40.8474V96.9898H48.8677L48.8677 88.9695Z" fill="#44433B"/>
<path d="M72.9285 88.9695H64.9082V96.9898H72.9285V88.9695Z" fill="#44433B"/>
<path d="M88.969 88.9695H80.9488V96.9898H88.969V88.9695Z" fill="#44433B"/>
<path d="M96.9893 88.9695H88.969V96.9898H96.9893V88.9695Z" fill="#44433B"/>
<path d="M105.01 88.9695H96.9893V96.9898H105.01V88.9695Z" fill="#44433B"/>
<path d="M121.05 88.9695H113.03V96.9898H121.05V88.9695Z" fill="#44433B"/>
<path d="M129.07 88.9695H121.05V96.9898H129.07V88.9695Z" fill="#44433B"/>
<path d="M145.111 88.9695H137.091V96.9898H145.111V88.9695Z" fill="#44433B"/>
<path d="M153.131 88.9695H145.111V96.9898H153.131V88.9695Z" fill="#44433B"/>
<path d="M8.76636 96.9898H0.746094V105.01H8.76636V96.9898Z" fill="#44433B"/>
<path d="M40.8474 96.9898H32.8272V105.01H40.8474V96.9898Z" fill="#44433B"/>
<path d="M48.8677 96.9898H40.8474V105.01H48.8677V96.9898Z" fill="#44433B"/>
<path d="M56.888 96.9898H48.8677V105.01H56.888V96.9898Z" fill="#44433B"/>
<path d="M64.9082 96.9898H56.888V105.01H64.9082V96.9898Z" fill="#44433B"/>
<path d="M80.9488 96.9898H72.9285V105.01H80.9488V96.9898Z" fill="#44433B"/>
<path d="M105.01 96.9898H96.9893V105.01H105.01V96.9898Z" fill="#44433B"/>
<path d="M121.05 96.9898H113.03V105.01H121.05V96.9898Z" fill="#44433B"/>
<path d="M145.111 96.9898H137.091V105.01H145.111V96.9898Z" fill="#44433B"/>
<path d="M161.151 96.9898H153.131V105.01H161.151V96.9898Z" fill="#44433B"/>
<path d="M169.172 96.9898H161.151V105.01H169.172V96.9898Z" fill="#44433B"/>
<path d="M185.212 96.9898H177.192V105.01H185.212V96.9898Z" fill="#44433B"/>
<path d="M24.8069 105.01H16.7866V113.03H24.8069V105.01Z" fill="#44433B"/>
<path d="M32.8272 105.01H24.8069V113.03H32.8272V105.01Z" fill="#44433B"/>
<path d="M40.8474 105.01H32.8272V113.03H40.8474V105.01Z" fill="#44433B"/>
<path d="M48.8677 105.01H40.8474V113.03H48.8677V105.01Z" fill="#44433B"/>
<path d="M64.9082 105.01H56.888V113.03H64.9082V105.01Z" fill="#44433B"/>
<path d="M72.9285 105.01H64.9082V113.03H72.9285V105.01Z" fill="#44433B"/>
<path d="M80.9488 105.01H72.9285V113.03H80.9488V105.01Z" fill="#44433B"/>
<path d="M88.969 105.01H80.9488V113.03H88.969V105.01Z" fill="#44433B"/>
<path d="M96.9893 105.01H88.969V113.03H96.9893V105.01Z" fill="#44433B"/>
<path d="M105.01 105.01H96.9893V113.03H105.01V105.01Z" fill="#44433B"/>
<path d="M113.03 105.01H105.01V113.03H113.03V105.01Z" fill="#44433B"/>
<path d="M121.05 105.01H113.03V113.03H121.05V105.01Z" fill="#44433B"/>
<path d="M145.111 105.01H137.091V113.03H145.111V105.01Z" fill="#44433B"/>
<path d="M169.172 105.01H161.151V113.03H169.172V105.01Z" fill="#44433B"/>
<path d="M201.253 105.01H193.232V113.03H201.253V105.01Z" fill="#44433B"/>
<path d="M8.76636 113.03H0.746094V121.051H8.76636V113.03Z" fill="#44433B"/>
<path d="M24.8069 113.03H16.7866V121.051H24.8069V113.03Z" fill="#44433B"/>
<path d="M40.8474 113.03H32.8272V121.051H40.8474V113.03Z" fill="#44433B"/>
<path d="M48.8677 113.03H40.8474V121.051H48.8677V113.03Z" fill="#44433B"/>
<path d="M56.888 113.03H48.8677V121.051H56.888V113.03Z" fill="#44433B"/>
<path d="M64.9082 113.03H56.888V121.051H64.9082V113.03Z" fill="#44433B"/>
<path d="M80.9488 113.03H72.9285V121.051H80.9488V113.03Z" fill="#44433B"/>
<path d="M113.03 113.03H105.01V121.051H113.03V113.03Z" fill="#44433B"/>
<path d="M137.091 113.03H129.07V121.051H137.091V113.03Z" fill="#44433B"/>
<path d="M145.111 113.03H137.091V121.051H145.111V113.03Z" fill="#44433B"/>
<path d="M161.151 113.03H153.131V121.051H161.151V113.03Z" fill="#44433B"/>
<path d="M169.172 113.03H161.151V121.051H169.172V113.03Z" fill="#44433B"/>
<path d="M177.192 113.03H169.172V121.051H177.192V113.03Z" fill="#44433B"/>
<path d="M185.212 113.03H177.192V121.051H185.212V113.03Z" fill="#44433B"/>
<path d="M193.232 113.03H185.212V121.051H193.232V113.03Z" fill="#44433B"/>
<path d="M201.253 113.03H193.232V121.051H201.253V113.03Z" fill="#44433B"/>
<path d="M24.8069 121.051H16.7866V129.071H24.8069V121.051Z" fill="#44433B"/>
<path d="M32.8272 121.051H24.8069V129.071H32.8272V121.051Z" fill="#44433B"/>
<path d="M72.9285 121.051H64.9082V129.071H72.9285V121.051Z" fill="#44433B"/>
<path d="M80.9488 121.051H72.9285V129.071H80.9488V121.051Z" fill="#44433B"/>
<path d="M88.969 121.051L80.9488 121.051V129.071H88.969V121.051Z" fill="#44433B"/>
<path d="M105.01 121.051L96.9893 121.051V129.071H105.01V121.051Z" fill="#44433B"/>
<path d="M113.03 121.051H105.01V129.071H113.03V121.051Z" fill="#44433B"/>
<path d="M121.05 121.051L113.03 121.051V129.071H121.05V121.051Z" fill="#44433B"/>
<path d="M129.07 121.051L121.05 121.051V129.071H129.07V121.051Z" fill="#44433B"/>
<path d="M161.151 121.051H153.131V129.071H161.151V121.051Z" fill="#44433B"/>
<path d="M169.172 121.051H161.151V129.071H169.172V121.051Z" fill="#44433B"/>
<path d="M185.212 121.051H177.192V129.071H185.212V121.051Z" fill="#44433B"/>
<path d="M201.253 121.051H193.232V129.071H201.253V121.051Z" fill="#44433B"/>
<path d="M16.7866 129.071H8.76636V137.091H16.7866V129.071Z" fill="#44433B"/>
<path d="M24.8069 129.071H16.7866V137.091H24.8069V129.071Z" fill="#44433B"/>
<path d="M32.8272 129.071H24.8069V137.091H32.8272V129.071Z" fill="#44433B"/>
<path d="M40.8474 129.071H32.8272V137.091H40.8474V129.071Z" fill="#44433B"/>
<path d="M48.8677 129.071H40.8474V137.091H48.8677V129.071Z" fill="#44433B"/>
<path d="M56.888 129.071H48.8677V137.091H56.888V129.071Z" fill="#44433B"/>
<path d="M64.9082 129.071H56.888V137.091H64.9082V129.071Z" fill="#44433B"/>
<path d="M96.9893 129.071H88.969V137.091H96.9893V129.071Z" fill="#44433B"/>
<path d="M113.03 129.071H105.01V137.091H113.03V129.071Z" fill="#44433B"/>
<path d="M137.091 129.071H129.07V137.091H137.091V129.071Z" fill="#44433B"/>
<path d="M145.111 129.071H137.091V137.091H145.111V129.071Z" fill="#44433B"/>
<path d="M153.131 129.071H145.111V137.091H153.131V129.071Z" fill="#44433B"/>
<path d="M161.151 129.071H153.131V137.091H161.151V129.071Z" fill="#44433B"/>
<path d="M169.172 129.071H161.151V137.091H169.172V129.071Z" fill="#44433B"/>
<path d="M177.192 129.071H169.172V137.091H177.192V129.071Z" fill="#44433B"/>
<path d="M201.253 129.071H193.232V137.091H201.253V129.071Z" fill="#44433B"/>
<path d="M72.9285 137.091H64.9082V145.111H72.9285V137.091Z" fill="#44433B"/>
<path d="M88.969 137.091H80.9488V145.111H88.969V137.091Z" fill="#44433B"/>
<path d="M113.03 137.091H105.01V145.111H113.03V137.091Z" fill="#44433B"/>
<path d="M121.05 137.091H113.03V145.111H121.05V137.091Z" fill="#44433B"/>
<path d="M137.091 137.091H129.07V145.111H137.091V137.091Z" fill="#44433B"/>
<path d="M169.172 137.091H161.151V145.111H169.172V137.091Z" fill="#44433B"/>
<path d="M177.192 137.091H169.172V145.111H177.192V137.091Z" fill="#44433B"/>
<path d="M185.212 137.091H177.192V145.111H185.212V137.091Z" fill="#44433B"/>
<path d="M8.76636 145.111H0.746094V153.132H8.76636V145.111Z" fill="#44433B"/>
<path d="M16.7866 145.111H8.76636V153.132H16.7866V145.111Z" fill="#44433B"/>
<path d="M24.8069 145.111H16.7866V153.132H24.8069V145.111Z" fill="#44433B"/>
<path d="M32.8272 145.111H24.8069V153.132H32.8272V145.111Z" fill="#44433B"/>
<path d="M40.8474 145.111H32.8272V153.132H40.8474V145.111Z" fill="#44433B"/>
<path d="M48.8677 145.111H40.8474V153.132H48.8677V145.111Z" fill="#44433B"/>
<path d="M56.888 145.111H48.8677V153.132H56.888V145.111Z" fill="#44433B"/>
<path d="M88.969 145.111H80.9488V153.132H88.969V145.111Z" fill="#44433B"/>
<path d="M96.9893 145.111H88.969V153.132H96.9893V145.111Z" fill="#44433B"/>
<path d="M105.01 145.111H96.9893V153.132H105.01V145.111Z" fill="#44433B"/>
<path d="M121.05 145.111H113.03V153.132H121.05V145.111Z" fill="#44433B"/>
<path d="M129.07 145.111H121.05V153.132H129.07V145.111Z" fill="#44433B"/>
<path d="M137.091 145.111H129.07V153.132H137.091V145.111Z" fill="#44433B"/>
<path d="M153.131 145.111H145.111V153.132H153.131V145.111Z" fill="#44433B"/>
<path d="M169.172 145.111H161.151V153.132H169.172V145.111Z" fill="#44433B"/>
<path d="M177.192 145.111H169.172V153.132H177.192V145.111Z" fill="#44433B"/>
<path d="M193.232 145.111H185.212V153.132H193.232V145.111Z" fill="#44433B"/>
<path d="M201.253 145.111H193.232V153.132H201.253V145.111Z" fill="#44433B"/>
<path d="M8.76636 153.132H0.746094V161.152H8.76636V153.132Z" fill="#44433B"/>
<path d="M56.888 153.132H48.8677L48.8677 161.152H56.888V153.132Z" fill="#44433B"/>
<path d="M80.9488 153.132H72.9285V161.152H80.9488V153.132Z" fill="#44433B"/>
<path d="M96.9893 153.132H88.969V161.152H96.9893V153.132Z" fill="#44433B"/>
<path d="M105.01 153.132H96.9893V161.152H105.01V153.132Z" fill="#44433B"/>
<path d="M129.07 153.132H121.05L121.05 161.152H129.07V153.132Z" fill="#44433B"/>
<path d="M137.091 153.132H129.07V161.152H137.091V153.132Z" fill="#44433B"/>
<path d="M169.172 153.132H161.151V161.152H169.172V153.132Z" fill="#44433B"/>
<path d="M185.212 153.132H177.192V161.152H185.212V153.132Z" fill="#44433B"/>
<path d="M8.76636 161.152H0.746094V169.172H8.76636V161.152Z" fill="#44433B"/>
<path d="M24.8069 161.152H16.7866V169.172H24.8069V161.152Z" fill="#44433B"/>
<path d="M32.8272 161.152H24.8069V169.172H32.8272V161.152Z" fill="#44433B"/>
<path d="M40.8474 161.152H32.8272V169.172H40.8474V161.152Z" fill="#44433B"/>
<path d="M56.888 161.152H48.8677V169.172H56.888V161.152Z" fill="#44433B"/>
<path d="M72.9285 161.152H64.9082V169.172H72.9285V161.152Z" fill="#44433B"/>
<path d="M80.9488 161.152H72.9285V169.172H80.9488V161.152Z" fill="#44433B"/>
<path d="M96.9893 161.152H88.969V169.172H96.9893V161.152Z" fill="#44433B"/>
<path d="M113.03 161.152H105.01V169.172H113.03V161.152Z" fill="#44433B"/>
<path d="M121.05 161.152H113.03V169.172H121.05L121.05 161.152Z" fill="#44433B"/>
<path d="M137.091 161.152H129.07V169.172H137.091V161.152Z" fill="#44433B"/>
<path d="M145.111 161.152H137.091V169.172H145.111V161.152Z" fill="#44433B"/>
<path d="M153.131 161.152H145.111V169.172H153.131V161.152Z" fill="#44433B"/>
<path d="M161.151 161.152H153.131V169.172H161.151V161.152Z" fill="#44433B"/>
<path d="M169.172 161.152H161.151V169.172H169.172V161.152Z" fill="#44433B"/>
<path d="M185.212 161.152H177.192V169.172H185.212V161.152Z" fill="#44433B"/>
<path d="M201.253 161.152H193.232V169.172H201.253V161.152Z" fill="#44433B"/>
<path d="M8.76636 169.172H0.746094V177.192H8.76636V169.172Z" fill="#44433B"/>
<path d="M24.8069 169.172H16.7866V177.192H24.8069V169.172Z" fill="#44433B"/>
<path d="M32.8272 169.172H24.8069V177.192H32.8272V169.172Z" fill="#44433B"/>
<path d="M40.8474 169.172H32.8272V177.192H40.8474V169.172Z" fill="#44433B"/>
<path d="M56.888 169.172H48.8677V177.192H56.888V169.172Z" fill="#44433B"/>
<path d="M96.9893 169.172H88.969V177.192H96.9893V169.172Z" fill="#44433B"/>
<path d="M129.07 169.172H121.05L121.05 177.192H129.07V169.172Z" fill="#44433B"/>
<path d="M137.091 169.172H129.07V177.192H137.091V169.172Z" fill="#44433B"/>
<path d="M153.131 169.172H145.111V177.192H153.131V169.172Z" fill="#44433B"/>
<path d="M169.172 169.172H161.151V177.192H169.172V169.172Z" fill="#44433B"/>
<path d="M185.212 169.172H177.192V177.192H185.212V169.172Z" fill="#44433B"/>
<path d="M193.232 169.172H185.212V177.192H193.232V169.172Z" fill="#44433B"/>
<path d="M201.253 169.172H193.232V177.192H201.253V169.172Z" fill="#44433B"/>
<path d="M8.76636 177.192H0.746094V185.213H8.76636V177.192Z" fill="#44433B"/>
<path d="M24.8069 177.192H16.7866V185.213H24.8069V177.192Z" fill="#44433B"/>
<path d="M32.8272 177.192H24.8069V185.213H32.8272V177.192Z" fill="#44433B"/>
<path d="M40.8474 177.192H32.8272V185.213H40.8474V177.192Z" fill="#44433B"/>
<path d="M56.888 177.192H48.8677V185.213H56.888V177.192Z" fill="#44433B"/>
<path d="M72.9285 177.192H64.9082V185.213H72.9285V177.192Z" fill="#44433B"/>
<path d="M96.9893 177.192H88.969V185.213H96.9893V177.192Z" fill="#44433B"/>
<path d="M129.07 177.192H121.05V185.213H129.07V177.192Z" fill="#44433B"/>
<path d="M137.091 177.192H129.07V185.213H137.091V177.192Z" fill="#44433B"/>
<path d="M153.131 177.192H145.111V185.213H153.131V177.192Z" fill="#44433B"/>
<path d="M177.192 177.192H169.172V185.213H177.192V177.192Z" fill="#44433B"/>
<path d="M193.232 177.192H185.212V185.213H193.232V177.192Z" fill="#44433B"/>
<path d="M8.76636 185.213H0.746094V193.233H8.76636V185.213Z" fill="#44433B"/>
<path d="M56.888 185.213H48.8677V193.233H56.888V185.213Z" fill="#44433B"/>
<path d="M72.9285 185.213H64.9082V193.233H72.9285V185.213Z" fill="#44433B"/>
<path d="M113.03 185.213H105.01V193.233H113.03V185.213Z" fill="#44433B"/>
<path d="M121.05 185.213H113.03V193.233H121.05L121.05 185.213Z" fill="#44433B"/>
<path d="M129.07 185.213H121.05L121.05 193.233H129.07V185.213Z" fill="#44433B"/>
<path d="M137.091 185.213H129.07V193.233H137.091V185.213Z" fill="#44433B"/>
<path d="M161.151 185.213H153.131V193.233H161.151V185.213Z" fill="#44433B"/>
<path d="M177.192 185.213H169.172V193.233H177.192V185.213Z" fill="#44433B"/>
<path d="M185.212 185.213H177.192V193.233H185.212V185.213Z" fill="#44433B"/>
<path d="M193.232 185.213H185.212V193.233H193.232V185.213Z" fill="#44433B"/>
<path d="M8.76636 193.233H0.746094V201.253H8.76636V193.233Z" fill="#44433B"/>
<path d="M16.7866 193.233H8.76636V201.253H16.7866V193.233Z" fill="#44433B"/>
<path d="M24.8069 193.233H16.7866V201.253H24.8069V193.233Z" fill="#44433B"/>
<path d="M32.8272 193.233H24.8069V201.253H32.8272V193.233Z" fill="#44433B"/>
<path d="M40.8474 193.233H32.8272V201.253H40.8474V193.233Z" fill="#44433B"/>
<path d="M48.8677 193.233H40.8474V201.253H48.8677L48.8677 193.233Z" fill="#44433B"/>
<path d="M56.888 193.233H48.8677L48.8677 201.253H56.888V193.233Z" fill="#44433B"/>
<path d="M72.9285 193.233H64.9082V201.253H72.9285V193.233Z" fill="#44433B"/>
<path d="M88.969 193.233H80.9488V201.253H88.969V193.233Z" fill="#44433B"/>
<path d="M105.01 193.233H96.9893V201.253H105.01V193.233Z" fill="#44433B"/>
<path d="M121.05 193.233H113.03V201.253H121.05V193.233Z" fill="#44433B"/>
<path d="M137.091 193.233H129.07V201.253H137.091V193.233Z" fill="#44433B"/>
<path d="M145.111 193.233H137.091V201.253H145.111V193.233Z" fill="#44433B"/>
<path d="M153.131 193.233H145.111V201.253H153.131V193.233Z" fill="#44433B"/>
<path d="M169.172 193.233H161.151V201.253H169.172V193.233Z" fill="#44433B"/>
<path d="M177.192 193.233H169.172V201.253H177.192V193.233Z" fill="#44433B"/>
<path d="M185.212 193.233H177.192V201.253H185.212V193.233Z" fill="#44433B"/>
<path d="M193.232 193.233H185.212V201.253H193.232V193.233Z" fill="#44433B"/>
<path d="M201.253 193.233H193.232V201.253H201.253V193.233Z" fill="#44433B"/>
</svg>
