<?xml version="1.0" encoding="utf-8"?>
<!-- Generator: Adobe Illustrator 26.1.0, SVG Export Plug-In . SVG Version: 6.00 Build 0)  -->
<svg version="1.1" id="Capa_1" xmlns="http://www.w3.org/2000/svg" xmlns:xlink="http://www.w3.org/1999/xlink" x="0px" y="0px"
	 viewBox="0 0 500 500" style="enable-background:new 0 0 500 500;" xml:space="preserve">
<style type="text/css">
	.st0{fill:#DDEEEA;}
	.st1{fill:#020203;}
	.st2{fill:#E7C924;}
	.st3{fill:#37468A;}
	.st4{fill:#020304;}
	.st5{fill:#FFCE05;}
	.st6{fill:#050606;}
</style>
<g>
	<path class="st0" d="M167.17,309.79c30.51,3.58,61.02,7.17,91.53,10.75c11.3,1.33,22.62,2.66,33.75,5.07
		c6.64,1.44,13.25,3.27,20.04,3.55c10,0.42,19.8-2.51,29.38-5.41c2.05-0.62,4.27-1.37,5.44-3.17c1.09-1.68,0.97-3.85,0.78-5.84
		c-1.58-16.83-4.92-33.49-9.95-49.63c-2.12-6.8-4.47-14.5-1-20.72c1.07-1.91,2.64-3.56,3.32-5.64c1.59-4.9-2.71-10.12-7.68-11.47
		c-4.97-1.35-10.22,0.04-15.18,1.44c-0.71-4.52-1.43-9.03-2.14-13.55c-0.2-1.29-0.38-2.72,0.35-3.8c0.82-1.23,2.47-1.53,3.94-1.72
		c6.98-0.92,14.05-1.84,21.03-0.97c6.82,0.85,13.4,3.39,20.27,3.7c11.65,0.52,23.33-6.07,28.92-16.3
		c5.59-10.23,4.82-23.61-1.9-33.14c-5.88-8.33-15.56-13.34-25.5-15.62s-20.25-2.1-30.44-1.9c-35.38,0.66-70.76,1.32-106.14,1.99
		c-17.22,0.32-34.71,0.69-51.16,5.8c-12.85,4-24.72,10.82-35.34,19.08c-4.75,3.7-9.42,7.88-11.86,13.39
		c-4.4,9.95,2.75,16.9,6.6,25.4c4.81,10.62,9.05,21.55,13.06,32.49c4.02,10.96,7.72,22.04,11.07,33.22
		C159.3,279.98,165.68,309.62,167.17,309.79z"/>
	<path class="st0" d="M135.46,313.6c8.44,0.87,16.96-0.17,25.36-1.45c5.28,14.71,2.02,30.94-1.3,46.22
		c-3.36-3.26-8.32-4.14-12.97-4.67c-10.33-1.17-20.78-1.38-31.15-0.61c4-7.93,6.84-16.65,6.6-25.53c-0.22-8.12-3.33-14.78-8.2-21.07
		c2.52-0.47,6.88,3.24,9.44,4.24C127.14,312.26,131.29,313.17,135.46,313.6z"/>
	<g>
		<g>
			<path class="st0" d="M124.49,347.79v-30.1c0-3.35,2.72-6.06,6.06-6.06h25.84c3.35,0,6.06,2.72,6.06,6.06v30.1
				c0,3.35-2.72,6.06-6.06,6.06h-25.84C127.21,353.85,124.49,351.14,124.49,347.79z"/>
			<path class="st0" d="M132.4,342.72v-19.97c0-1.78,1.45-3.23,3.23-3.23h15.7c1.78,0,3.23,1.45,3.23,3.23v19.97
				c0,1.78-1.45,3.23-3.23,3.23h-15.7C133.84,345.95,132.4,344.5,132.4,342.72z"/>
			<path class="st0" d="M137.5,355.15v-45.14c0-3.35,2.72-6.06,6.06-6.06h25.84c3.35,0,6.06,2.72,6.06,6.06v45.14
				c0,3.35-2.72,6.06-6.06,6.06h-25.84C140.22,361.22,137.5,358.5,137.5,355.15z"/>
			<path class="st0" d="M145.4,350.09v-35c0-1.78,1.45-3.23,3.23-3.23h15.7c1.78,0,3.23,1.45,3.23,3.23v35
				c0,1.78-1.45,3.23-3.23,3.23h-15.7C146.85,353.32,145.4,351.87,145.4,350.09z"/>
			<path class="st0" d="M150.6,369.69v-73.98c0-3.35,2.72-6.06,6.06-6.06h25.84c3.35,0,6.06,2.72,6.06,6.06v73.98
				c0,3.35-2.72,6.06-6.06,6.06h-25.84C153.32,375.75,150.6,373.04,150.6,369.69z"/>
			<path class="st0" d="M158.5,364.62v-63.84c0-1.78,1.45-3.23,3.23-3.23h15.7c1.78,0,3.23,1.45,3.23,3.23v63.84
				c0,1.78-1.45,3.23-3.23,3.23h-15.7C159.95,367.85,158.5,366.4,158.5,364.62z"/>
			<path class="st0" d="M163.53,369.69v-73.98c0-3.35,2.72-6.06,6.06-6.06h25.84c3.35,0,6.06,2.72,6.06,6.06v73.98
				c0,3.35-2.72,6.06-6.06,6.06H169.6C166.25,375.75,163.53,373.04,163.53,369.69z"/>
			<path class="st0" d="M171.43,364.62v-63.84c0-1.78,1.45-3.23,3.23-3.23h15.7c1.78,0,3.23,1.45,3.23,3.23v63.84
				c0,1.78-1.45,3.23-3.23,3.23h-15.7C172.88,367.85,171.43,366.4,171.43,364.62z"/>
			<path class="st0" d="M176.46,369.69v-73.98c0-3.35,2.72-6.06,6.06-6.06h25.84c3.35,0,6.06,2.72,6.06,6.06v73.98
				c0,3.35-2.72,6.06-6.06,6.06h-25.84C179.17,375.75,176.46,373.03,176.46,369.69z"/>
			<path class="st0" d="M184.36,364.62v-63.84c0-1.78,1.45-3.23,3.23-3.23h15.7c1.78,0,3.23,1.45,3.23,3.23v63.84
				c0,1.78-1.45,3.23-3.23,3.23h-15.7C185.81,367.85,184.36,366.4,184.36,364.62z"/>
			<path class="st0" d="M189.56,347.79v-30.1c0-3.35,2.72-6.06,6.06-6.06h25.84c3.35,0,6.06,2.72,6.06,6.06v30.1
				c0,3.35-2.72,6.06-6.06,6.06h-25.84C192.28,353.85,189.56,351.14,189.56,347.79z"/>
			<path class="st0" d="M197.46,342.72v-19.97c0-1.78,1.45-3.23,3.23-3.23h15.7c1.78,0,3.23,1.45,3.23,3.23v19.97
				c0,1.78-1.45,3.23-3.23,3.23h-15.7C198.91,345.95,197.46,344.5,197.46,342.72z"/>
			<path class="st0" d="M202.49,362.99v-60.73c0-3.35,2.72-6.06,6.06-6.06h25.84c3.35,0,6.06,2.72,6.06,6.06v60.73
				c0,3.35-2.72,6.06-6.06,6.06h-25.84C205.2,369.06,202.49,366.34,202.49,362.99z"/>
			<path class="st0" d="M210.39,357.92v-50.6c0-1.78,1.45-3.23,3.23-3.23h15.7c1.78,0,3.23,1.45,3.23,3.23v50.6
				c0,1.78-1.45,3.23-3.23,3.23h-15.7C211.84,361.15,210.39,359.71,210.39,357.92z"/>
			<path class="st0" d="M215.24,351.32v-37.35c0-3.35,2.72-6.06,6.06-6.06h25.84c3.35,0,6.06,2.72,6.06,6.06v37.35
				c0,3.35-2.72,6.06-6.06,6.06h-25.84C217.96,357.39,215.24,354.67,215.24,351.32z"/>
			<path class="st0" d="M223.15,346.26v-27.21c0-1.78,1.45-3.23,3.23-3.23h15.7c1.78,0,3.23,1.45,3.23,3.23v27.21
				c0,1.78-1.45,3.23-3.23,3.23h-15.7C224.59,349.49,223.15,348.04,223.15,346.26z"/>
			<path class="st0" d="M228.49,365.99v-66.32c0-3.35,2.72-6.06,6.06-6.06h25.84c3.35,0,6.06,2.72,6.06,6.06v66.32
				c0,3.35-2.72,6.06-6.06,6.06h-25.84C231.21,372.06,228.49,369.34,228.49,365.99z"/>
			<path class="st0" d="M236.39,360.92v-56.18c0-1.78,1.45-3.23,3.23-3.23h15.7c1.78,0,3.23,1.45,3.23,3.23v56.18
				c0,1.78-1.45,3.23-3.23,3.23h-15.7C237.84,364.15,236.39,362.71,236.39,360.92z"/>
			<path class="st0" d="M240.93,355.32v-45.31c0-3.35,2.72-6.06,6.06-6.06h25.84c3.35,0,6.06,2.72,6.06,6.06v45.31
				c0,3.35-2.72,6.06-6.06,6.06h-25.84C243.65,361.38,240.93,358.67,240.93,355.32z"/>
			<path class="st0" d="M248.83,350.25v-35.17c0-1.78,1.45-3.23,3.23-3.23h15.7c1.78,0,3.23,1.45,3.23,3.23v35.17
				c0,1.78-1.45,3.23-3.23,3.23h-15.7C250.28,353.48,248.83,352.04,248.83,350.25z"/>
			<path class="st0" d="M253.86,365.99v-66.32c0-3.35,2.72-6.06,6.06-6.06h25.84c3.35,0,6.06,2.72,6.06,6.06v66.32
				c0,3.35-2.72,6.06-6.06,6.06h-25.84C256.57,372.06,253.86,369.34,253.86,365.99z"/>
			<path class="st0" d="M261.76,360.92v-56.18c0-1.78,1.45-3.23,3.23-3.23h15.7c1.78,0,3.23,1.45,3.23,3.23v56.18
				c0,1.78-1.45,3.23-3.23,3.23h-15.7C263.21,364.15,261.76,362.71,261.76,360.92z"/>
			<path class="st0" d="M266.79,373.42v-80.99c0-3.35,2.72-6.06,6.06-6.06h25.84c3.35,0,6.06,2.72,6.06,6.06v80.99
				c0,3.35-2.72,6.06-6.06,6.06h-25.84C269.5,379.48,266.79,376.77,266.79,373.42z"/>
			<path class="st0" d="M274.69,368.35V297.5c0-1.78,1.45-3.23,3.23-3.23h15.7c1.78,0,3.23,1.45,3.23,3.23v70.85
				c0,1.78-1.45,3.23-3.23,3.23h-15.7C276.14,371.58,274.69,370.14,274.69,368.35z"/>
			<path class="st0" d="M279.54,373.42v-80.99c0-3.35,2.72-6.06,6.06-6.06h25.84c3.35,0,6.06,2.72,6.06,6.06v80.99
				c0,3.35-2.72,6.06-6.06,6.06h-25.84C282.26,379.48,279.54,376.77,279.54,373.42z"/>
			<path class="st0" d="M287.45,368.35V297.5c0-1.78,1.45-3.23,3.23-3.23h15.7c1.78,0,3.23,1.45,3.23,3.23v70.85
				c0,1.78-1.45,3.23-3.23,3.23h-15.7C288.89,371.58,287.45,370.14,287.45,368.35z"/>
			<path class="st0" d="M292.99,355.31V310c0-3.35,2.72-6.06,6.06-6.06h25.84c3.35,0,6.06,2.72,6.06,6.06v45.31
				c0,3.35-2.72,6.06-6.06,6.06h-25.84C295.71,361.37,292.99,358.65,292.99,355.31z"/>
			<path class="st0" d="M300.89,350.24v-35.17c0-1.78,1.45-3.23,3.23-3.23h15.7c1.78,0,3.23,1.45,3.23,3.23v35.17
				c0,1.78-1.45,3.23-3.23,3.23h-15.7C302.34,353.47,300.89,352.02,300.89,350.24z"/>
			<path class="st0" d="M305.57,369.67v-74.16c0-3.35,2.72-6.06,6.06-6.06h25.84c3.35,0,6.06,2.72,6.06,6.06v74.16
				c0,3.35-2.72,6.06-6.06,6.06h-25.84C308.29,375.74,305.57,373.02,305.57,369.67z"/>
			<path class="st0" d="M313.48,364.6v-64.02c0-1.78,1.45-3.23,3.23-3.23h15.7c1.78,0,3.23,1.45,3.23,3.23v64.02
				c0,1.78-1.45,3.23-3.23,3.23h-15.7C314.92,367.83,313.48,366.39,313.48,364.6z"/>
			<path class="st0" d="M318.5,363.28v-61.04c0-3.35,2.72-6.06,6.06-6.06h25.84c3.35,0,6.06,2.72,6.06,6.06v61.04
				c0,3.35-2.72,6.06-6.06,6.06h-25.84C321.22,369.35,318.5,366.63,318.5,363.28z"/>
			<path class="st0" d="M326.41,358.22v-50.91c0-1.78,1.45-3.23,3.23-3.23h15.7c1.78,0,3.23,1.45,3.23,3.23v50.91
				c0,1.78-1.45,3.23-3.23,3.23h-15.7C327.85,361.45,326.41,360,326.41,358.22z"/>
			<path class="st0" d="M331.43,373.42v-81.87c0-3.35,2.72-6.06,6.06-6.06h25.84c3.35,0,6.06,2.72,6.06,6.06v81.87
				c0,3.35-2.72,6.06-6.06,6.06H337.5C334.15,379.48,331.43,376.77,331.43,373.42z"/>
			<path class="st0" d="M339.33,368.35v-71.73c0-1.78,1.45-3.23,3.23-3.23h15.7c1.78,0,3.23,1.45,3.23,3.23v71.73
				c0,1.78-1.45,3.23-3.23,3.23h-15.7C340.78,371.58,339.33,370.14,339.33,368.35z"/>
			<path class="st0" d="M344.36,365.99v-66.32c0-3.35,2.72-6.06,6.06-6.06h25.84c3.35,0,6.06,2.72,6.06,6.06v66.32
				c0,3.35-2.72,6.06-6.06,6.06h-25.84C347.07,372.06,344.36,369.34,344.36,365.99z"/>
			<path class="st0" d="M352.26,360.92v-56.18c0-1.78,1.45-3.23,3.23-3.23h15.7c1.78,0,3.23,1.45,3.23,3.23v56.18
				c0,1.78-1.45,3.23-3.23,3.23h-15.7C353.71,364.15,352.26,362.71,352.26,360.92z"/>
			<path class="st0" d="M357.12,363.28v-61.04c0-3.35,2.72-6.06,6.06-6.06h25.84c3.35,0,6.06,2.72,6.06,6.06v61.04
				c0,3.35-2.72,6.06-6.06,6.06h-25.84C359.83,369.35,357.12,366.63,357.12,363.28z"/>
			<path class="st0" d="M365.02,358.22v-50.91c0-1.78,1.45-3.23,3.23-3.23h15.7c1.78,0,3.23,1.45,3.23,3.23v50.91
				c0,1.78-1.45,3.23-3.23,3.23h-15.7C366.46,361.45,365.02,360,365.02,358.22z"/>
			<path class="st0" d="M370.22,369.67v-74.16c0-3.35,2.72-6.06,6.06-6.06h25.84c3.35,0,6.06,2.72,6.06,6.06v74.16
				c0,3.35-2.72,6.06-6.06,6.06h-25.84C372.93,375.74,370.22,373.02,370.22,369.67z"/>
			<path class="st0" d="M378.12,364.6v-64.02c0-1.78,1.45-3.23,3.23-3.23h15.7c1.78,0,3.23,1.45,3.23,3.23v64.02
				c0,1.78-1.45,3.23-3.23,3.23h-15.7C379.57,367.83,378.12,366.39,378.12,364.6z"/>
			<path class="st0" d="M383.32,373.42v-81.87c0-3.35,2.72-6.06,6.06-6.06h25.84c3.35,0,6.06,2.72,6.06,6.06v81.87
				c0,3.35-2.72,6.06-6.06,6.06h-25.84C386.03,379.48,383.32,376.77,383.32,373.42z"/>
			<path class="st0" d="M391.22,368.35v-71.73c0-1.78,1.45-3.23,3.23-3.23h15.7c1.78,0,3.23,1.45,3.23,3.23v71.73
				c0,1.78-1.45,3.23-3.23,3.23h-15.7C392.67,371.58,391.22,370.14,391.22,368.35z"/>
			<path class="st0" d="M396.25,351.53v-37.74c0-3.35,2.72-6.06,6.06-6.06h25.84c3.35,0,6.06,2.72,6.06,6.06v37.74
				c0,3.35-2.72,6.06-6.06,6.06h-25.84C398.96,357.6,396.25,354.88,396.25,351.53z"/>
			<path class="st0" d="M404.15,346.46v-27.61c0-1.78,1.45-3.23,3.23-3.23h15.7c1.78,0,3.23,1.45,3.23,3.23v27.61
				c0,1.78-1.45,3.23-3.23,3.23h-15.7C405.6,349.69,404.15,348.25,404.15,346.46z"/>
			<path class="st0" d="M409.18,347.88v-30.64c0-3.35,2.72-6.06,6.06-6.06h25.84c3.35,0,6.06,2.72,6.06,6.06v30.64
				c0,3.35-2.72,6.06-6.06,6.06h-25.84C411.89,353.94,409.18,351.23,409.18,347.88z"/>
			<path class="st0" d="M417.08,342.81v-20.5c0-1.78,1.45-3.23,3.23-3.23h15.7c1.78,0,3.23,1.45,3.23,3.23v20.5
				c0,1.78-1.45,3.23-3.23,3.23h-15.7C418.52,346.04,417.08,344.59,417.08,342.81z"/>
		</g>
		<g>
			<path class="st1" d="M146.26,338.04h-5.57c-0.22,0-0.4-0.18-0.4-0.4v-9.83c0-0.22,0.18-0.4,0.4-0.4h5.57c0.22,0,0.4,0.18,0.4,0.4
				v9.83C146.66,337.87,146.48,338.04,146.26,338.04z"/>
			<path class="st1" d="M159.27,345.41h-5.57c-0.22,0-0.4-0.18-0.4-0.4v-24.87c0-0.22,0.18-0.4,0.4-0.4h5.57
				c0.22,0,0.4,0.18,0.4,0.4v24.87C159.66,345.24,159.49,345.41,159.27,345.41z"/>
			<path class="st1" d="M172.37,359.94h-5.57c-0.22,0-0.4-0.18-0.4-0.4v-53.71c0-0.22,0.18-0.4,0.4-0.4h5.57
				c0.22,0,0.4,0.18,0.4,0.4v53.71C172.77,359.77,172.59,359.94,172.37,359.94z"/>
			<path class="st1" d="M185.3,359.94h-5.57c-0.22,0-0.4-0.18-0.4-0.4v-53.71c0-0.22,0.18-0.4,0.4-0.4h5.57c0.22,0,0.4,0.18,0.4,0.4
				v53.71C185.69,359.77,185.52,359.94,185.3,359.94z"/>
			<path class="st1" d="M198.23,359.94h-5.57c-0.22,0-0.4-0.18-0.4-0.4v-53.71c0-0.22,0.18-0.4,0.4-0.4h5.57
				c0.22,0,0.4,0.18,0.4,0.4v53.71C198.62,359.77,198.45,359.94,198.23,359.94z"/>
			<path class="st1" d="M211.33,338.04h-5.57c-0.22,0-0.4-0.18-0.4-0.4v-9.83c0-0.22,0.18-0.4,0.4-0.4h5.57c0.22,0,0.4,0.18,0.4,0.4
				v9.83C211.72,337.87,211.55,338.04,211.33,338.04z"/>
			<path class="st1" d="M224.26,353.25h-5.57c-0.22,0-0.4-0.18-0.4-0.4v-40.46c0-0.22,0.18-0.4,0.4-0.4h5.57
				c0.22,0,0.4,0.18,0.4,0.4v40.46C224.65,353.07,224.48,353.25,224.26,353.25z"/>
			<path class="st1" d="M237.01,341.58h-5.57c-0.22,0-0.4-0.18-0.4-0.4v-17.07c0-0.22,0.18-0.4,0.4-0.4h5.57
				c0.22,0,0.4,0.18,0.4,0.4v17.07C237.41,341.41,237.23,341.58,237.01,341.58z"/>
			<path class="st1" d="M250.26,356.25h-5.57c-0.22,0-0.4-0.18-0.4-0.4v-46.05c0-0.22,0.18-0.4,0.4-0.4h5.57
				c0.22,0,0.4,0.18,0.4,0.4v46.05C250.65,356.07,250.48,356.25,250.26,356.25z"/>
			<path class="st1" d="M262.7,345.58h-5.57c-0.22,0-0.4-0.18-0.4-0.4v-25.03c0-0.22,0.18-0.4,0.4-0.4h5.57c0.22,0,0.4,0.18,0.4,0.4
				v25.03C263.09,345.4,262.92,345.58,262.7,345.58z"/>
			<path class="st1" d="M275.63,356.25h-5.57c-0.22,0-0.4-0.18-0.4-0.4v-46.05c0-0.22,0.18-0.4,0.4-0.4h5.57
				c0.22,0,0.4,0.18,0.4,0.4v46.05C276.02,356.07,275.85,356.25,275.63,356.25z"/>
			<path class="st1" d="M288.56,363.68h-5.57c-0.22,0-0.4-0.18-0.4-0.4v-60.72c0-0.22,0.18-0.4,0.4-0.4h5.57
				c0.22,0,0.4,0.18,0.4,0.4v60.72C288.95,363.5,288.77,363.68,288.56,363.68z"/>
			<path class="st1" d="M301.31,363.68h-5.57c-0.22,0-0.4-0.18-0.4-0.4v-60.72c0-0.22,0.18-0.4,0.4-0.4h5.57
				c0.22,0,0.4,0.18,0.4,0.4v60.72C301.71,363.5,301.53,363.68,301.31,363.68z"/>
			<path class="st1" d="M314.76,345.56h-5.57c-0.22,0-0.4-0.18-0.4-0.4v-25.03c0-0.22,0.18-0.4,0.4-0.4h5.57
				c0.22,0,0.4,0.18,0.4,0.4v25.03C315.15,345.39,314.98,345.56,314.76,345.56z"/>
			<path class="st1" d="M327.34,359.93h-5.57c-0.22,0-0.4-0.18-0.4-0.4v-53.88c0-0.22,0.18-0.4,0.4-0.4h5.57
				c0.22,0,0.4,0.18,0.4,0.4v53.88C327.74,359.75,327.56,359.93,327.34,359.93z"/>
			<path class="st1" d="M340.27,353.54h-5.57c-0.22,0-0.4-0.18-0.4-0.4v-40.77c0-0.22,0.18-0.4,0.4-0.4h5.57
				c0.22,0,0.4,0.18,0.4,0.4v40.77C340.67,353.37,340.49,353.54,340.27,353.54z"/>
			<path class="st1" d="M353.2,363.68h-5.57c-0.22,0-0.4-0.18-0.4-0.4v-61.59c0-0.22,0.18-0.4,0.4-0.4h5.57c0.22,0,0.4,0.18,0.4,0.4
				v61.59C353.6,363.5,353.42,363.68,353.2,363.68z"/>
			<path class="st1" d="M366.13,356.25h-5.57c-0.22,0-0.4-0.18-0.4-0.4v-46.05c0-0.22,0.18-0.4,0.4-0.4h5.57
				c0.22,0,0.4,0.18,0.4,0.4v46.05C366.52,356.07,366.35,356.25,366.13,356.25z"/>
			<path class="st1" d="M378.88,353.54h-5.57c-0.22,0-0.4-0.18-0.4-0.4v-40.77c0-0.22,0.18-0.4,0.4-0.4h5.57
				c0.22,0,0.4,0.18,0.4,0.4v40.77C379.28,353.37,379.1,353.54,378.88,353.54z"/>
			<path class="st1" d="M391.99,359.93h-5.57c-0.22,0-0.4-0.18-0.4-0.4v-53.88c0-0.22,0.18-0.4,0.4-0.4h5.57
				c0.22,0,0.4,0.18,0.4,0.4v53.88C392.38,359.75,392.2,359.93,391.99,359.93z"/>
			<path class="st1" d="M405.09,363.68h-5.57c-0.22,0-0.4-0.18-0.4-0.4v-61.59c0-0.22,0.18-0.4,0.4-0.4h5.57
				c0.22,0,0.4,0.18,0.4,0.4v61.59C405.48,363.5,405.3,363.68,405.09,363.68z"/>
			<path class="st1" d="M418.02,341.79h-5.57c-0.22,0-0.4-0.18-0.4-0.4v-17.47c0-0.22,0.18-0.4,0.4-0.4h5.57
				c0.22,0,0.4,0.18,0.4,0.4v17.47C418.41,341.61,418.23,341.79,418.02,341.79z"/>
			<path class="st1" d="M430.94,338.13h-5.57c-0.22,0-0.4-0.18-0.4-0.4v-10.37c0-0.22,0.18-0.4,0.4-0.4h5.57
				c0.22,0,0.4,0.18,0.4,0.4v10.37C431.34,337.96,431.16,338.13,430.94,338.13z"/>
		</g>
	</g>
	<g>
		<path class="st0" d="M173.4,291.24c-6.69,0-12.03-1.87-15.86-5.56c-3.91-3.77-5.89-9.06-5.89-15.74v-16.41
			c-3.44-0.85-5.99-3.96-5.99-7.67v-5.44c0-2.15,0.88-4.21,2.43-5.7c1.47-1.42,3.44-2.2,5.47-2.2c0.11,0,1.4,0.05,1.4,0.05
			c2.05-0.02,3.6-0.6,5.01-1.86c1.51-1.35,2.37-2.99,2.7-5.17c0.58-3.86,3.91-6.72,7.81-6.72h5.39c4.36,0,7.9,3.54,7.9,7.9v5.8h4.49
			c4.36,0,7.9,3.54,7.9,7.9v5.44c0,4.36-3.54,7.9-7.9,7.9h-4.49v10.51c0.35-0.05,0.71-0.07,1.06-0.07c0.84,0,1.69,0.13,2.52,0.41
			l4.94,1.66c2.06,0.69,3.74,2.2,4.65,4.18c0.91,1.97,0.97,4.23,0.16,6.25C194.93,282.13,188.97,291.24,173.4,291.24z"/>
		<path class="st0" d="M175.87,245.86v21.51c0,3.59,0.23,5.97,0.71,7.13c0.47,1.16,1.44,1.74,2.92,1.74c2.22,0,4-1.38,5.34-4.13
			l4.94,1.66c-2.55,6.38-8.01,9.57-16.37,9.57c-4.6,0-8.06-1.12-10.38-3.35c-2.32-2.23-3.48-5.58-3.48-10.05v-24.08h-5.99v-5.44
			l1.26,0.05c4.06,0,7.54-1.29,10.43-3.88c2.89-2.58,4.63-5.88,5.24-9.87h5.39v13.7h12.39v5.44H175.87z"/>
		<path class="st0" d="M234.3,290.53c-6.08,0-10.45-1.43-13.59-3.4c-1.34,0.65-2.7,1.2-4.08,1.66c-3.46,1.15-7.13,1.74-10.89,1.74
			c-5.86,0-10.57-1.57-13.99-4.66c-3.6-3.26-5.5-7.53-5.5-12.36c0-3.58,1.07-8.52,5.65-13.2c-0.4-0.29-0.76-0.59-1.08-0.88
			c-2.76-2.51-4.27-5.86-4.27-9.45c0-4.31,1.81-10.4,10.41-14.95c5.34-2.82,11.97-4.19,20.27-4.19c4.38,0,8.01,0.27,11.1,0.83
			c3.9,0.71,7.21,2.13,9.83,4.23c2.72,2.18,4.62,4.69,5.65,7.46c0.86,2.32,1.27,5.09,1.27,8.48v12.75h1.77
			c2.14,0,4.18,0.86,5.67,2.4c1.49,1.53,2.29,3.6,2.23,5.74c-0.22,7.64-4.08,11.82-7.28,13.97
			C243.7,289.25,239.28,290.53,234.3,290.53z"/>
		<path class="st0" d="M221.8,277.29c-2.45,1.78-5.01,3.11-7.68,4.01c-2.67,0.89-5.47,1.33-8.39,1.33c-3.86,0-6.76-0.87-8.69-2.62
			c-1.93-1.75-2.9-3.91-2.9-6.5c0-3.66,1.93-6.9,5.79-9.72c3.86-2.82,10.85-5.94,20.95-9.37v-3.73c0-2.65-0.64-4.36-1.91-5.11
			c-1.28-0.76-2.79-1.14-4.53-1.14c-4.23,0-6.58,1.55-7.05,4.63c-0.34,2.12-1.01,3.65-2.01,4.61c-1.01,0.96-2.57,1.43-4.68,1.43
			c-1.91,0-3.43-0.51-4.56-1.54c-1.12-1.02-1.69-2.22-1.69-3.6c0-3.12,2.07-5.78,6.2-7.96c4.13-2.18,9.65-3.27,16.57-3.27
			c3.86,0,7.09,0.23,9.7,0.71c2.6,0.47,4.7,1.34,6.3,2.62c1.6,1.28,2.65,2.62,3.17,4.03c0.52,1.41,0.78,3.32,0.78,5.74V271
			c0,2.89,0.87,4.33,2.62,4.33c1.51,0,2.47-0.94,2.87-2.82h4.18c-0.1,3.46-1.37,6.01-3.8,7.66c-2.44,1.64-5.35,2.47-8.74,2.47
			C228.12,282.63,223.95,280.85,221.8,277.29z M220.9,271.85v-11.79c-4.67,1.95-7.72,3.71-9.14,5.29c-1.43,1.58-2.14,3.21-2.14,4.88
			c0,1.28,0.42,2.43,1.26,3.45c0.84,1.02,1.95,1.54,3.32,1.54c1.21,0,2.37-0.29,3.48-0.86C218.78,273.8,219.86,272.96,220.9,271.85z
			"/>
		<path class="st0" d="M248.2,289.58c-4.36,0-7.9-3.54-7.9-7.9v-5.34c0-4.18,3.25-7.6,7.35-7.89v-39.34
			c-4.11-0.28-7.35-3.7-7.35-7.89v-5.39c0-3.9,2.84-7.21,6.69-7.81l23.67-3.68c0.4-0.06,0.81-0.09,1.21-0.09
			c1.87,0,3.7,0.67,5.14,1.9c1.75,1.5,2.76,3.69,2.76,6v56.32c3.94,0.45,7,3.79,7,7.85v5.34c0,4.36-3.54,7.9-7.9,7.9H248.2z"/>
		<path class="st0" d="M271.87,212.16v57.47c0,2.59,0.4,4.35,1.21,5.29c0.81,0.94,2.74,1.41,5.79,1.41v5.34H248.2v-5.34
			c2.68,0,4.58-0.32,5.69-0.96c1.11-0.64,1.66-2.55,1.66-5.74v-41.76c0-2.65-0.43-4.42-1.29-5.31c-0.85-0.89-2.88-1.33-6.07-1.33
			v-5.39L271.87,212.16z"/>
		<g>
			<path class="st0" d="M348.12,163.23c-5.38,0-10.34-2.7-13.27-7.22c-2.93-4.52-3.36-10.15-1.15-15.06l7.25-16.17
				c2.54-5.67,8.21-9.34,14.42-9.34h20.45c6.95,0,13.01,4.45,15.09,11.09c2.07,6.63-0.37,13.75-6.08,17.71l-23.32,16.17
				c-2.66,1.84-5.78,2.82-9.01,2.82H348.12z"/>
			<path class="st0" d="M383.36,128.89c-1.03-3.3-4.09-5.54-7.54-5.54h-20.45c-3.11,0-5.94,1.83-7.21,4.67l-7.25,16.17
				c-1.1,2.45-0.88,5.28,0.58,7.53c1.46,2.25,3.95,3.61,6.63,3.61h4.38c1.61,0,3.18-0.49,4.5-1.41l23.32-16.17
				C383.16,135.78,384.4,132.19,383.36,128.89z"/>
			<path class="st0" d="M400.3,214.65c-3.3,0-6.69-0.36-10.1-1.07c-1.81,0.7-3.73,1.07-5.71,1.07h-4.54
				c-8.64,0-15.58-6.76-15.8-15.4l-0.35-13.7c-0.05-2.07,0.29-4.1,1-5.99c-1.51-3.48-2.27-7.23-2.27-11.19
				c0-9.12,4.04-17.21,11.39-22.79c6.22-4.72,14.06-7.12,23.31-7.12c3.28,0,6.61,0.33,9.95,0.99c1.75-0.65,3.61-0.99,5.52-0.99h4.18
				c8.55,0,15.48,6.69,15.8,15.23l0.45,12.49c0.05,1.29-0.06,2.56-0.32,3.8c2.39,4.19,3.6,8.85,3.6,13.9
				c0,9.5-4.42,17.89-12.45,23.63C417.34,212.26,409.38,214.65,400.3,214.65z"/>
			<path class="st0" d="M424.77,172.08c-0.26-0.35-0.52-0.7-0.8-1.03c0.87-1.35,1.32-2.94,1.26-4.57l-0.45-12.49
				c-0.16-4.25-3.65-7.62-7.9-7.62h-4.18c-1.65,0-3.22,0.51-4.52,1.42c-3.68-0.94-7.34-1.42-10.95-1.42
				c-7.48,0-13.72,1.86-18.53,5.51c-5.41,4.1-8.26,9.81-8.26,16.49c0,4.16,1.15,7.97,3.43,11.33c-1.44,1.52-2.22,3.55-2.16,5.64
				l0.35,13.7c0.11,4.28,3.61,7.7,7.9,7.7h4.54c1.72,0,3.34-0.56,4.67-1.53c3.79,1.02,7.53,1.53,11.15,1.53
				c7.4,0,13.81-1.9,19.06-5.66c5.98-4.28,9.15-10.23,9.15-17.21C428.51,179.49,427.25,175.51,424.77,172.08z"/>
			<path class="st0" d="M173.4,299.14c-8.81,0-15.99-2.62-21.35-7.77c-5.44-5.24-8.31-12.65-8.31-21.43v-11.67
				c-3.7-2.92-5.99-7.44-5.99-12.4v-5.44c0-4.29,1.77-8.44,4.86-11.41c2.95-2.84,6.84-4.4,10.94-4.4c0.08,0,0.76,0.02,1.23,0.04
				c0.02-0.07,0.04-0.17,0.06-0.3c0.69-4.54,3.21-8.36,6.75-10.75c-6.49-1.45-12.36-4.39-17.53-8.81c-0.43-0.37-0.86-0.75-1.27-1.14
				c-0.58,0.5-1.19,0.98-1.81,1.44c-7.16,5.31-17.24,7.9-30.82,7.9H74.35c-8.72,0-15.81-7.09-15.81-15.81v-5.59
				c0-6.25,3.64-11.66,8.91-14.22c0-7.64,0-20.62,0-28.32c-5.27-2.57-8.91-7.98-8.91-14.22v-5.59c0-8.61,6.74-15.55,15.35-15.8
				l26.24-0.76l4.18-0.01c15.65,0,25.86,2.21,33.11,7.17c8.17,5.58,12.85,13.9,13.3,23.53c5.95-3.26,12.62-4.91,19.94-4.91
				c10.38,0,19.23,3.13,26.32,9.3c0.18,0.15,0.35,0.3,0.52,0.46c0.02-0.02,0.05-0.04,0.07-0.06c7.51-6.44,16.54-9.7,26.84-9.7
				c4,0,7.77,0.46,11.3,1.39c-0.2-1.01-0.31-2.05-0.31-3.11v-5.39c0-7.84,5.63-14.41,13.38-15.62l23.68-3.68
				c0.8-0.12,1.61-0.19,2.43-0.19c3.77,0,7.42,1.35,10.28,3.8c3.51,3.01,5.52,7.38,5.52,12v14.01c5.63-2.16,12.15-3.22,19.81-3.22
				c4.86,0,8.96,0.31,12.51,0.96c5.2,0.94,9.7,2.91,13.36,5.83c3.86,3.09,6.59,6.75,8.12,10.88c1.19,3.22,1.76,6.89,1.76,11.23v6.09
				c1.94,0.82,3.72,2.02,5.2,3.54c2.96,3.04,4.58,7.22,4.46,11.46c-0.24,8.58-4.06,15.79-10.75,20.31c-5.09,3.43-11,5.17-17.59,5.17
				c-2.62,0-5.11-0.22-7.45-0.66v11.33h16.78c8.72,0,15.81,7.09,15.81,15.81v5.34c0,5.93-3.28,11.11-8.12,13.81
				c0.65,0.85,1.17,1.5,1.57,1.98c6.05,2.28,10.18,8.07,10.18,14.78v5.34c0,8.72-7.09,15.81-15.81,15.81h-26.6
				c-0.69,0-1.38-0.04-2.07-0.13c-0.68,0.09-1.37,0.13-2.07,0.13h-28.71c-0.38,0-0.75-0.02-1.11-0.05c-0.37,0.03-0.74,0.05-1.1,0.05
				H248.2c-1.35,0-2.7-0.18-4.01-0.53c-3.12,0.99-6.44,1.49-9.9,1.49c-5.19,0-9.85-0.87-13.91-2.59c-0.42,0.16-0.84,0.3-1.26,0.44
				c-4.27,1.42-8.78,2.15-13.39,2.15c-5.65,0-10.59-1.16-14.74-3.45C186,297.75,180.1,299.14,173.4,299.14z M191.57,224.96
				c1.6,0.34,3.13,0.93,4.54,1.74c5.91-2.52,12.86-3.75,21.11-3.75c4.86,0,8.96,0.31,12.51,0.96c1.04,0.19,2.04,0.42,3.02,0.68
				c-0.24-1.09-0.36-2.21-0.36-3.36v-5.39c0-0.6,0.03-1.2,0.1-1.78c-2.38,0.4-4.83,0.6-7.33,0.6c-10.3,0-19.35-3.2-26.92-9.5
				c-2.33,1.95-4.95,3.66-7.87,5.12c-2.18,1.09-4.43,1.98-6.76,2.66C187.94,215.38,191,219.8,191.57,224.96z"/>
			<path class="st0" d="M341.79,268.53c-0.55-0.54-1.89-1.98-4.6-5.64l-5.55-7.44c2.68-1.52,4.39-1.79,5.26-1.79
				c4.36,0,7.9-3.54,7.9-7.9v-5.34c0-4.36-3.54-7.9-7.9-7.9h-22.97c-0.59,0-1.16,0.06-1.72,0.19v-20.54c0-2.31-1.01-4.5-2.76-6
				c-0.58-0.5-1.23-0.87-1.91-1.18c0.79-0.2,1.57-0.42,2.35-0.68c1.38-0.46,2.75-1.02,4.08-1.66c3.13,1.97,7.5,3.4,13.59,3.4
				c4.98,0,9.41-1.28,13.16-3.82c3.2-2.16,7.06-6.34,7.28-13.98c0.06-2.13-0.74-4.2-2.23-5.73c-1.49-1.53-3.53-2.39-5.67-2.39h-1.77
				v-12.75c0-3.39-0.41-6.16-1.27-8.49c-1.03-2.77-2.93-5.28-5.65-7.45c-2.62-2.1-5.93-3.52-9.83-4.23
				c-3.09-0.56-6.73-0.83-11.11-0.83c-8.3,0-14.92,1.37-20.26,4.19c-3.5,1.85-5.86,3.95-7.44,6.09v-28.97c0-2.31-1.01-4.5-2.76-6
				c-1.44-1.23-3.27-1.9-5.14-1.9c-0.4,0-0.81,0.03-1.21,0.09l-23.67,3.68c-3.85,0.6-6.69,3.91-6.69,7.81v5.39
				c0,4.18,3.25,7.6,7.35,7.89V160c-1.35-2.37-3.05-4.48-5.12-6.28c-5.61-4.88-12.72-7.36-21.13-7.36c-8.36,0-15.65,2.62-21.69,7.8
				c-2.19,1.88-3.99,4.04-5.45,6.44c-1.4-2.62-3.23-4.92-5.47-6.87c-5.61-4.88-12.72-7.36-21.13-7.36c-8.36,0-15.65,2.62-21.69,7.8
				c-3.43,2.95-5.95,6.59-7.56,10.75c-0.9-1.23-1.92-2.39-3.09-3.46c-0.57-0.52-1.16-1.02-1.78-1.49c4.14-4.07,6.32-9.27,6.32-15.07
				c0-7.7-3.42-14.11-9.89-18.54c-5.77-3.95-14.87-5.79-28.64-5.79l-3.95,0l-26.24,0.76c-4.27,0.12-7.68,3.62-7.68,7.9v5.59
				c0,4.36,3.54,7.9,7.9,7.9c0.38,0,0.71,0.01,1.01,0.02c0,0.14,0,40.78,0,40.92c-0.29,0.01-0.63,0.02-1.01,0.02
				c-4.36,0-7.9,3.54-7.9,7.9v5.59c0,4.36,3.54,7.9,7.9,7.9h35.81c11.82,0,20.37-2.07,26.12-6.34c2.87-2.13,5.09-4.7,6.69-7.6
				c1.58,2.86,3.65,5.44,6.23,7.64c6.18,5.28,13.66,7.96,22.21,7.96c5.55,0,10.73-1.19,15.41-3.53c4.75-2.39,8.51-5.54,11.17-9.38
				c0.08-0.11,0.12-0.23,0.19-0.34c1.34,1.93,2.91,3.71,4.76,5.29c6.18,5.28,13.66,7.96,22.21,7.96c5.55,0,10.73-1.19,15.41-3.53
				c1.34-0.67,2.57-1.42,3.75-2.21c1.35,2.42,3.91,4.08,6.88,4.08h14.7l-18.91,2.94c-3.85,0.6-6.69,3.91-6.69,7.81v5.39
				c0,4.18,3.25,7.6,7.35,7.89v35.57c-0.27-0.03-0.54-0.08-0.81-0.08h-1.77v-12.75c0-3.39-0.41-6.16-1.27-8.48
				c-1.02-2.77-2.92-5.28-5.65-7.46c-2.62-2.1-5.93-3.52-9.83-4.23c-3.09-0.56-6.73-0.83-11.1-0.83c-8.3,0-14.93,1.37-20.27,4.19
				c-0.73,0.38-1.39,0.78-2.02,1.19c-1.4-2.22-3.86-3.71-6.68-3.71h-4.49v-5.8c0-4.36-3.54-7.9-7.9-7.9h-5.39
				c-3.91,0-7.23,2.86-7.81,6.72c-0.33,2.17-1.18,3.81-2.7,5.17c-1.41,1.26-2.96,1.84-5.01,1.86c0,0-1.29-0.05-1.4-0.05
				c-2.04,0-4,0.79-5.47,2.2c-1.55,1.49-2.43,3.55-2.43,5.7v5.44c0,3.71,2.55,6.82,5.99,7.67v16.41c0,6.68,1.98,11.97,5.89,15.74
				c3.83,3.69,9.17,5.56,15.86,5.56c8.42,0,14.01-2.67,17.74-5.98c0.21,0.2,0.4,0.42,0.61,0.61c3.42,3.09,8.13,4.66,13.99,4.66
				c3.76,0,7.42-0.59,10.89-1.74c1.38-0.46,2.75-1.02,4.08-1.66c3.14,1.97,7.51,3.4,13.59,3.4c3.63,0,6.96-0.7,9.95-2.05
				c1.17,0.68,2.5,1.1,3.95,1.1h30.67c0.38,0,0.74-0.06,1.11-0.11c0.37,0.05,0.73,0.11,1.11,0.11h28.71c0.71,0,1.41-0.09,2.07-0.27
				c0.66,0.18,1.35,0.27,2.07,0.27h26.6c4.36,0,7.9-3.54,7.9-7.9v-5.34C348.43,272.4,345.56,269.14,341.79,268.53z M109.58,183.19
				c0,0-0.15,0.06-0.53,0.09v-10.94c0.24,0.05,0.39,0.08,0.39,0.07c0,0,0.12,0.11,0.29,0.45c0.16,0.32,0.69,1.6,0.69,4.83
				C110.42,181.81,109.58,183.11,109.58,183.19z M175.9,184.65c-1.4,0-1.61-0.32-1.84-0.66c0,0,3.97-0.01,3.97-0.01
				C176.95,184.65,176.22,184.65,175.9,184.65z M229.64,184.65c-1.4,0-1.61-0.32-1.84-0.66c0,0,3.97-0.01,3.97-0.01
				C230.69,184.65,229.97,184.65,229.64,184.65z M183.77,264.27v-10.51h3.44c0.68,2.12,1.86,4.08,3.62,5.68
				c0.32,0.29,0.67,0.58,1.08,0.88c-1.52,1.55-2.62,3.12-3.45,4.66l-1.1-0.37c-0.83-0.28-1.68-0.41-2.52-0.41
				C184.47,264.2,184.12,264.22,183.77,264.27z M284.09,174.95c0.32,0.29,0.68,0.59,1.08,0.88c-0.95,0.97-1.72,1.95-2.39,2.93v-5.27
				C283.19,174,283.6,174.5,284.09,174.95z M250.65,182.83v0.77c-0.17-0.16-0.32-0.33-0.5-0.47
				C250.33,183.04,250.49,182.93,250.65,182.83z M281.88,205.09c2.07,0,3.93-0.81,5.34-2.11c2.08,1.33,4.5,2.24,7.28,2.69
				l-14.61,2.25c-0.42,0.06-0.82,0.17-1.21,0.3c-0.44-0.76-0.97-1.48-1.66-2.07c-0.51-0.44-1.09-0.78-1.68-1.07H281.88z
				 M279.78,268.48v-39.64c0.12,0.02,0.24,0.06,0.36,0.08v39.56c-0.06,0.01-0.11,0.03-0.17,0.04
				C279.91,268.51,279.85,268.49,279.78,268.48z"/>
		</g>
		<path class="st0" d="M313.93,289.58c-0.71,0-1.41-0.09-2.07-0.27c-0.66,0.18-1.35,0.27-2.07,0.27h-28.71c-4.36,0-7.9-3.54-7.9-7.9
			v-5.34c0-4.04,3.03-7.38,6.95-7.85v-39.56c-3.92-0.47-6.95-3.81-6.95-7.85v-5.34c0-3.9,2.85-7.22,6.7-7.81l23.22-3.58
			c0.4-0.06,0.8-0.09,1.2-0.09c1.87,0,3.7,0.67,5.15,1.9c1.75,1.5,2.76,3.69,2.76,6v20.54c0.55-0.12,1.13-0.19,1.72-0.19h22.97
			c4.36,0,7.9,3.54,7.9,7.9v5.34c0,4.36-3.54,7.9-7.9,7.9c-0.87,0-2.57,0.27-5.26,1.79l5.55,7.44c2.71,3.66,4.05,5.1,4.6,5.64
			c3.76,0.6,6.64,3.87,6.64,7.8v5.34c0,4.36-3.54,7.9-7.9,7.9H313.93z"/>
		<path class="st0" d="M304.31,265.25v4.38c0,2.39,0.35,4.07,1.06,5.06c0.71,0.99,2.18,1.54,4.43,1.64v5.34h-28.71v-5.34
			c2.92,0,4.81-0.45,5.67-1.36c0.85-0.91,1.28-2.68,1.28-5.34v-41.86c0-2.55-0.4-4.31-1.21-5.26c-0.81-0.96-2.72-1.44-5.74-1.44
			v-5.34l23.22-3.58v46.44l10.73-7.71c2.05-1.51,3.07-2.67,3.07-3.47c0-0.47-0.19-0.87-0.58-1.18c-0.39-0.32-1.59-0.48-3.6-0.48
			v-5.34h22.97v5.34c-3.73,0-7.93,1.68-12.59,5.04l-3.93,2.77l10.48,14.05c2.52,3.39,4.44,5.69,5.77,6.9
			c1.33,1.21,2.63,1.81,3.9,1.81v5.34h-26.6v-5.34c2.15,0,3.22-0.62,3.22-1.87c0-0.5-0.57-1.53-1.71-3.07l-6.85-9.22L304.31,265.25z
			"/>
	</g>
	<g>
		<path class="st2" d="M117.87,160.87c6.72,1.21,11.75,3.35,15.11,6.42c3.36,3.07,5.04,7.08,5.04,12.01c0,5.54-2.15,9.91-6.45,13.1
			c-4.3,3.19-11.43,4.79-21.41,4.79H74.35v-5.59c3.59,0,5.98-0.56,7.15-1.69c1.17-1.13,1.76-3.35,1.76-6.68v-40.04
			c0-3.22-0.55-5.42-1.66-6.6c-1.11-1.17-3.53-1.76-7.25-1.76v-5.59l26.24-0.76h3.73c11.82,0,19.88,1.47,24.18,4.41
			c4.3,2.94,6.45,6.94,6.45,12.01c0,3.83-1.42,7.07-4.26,9.72C127.85,157.28,123.58,159.36,117.87,160.87z M101.15,157.95h3.48
			c3.69,0,6.45-0.86,8.26-2.59c1.81-1.73,2.72-4.73,2.72-8.99c0-3.19-0.57-5.71-1.71-7.56c-1.14-1.85-2.64-3.04-4.51-3.58
			c-1.86-0.54-4.61-0.81-8.24-0.81V157.95z M101.15,164.09v19.39c0,1.88,0.19,3.31,0.58,4.28c0.39,0.97,1.14,1.79,2.27,2.45
			c1.12,0.65,2.71,0.98,4.76,0.98c3.19,0,5.58-1.12,7.18-3.37c1.6-2.25,2.39-5.63,2.39-10.13c0-3.59-0.52-6.4-1.56-8.44
			c-1.04-2.03-2.47-3.4-4.28-4.11c-1.81-0.71-4.5-1.06-8.06-1.06H101.15z"/>
		<path class="st2" d="M164.72,176.08c0,5.48,0.93,9.59,2.79,12.34c1.87,2.75,4.66,4.13,8.39,4.13c3.96,0,7.61-2.01,10.93-6.04
			l4.68,2.82c-1.91,2.75-4.66,5.03-8.24,6.83c-3.58,1.79-7.53,2.69-11.86,2.69c-6.65,0-12.34-2.02-17.08-6.07s-7.1-9.51-7.1-16.4
			c0-6.88,2.29-12.29,6.88-16.22c4.59-3.93,10.1-5.89,16.55-5.89c6.48,0,11.8,1.81,15.94,5.42c4.15,3.61,6.22,9.08,6.22,16.39
			H164.72z M164.66,170.99h12.74c-0.2-7.42-2.37-11.13-6.5-11.13c-2.08,0-3.64,0.93-4.68,2.77
			C165.18,164.48,164.66,167.27,164.66,170.99z"/>
		<path class="st2" d="M218.46,176.08c0,5.48,0.93,9.59,2.79,12.34c1.87,2.75,4.66,4.13,8.39,4.13c3.96,0,7.61-2.01,10.93-6.04
			l4.68,2.82c-1.91,2.75-4.66,5.03-8.24,6.83c-3.58,1.79-7.53,2.69-11.86,2.69c-6.65,0-12.34-2.02-17.08-6.07
			c-4.73-4.05-7.1-9.51-7.1-16.4c0-6.88,2.29-12.29,6.88-16.22c4.59-3.93,10.1-5.89,16.55-5.89c6.48,0,11.8,1.81,15.94,5.42
			c4.15,3.61,6.22,9.08,6.22,16.39H218.46z M218.41,170.99h12.74c-0.2-7.42-2.37-11.13-6.5-11.13c-2.08,0-3.64,0.93-4.68,2.77
			C218.93,164.48,218.41,167.27,218.41,170.99z"/>
		<path class="st2" d="M274.88,127.67v57.47c0,2.59,0.4,4.35,1.21,5.29c0.81,0.94,2.74,1.41,5.79,1.41v5.34H251.2v-5.34
			c2.69,0,4.59-0.32,5.69-0.96c1.11-0.64,1.66-2.55,1.66-5.74v-41.76c0-2.65-0.43-4.42-1.29-5.31c-0.85-0.89-2.88-1.33-6.07-1.33
			v-5.39L274.88,127.67z"/>
		<path class="st2" d="M315.07,192.8c-2.45,1.78-5.01,3.11-7.68,4.01c-2.67,0.89-5.46,1.33-8.39,1.33c-3.86,0-6.76-0.87-8.69-2.62
			s-2.89-3.91-2.89-6.5c0-3.66,1.93-6.9,5.79-9.72s10.85-5.94,20.95-9.37v-3.73c0-2.65-0.64-4.36-1.91-5.11
			c-1.28-0.76-2.79-1.14-4.53-1.14c-4.23,0-6.58,1.55-7.05,4.63c-0.33,2.12-1.01,3.65-2.01,4.61c-1.01,0.96-2.57,1.43-4.69,1.43
			c-1.91,0-3.43-0.51-4.56-1.54c-1.12-1.02-1.69-2.22-1.69-3.6c0-3.12,2.07-5.78,6.2-7.96c4.13-2.18,9.65-3.27,16.57-3.27
			c3.86,0,7.1,0.23,9.7,0.71c2.6,0.47,4.7,1.34,6.3,2.62c1.6,1.28,2.65,2.62,3.17,4.03c0.52,1.41,0.78,3.32,0.78,5.74v19.14
			c0,2.89,0.87,4.33,2.62,4.33c1.51,0,2.47-0.94,2.87-2.82h4.18c-0.1,3.46-1.37,6.01-3.8,7.66c-2.44,1.64-5.35,2.47-8.74,2.47
			C321.39,198.14,317.22,196.36,315.07,192.8z M314.17,187.36v-11.79c-4.67,1.95-7.72,3.71-9.14,5.29
			c-1.43,1.58-2.14,3.21-2.14,4.88c0,1.28,0.42,2.43,1.26,3.45c0.84,1.02,1.95,1.54,3.32,1.54c1.21,0,2.37-0.29,3.48-0.86
			C312.05,189.31,313.13,188.47,314.17,187.36z"/>
		<path class="st2" d="M348.12,147.42l7.25-16.17h20.45l-23.32,16.17H348.12z"/>
		<path class="st2" d="M379.95,198.85l-0.35-13.7h4.94c2.62,5.68,7.42,8.51,14.41,8.51c2.92,0,5.34-0.5,7.25-1.51
			c1.91-1.01,2.87-2.15,2.87-3.43c0-1.11-0.52-1.97-1.56-2.57c-1.08-0.57-3.47-1.24-7.2-2.01c-5.78-1.17-10.04-2.29-12.79-3.35
			c-2.76-1.06-4.97-2.69-6.65-4.88c-1.68-2.2-2.52-4.71-2.52-7.53c0-4.2,1.72-7.6,5.14-10.2c3.43-2.6,8.01-3.9,13.75-3.9
			c4.43,0,8.95,0.87,13.55,2.62c0.81-0.77,1.45-1.64,1.92-2.62h4.18l0.45,12.49h-4.03c-2.59-5.14-7.74-7.71-15.47-7.71
			c-2.52,0-4.59,0.41-6.2,1.24c-1.61,0.82-2.42,1.87-2.42,3.15c0,1.34,0.66,2.33,1.97,2.97c1.28,0.64,4.4,1.45,9.37,2.42
			c5.17,1.04,9.06,2.1,11.66,3.17c2.6,1.08,4.65,2.64,6.15,4.71c1.49,2.06,2.24,4.46,2.24,7.18c0,4.4-1.95,7.99-5.84,10.78
			c-3.9,2.79-8.71,4.18-14.46,4.18c-4.4,0-9-0.94-13.8-2.82c-0.91,0.67-1.58,1.61-2.01,2.82H379.95z"/>
	</g>
	<g>
		<g>
			<path class="st3" d="M175.23,245.03v21.51c0,3.59,0.23,5.97,0.71,7.13c0.47,1.16,1.44,1.74,2.92,1.74c2.22,0,4-1.38,5.34-4.13
				l4.94,1.66c-2.55,6.38-8.01,9.57-16.37,9.57c-4.6,0-8.06-1.12-10.38-3.35c-2.32-2.23-3.48-5.58-3.48-10.05v-24.08h-5.99v-5.44
				l1.26,0.05c4.06,0,7.54-1.29,10.43-3.88c2.89-2.58,4.63-5.88,5.24-9.87h5.39v13.7h12.39v5.44H175.23z"/>
			<path class="st3" d="M221.16,276.46c-2.45,1.78-5.01,3.11-7.68,4.01c-2.67,0.89-5.47,1.33-8.39,1.33c-3.86,0-6.76-0.87-8.69-2.62
				c-1.93-1.75-2.9-3.91-2.9-6.5c0-3.66,1.93-6.9,5.79-9.72c3.86-2.82,10.85-5.94,20.95-9.37v-3.73c0-2.65-0.64-4.36-1.91-5.11
				c-1.28-0.76-2.79-1.14-4.53-1.14c-4.23,0-6.58,1.55-7.05,4.63c-0.34,2.12-1.01,3.65-2.01,4.61c-1.01,0.96-2.57,1.43-4.68,1.43
				c-1.91,0-3.43-0.51-4.56-1.54c-1.12-1.02-1.69-2.22-1.69-3.6c0-3.12,2.07-5.78,6.2-7.96c4.13-2.18,9.65-3.27,16.57-3.27
				c3.86,0,7.09,0.23,9.7,0.71c2.6,0.47,4.7,1.34,6.3,2.62c1.6,1.28,2.65,2.62,3.17,4.03c0.52,1.41,0.78,3.32,0.78,5.74v19.14
				c0,2.89,0.87,4.33,2.62,4.33c1.51,0,2.47-0.94,2.87-2.82h4.18c-0.1,3.46-1.37,6.01-3.8,7.66c-2.44,1.64-5.35,2.47-8.74,2.47
				C227.48,281.8,223.31,280.02,221.16,276.46z M220.26,271.02v-11.79c-4.67,1.95-7.71,3.71-9.14,5.29
				c-1.43,1.58-2.14,3.21-2.14,4.88c0,1.28,0.42,2.43,1.26,3.45c0.84,1.02,1.95,1.54,3.32,1.54c1.21,0,2.37-0.29,3.48-0.86
				C218.14,272.97,219.22,272.13,220.26,271.02z"/>
			<path class="st3" d="M271.24,211.33v57.47c0,2.59,0.4,4.35,1.21,5.29s2.74,1.41,5.79,1.41v5.34h-30.67v-5.34
				c2.68,0,4.58-0.32,5.69-0.96c1.11-0.64,1.66-2.55,1.66-5.74v-41.76c0-2.65-0.43-4.42-1.29-5.31c-0.85-0.89-2.88-1.33-6.07-1.33
				v-5.39L271.24,211.33z"/>
			<path class="st3" d="M303.67,264.42v4.38c0,2.39,0.35,4.07,1.06,5.06c0.71,0.99,2.18,1.54,4.43,1.64v5.34h-28.71v-5.34
				c2.92,0,4.81-0.45,5.67-1.36c0.85-0.91,1.28-2.68,1.28-5.34v-41.86c0-2.55-0.4-4.31-1.21-5.26c-0.81-0.96-2.72-1.44-5.74-1.44
				v-5.34l23.22-3.58v46.44l10.73-7.71c2.05-1.51,3.07-2.67,3.07-3.47c0-0.47-0.19-0.87-0.58-1.18c-0.39-0.32-1.59-0.48-3.6-0.48
				v-5.34h22.97v5.34c-3.73,0-7.93,1.68-12.59,5.04l-3.93,2.77l10.48,14.05c2.52,3.39,4.44,5.69,5.77,6.9
				c1.33,1.21,2.63,1.81,3.9,1.81v5.34h-26.6v-5.34c2.15,0,3.22-0.62,3.22-1.87c0-0.5-0.57-1.53-1.71-3.07l-6.85-9.22L303.67,264.42
				z"/>
		</g>
	</g>
	<circle class="st0" cx="88.47" cy="332.58" r="46.97"/>
	<circle class="st0" cx="88.47" cy="332.58" r="39.06"/>
	<path class="st4" d="M119.63,332.58c0,17.21-13.95,31.16-31.16,31.16s-31.16-13.95-31.16-31.16c0-17.21,13.95-31.16,31.16-31.16
		S119.63,315.37,119.63,332.58z M107.2,329.3c2.95,0.97,3.84-1.6,3.84-1.6c0.74-2.81-1.12-3.68-1.12-3.68
		c-10.46-5.88-20.8-5.99-20.8-5.99c-9.75-1.41-20.34,1.62-20.34,1.62c-2.37,1.3-1.87,3.8-1.87,3.8c1.55,3.25,3.75,1.95,3.75,1.95
		C91.6,319.99,107.2,329.3,107.2,329.3z M103.58,338.98c2.8,1,3.27-1.86,3.27-1.86c0.47-2.01-1.27-2.94-1.27-2.94
		c-8.95-5.03-17.5-5.34-17.5-5.34c-8.35-1.21-17.41,1.39-17.41,1.39c-2.27,0.8-1.6,3.25-1.6,3.25c0.45,2.25,3.21,1.67,3.21,1.67
		C90.44,330.11,103.58,338.98,103.58,338.98z M100.02,347.19c2.43,0.87,2.88-1.23,2.88-1.23c0.41-1.74-1.1-2.55-1.1-2.55
		c-7.76-4.36-15.17-4.63-15.17-4.63c-7.92-0.63-14.92,1.41-14.92,1.41c-1.97,0.69-1.34,2.58-1.34,2.58c0.39,1.95,3,1.36,3,1.36
		C89.12,339.76,100.02,347.19,100.02,347.19z"/>
	<g>
		<g>
			<path class="st0" d="M392.43,297.87c-1.75,0-3.47-0.28-5.12-0.85c-5.33-1.82-9.77-6.14-11.88-11.56
				c-2.05-5.27-1.74-11,0.84-15.72c3.43-6.09,7.32-11.19,11.07-16.11c1.16-1.53,2.59-2.81,4.23-3.75c2.07-1.19,4.45-1.82,6.88-1.82
				c1.39,0,2.8,0.2,4.19,0.61c6.08,1.77,11.51,5.55,15.28,10.65c2.26,3.05,3.6,6.27,4,9.58c0.48,3.95-0.34,7.89-2.43,11.71
				c-0.28,0.5-0.56,0.98-0.86,1.44c-2.75,4.31-6.54,7.52-10.96,9.27c-0.9,0.36-1.82,0.65-2.76,0.87
				C401.72,295.78,397.2,297.87,392.43,297.87z"/>
			<path class="st0" d="M412.57,276.81c-0.18,0.33-0.37,0.65-0.57,0.96c-1.86,2.92-4.36,5.06-7.21,6.19
				c-1.39,0.55-2.86,0.84-4.31,0.87c-0.03,0.06-0.06,0.11-0.09,0.17c-0.15,0.27-0.31,0.54-0.49,0.8c-2.29,3.43-6.41,4.97-10.03,3.73
				c-3.15-1.07-5.79-3.67-7.06-6.95c-1.2-3.08-1.05-6.39,0.41-9.06c3.11-5.52,6.83-10.4,10.42-15.11c0.22-0.29,0.82-1.08,1.88-1.69
				c1.01-0.58,2.69-1.14,4.93-0.48c4.44,1.29,8.39,4.05,11.14,7.76c1.45,1.96,2.27,3.86,2.5,5.82
				C414.36,272.13,413.85,274.47,412.57,276.81C412.57,276.81,412.57,276.81,412.57,276.81z"/>
			<g>
				<path class="st0" d="M391.58,284.52c1.44,0.49,3.06-0.39,3.9-1.65c0.84-1.26,1.08-2.82,1.28-4.33c1.74,1.19,4.1,1.27,6.07,0.5
					c1.96-0.78,3.56-2.33,4.69-4.11c0.85-1.33,1.48-2.88,1.29-4.45c-0.15-1.21-0.77-2.32-1.5-3.3c-2.06-2.78-5.04-4.86-8.36-5.83
					c-0.26-0.08-0.57-0.14-0.8-0.01c-0.12,0.07-0.21,0.19-0.3,0.3c-3.54,4.64-7.1,9.3-9.96,14.39
					C386.24,278.96,388.23,283.38,391.58,284.52z"/>
				<path d="M391.59,284.47c3.46,0.85,4.81-3.22,4.86-5.98c0,0,0.04-0.48,0.04-0.48c3.26,2.32,7.7,0.74,10.03-2.21
					c1.56-1.82,2.84-4.38,1.75-6.74c-1.79-3.62-5.44-6.16-9.25-7.27c-0.75-0.23-0.64-0.12-1.1,0.48c0,0-0.57,0.76-0.57,0.76
					c-2.96,4-6.02,8.15-8.63,12.37C386.32,278.39,388,283.2,391.59,284.47L391.59,284.47z M391.56,284.56
					c-3.7-1.28-5.9-6.19-3.53-9.57c2.39-4.39,5.55-8.55,8.63-12.5c0.18-0.22,0.7-0.9,0.87-1.12c0.64-0.95,1.86-0.29,2.63-0.01
					c4.03,1.62,10.05,6.53,8.6,11.39c-1.33,4.92-7.36,9.41-12.18,6.04c0,0,0.48-0.22,0.48-0.22
					C396.79,281.38,395.06,285.48,391.56,284.56L391.56,284.56z"/>
			</g>
			<path class="st0" d="M397.36,268.54c-3.89,0-7.75-0.99-11.17-2.86c-11.29-6.18-15.45-20.38-9.28-31.67
				c4.1-7.49,11.95-12.14,20.5-12.14c3.89,0,7.75,0.99,11.17,2.86c5.46,2.99,9.44,7.93,11.19,13.92c1.75,5.99,1.07,12.29-1.92,17.76
				C413.77,263.89,405.91,268.54,397.36,268.54z"/>
			<path class="st0" d="M410.93,252.61c-4.08,7.47-13.48,10.22-20.95,6.14c-7.47-4.08-10.22-13.48-6.13-20.95
				c4.08-7.47,13.48-10.22,20.95-6.14C412.26,235.75,415.01,245.15,410.93,252.61z"/>
			<g>
				<circle class="st5" cx="397.39" cy="245.21" r="10.12"/>
				<path class="st1" d="M402.27,236.29c8.28,4.49,7.17,16.22-1.99,18.79c-5.29,1.58-11.49-1.46-13.03-6.9
					C384.52,239.08,394.09,231.69,402.27,236.29L402.27,236.29z M402.22,236.37c-7.46-4.09-16.51,3.54-14.13,11.56
					c2.34,8.46,13.82,9.93,17.83,1.95C408.38,245.31,406.99,238.89,402.22,236.37L402.22,236.37z"/>
			</g>
			<path class="st0" d="M374.87,286.04c-4.47,0-8.78-1.48-12.15-4.16c-5.15-4.1-7.21-11-5.43-17.44c-0.32-0.91-0.57-1.84-0.76-2.79
				c-0.91-4.66-0.26-9.59,1.9-14.25c0.22-0.48,0.47-0.98,0.74-1.47c2.09-3.82,4.96-6.63,8.54-8.37c2.56-1.24,5.44-1.87,8.55-1.87
				c0.55,0,1.11,0.02,1.68,0.06c6.32,0.43,12.43,2.95,17.21,7.12c3,2.62,4.76,6.16,4.95,9.97c0.15,2.76-0.61,4.85-0.85,5.53
				c-2.13,5.86-4.33,11.89-7.51,17.88c-0.04,0.07-0.14,0.25-0.18,0.32c-2.51,4.59-7.17,7.95-12.71,9.06
				C377.55,285.91,376.21,286.04,374.87,286.04z"/>
			<path class="st0" d="M384.71,272.66c-1.46,2.67-4.16,4.58-7.41,5.23c-3.45,0.7-7.06-0.13-9.66-2.2
				c-2.99-2.38-3.93-6.68-2.27-10.46c0.13-0.29,0.26-0.57,0.41-0.84c0.03-0.06,0.06-0.11,0.1-0.17c-0.76-1.24-1.3-2.63-1.59-4.09
				c-0.59-3.01-0.14-6.27,1.32-9.41c0.16-0.34,0.32-0.67,0.5-1c1.28-2.34,2.98-4.04,5.05-5.04c1.78-0.86,3.83-1.2,6.26-1.04
				c4.61,0.31,9.06,2.15,12.55,5.19c1.76,1.53,2.2,3.25,2.25,4.42c0.06,1.18-0.27,2.11-0.39,2.45c-2.04,5.6-4.14,11.36-7.05,16.86
				C384.75,272.57,384.72,272.64,384.71,272.66z"/>
			<g>
				<path class="st0" d="M370.94,271.54c-1.19-0.95-1.32-2.78-0.71-4.18c0.61-1.39,1.79-2.44,2.96-3.42
					c-1.94-0.83-3.29-2.77-3.69-4.84c-0.41-2.07,0.04-4.25,0.93-6.17c0.66-1.43,1.63-2.8,3.05-3.49c1.1-0.53,2.37-0.6,3.59-0.52
					c3.45,0.23,6.81,1.62,9.41,3.89c0.21,0.18,0.43,0.4,0.44,0.67c0.01,0.14-0.04,0.28-0.09,0.41c-2,5.49-4,10.99-6.74,16.15
					C378.5,273.03,373.71,273.74,370.94,271.54z"/>
				<path d="M370.92,271.58c-2.65-2.43-0.15-6.13,2.07-7.87c0,0,0.08,0.52,0.08,0.52c-5.44-2.23-4.91-9.73-1.48-13.51
					c3.31-3.84,10.69-1.42,14.23,1.09c0.65,0.5,1.87,1.16,1.41,2.22c-0.1,0.27-0.37,1.06-0.47,1.34c-1.66,4.72-3.46,9.62-5.87,14.01
					C379.31,273.2,373.99,274,370.92,271.58L370.92,271.58z M370.97,271.5c2.46,1.91,6.43,1.5,8.32-0.9
					c1.01-1.54,1.63-3.35,2.44-5.01c1.48-3.31,2.88-7.11,4.2-10.51c0.09-0.31,0.56-1.38,0.57-1.57c-0.11-0.31-0.81-0.82-1.13-1.09
					c-2.89-2.24-6.7-3.7-10.4-3.27c-3.83,0.66-5.28,5.3-5.21,8.71c0.11,2.38,1.4,4.75,3.56,5.81l0.46,0.23
					c-1.3,1.01-2.69,2.03-3.42,3.52C369.71,268.7,369.78,270.54,370.97,271.5L370.97,271.5z"/>
			</g>
			<path class="st0" d="M382.28,295.4c-3.17,0-6.14-0.75-8.85-2.23c-15.26-8.35-10.49-31.73-5.93-40.08
				c4.29-7.84,12.51-12.71,21.46-12.71c4.07,0,8.11,1.03,11.69,2.99c11.82,6.46,16.17,21.34,9.71,33.16
				C407.14,282.44,395.58,295.4,382.28,295.4z"/>
			<path class="st0" d="M403.44,272.74c-3.5,6.41-16.65,18.72-26.21,13.49c-9.57-5.23-6.29-22.94-2.78-29.35
				c4.37-7.99,14.43-10.94,22.43-6.57C404.86,254.69,407.81,264.75,403.44,272.74z"/>
			<g>
				<path class="st5" d="M394.32,254.97c5.43,2.97,7.43,9.79,4.46,15.22c-2.97,5.43-13.57,14.35-19.01,11.38s-3.64-16.71-0.67-22.15
					C382.07,254,388.88,252,394.32,254.97z"/>
				<path class="st1" d="M394.34,254.93c4.63,2.45,7.35,8.3,5.66,13.42c-1.77,5.01-6.25,8.47-10.48,11.33
					c-4.65,3.01-10.99,4.75-12.97-2.13c-1.63-6.05-0.5-15.15,3.41-20.17C383.39,253.25,389.74,252.3,394.34,254.93L394.34,254.93z
					 M394.3,255.01c-4.57-2.52-10.53-1.11-13.65,2.94c-1.03,1.32-1.75,2.82-2.27,4.41c-1.47,4.78-2.29,10.06-1.11,14.98
					c1.57,6.56,7.78,4.99,12.08,2.06c4.11-2.86,8.04-6.58,9.89-11.3C400.9,263.29,398.91,257.47,394.3,255.01L394.3,255.01z"/>
			</g>
			<path class="st0" d="M401.29,240.29c-1.64,3-5.42,4.11-8.42,2.47s-4.11-5.42-2.47-8.42c1.64-3,5.42-4.11,8.42-2.47
				C401.82,233.51,402.93,237.29,401.29,240.29z"/>
			<circle class="st6" cx="395.84" cy="237.31" r="0.89"/>
			<path class="st0" d="M410.31,245.23c-1.64,3-5.42,4.11-8.42,2.47s-4.11-5.42-2.47-8.42c1.64-3,5.42-4.11,8.42-2.47
				S411.95,242.22,410.31,245.23z"/>
			<circle class="st6" cx="404.87" cy="242.25" r="0.89"/>
			<path class="st0" d="M393.16,249.4c-1.64,0-3.25-0.3-4.78-0.9c-6.58-2.56-9.95-9.83-7.77-16.45c-2.87-2.96-4.57-7.03-4.44-11.29
				c0.23-7.02,5.36-13.19,12.22-14.68c1.09-0.24,2.21-0.36,3.33-0.36c5.43,0,9.22,2.75,10.46,3.66c5.03,3.64,7.77,9.85,7.32,16.6
				c-0.37,5.63-2.26,10.46-3.77,14.33l-0.26,0.66c-0.21,0.54-0.45,1.06-0.73,1.56C402.44,246.76,398,249.4,393.16,249.4z"/>
			<path class="st0" d="M397.82,238.74c-1.26,2.3-4.07,3.37-6.58,2.4c-2.73-1.06-4.09-4.14-3.03-6.87l0.26-0.68
				c0.65-1.67,1.29-3.3,1.76-4.87c-0.21-0.04-0.43-0.09-0.64-0.15c-3.31-0.94-5.64-4.12-5.53-7.56c0.11-3.44,2.63-6.47,5.99-7.2
				c3.66-0.8,6.53,1.29,7.47,1.97c1.35,0.98,4.47,3.89,4.08,9.68c-0.29,4.41-1.86,8.44-3.25,11.99l-0.26,0.66
				C398.03,238.32,397.93,238.53,397.82,238.74z M390.97,224.03L390.97,224.03L390.97,224.03z M389.07,219.74
				C389.07,219.74,389.07,219.73,389.07,219.74C389.07,219.73,389.07,219.73,389.07,219.74z"/>
			<g>
				<path class="st6" d="M393.14,236.17c1.04-4.42,5.43-11.97,1.45-15.66c-1.22-1.01-3.35-2.03-4.52-0.44
					c-0.71,0.87-0.47,2.25,0.48,2.91c0.89,0.7,2.4,0.42,3.09-0.6l0.05,0.03c-1.72,3.03-6.09,0.19-4.09-2.68
					c1.34-1.91,3.92-0.88,5.29,0.46C398.38,223.92,395.2,232.35,393.14,236.17L393.14,236.17z"/>
			</g>
			<path class="st0" d="M407.48,257.91c-2.82,0-5.51-0.88-7.79-2.54c-2.85-2.08-4.72-5.14-5.27-8.62c-0.55-3.49,0.3-6.99,2.39-9.84
				l0.41-0.56c2.45-3.37,5.49-7.55,10.04-10.91c3.52-2.6,7.51-3.97,11.55-3.97c2.77,0,5,0.64,6.38,1.18
				c6.35,2.48,9.06,6.72,10.22,9.83c1.56,4.2,1.21,8.9-0.96,12.87c-1.16,2.12-2.82,3.96-4.8,5.32c-2.58,1.77-5.61,2.7-8.76,2.7
				c-1.07,0-2.13-0.11-3.17-0.32C415.23,256.11,411.45,257.91,407.48,257.91z"/>
			<path class="st0" d="M427.51,241.57c-0.56,1.02-1.35,1.92-2.33,2.6c-2.84,1.95-6.77,1.71-9.34-0.57
				c-0.17-0.15-0.32-0.3-0.47-0.46c-1.07,1.25-2.1,2.66-3.15,4.11l-0.43,0.59c-1.73,2.37-5.05,2.89-7.42,1.16
				c-2.37-1.73-2.9-5.04-1.16-7.42l0.42-0.57c2.24-3.08,4.78-6.57,8.34-9.2c4.66-3.44,8.8-2.4,10.36-1.79
				c1.08,0.42,4.38,1.71,5.69,5.23C428.78,237.34,428.55,239.66,427.51,241.57z M423.54,239.27
				C423.54,239.28,423.54,239.28,423.54,239.27C423.54,239.28,423.54,239.28,423.54,239.27z M418.9,239.99l0.01-0.02L418.9,239.99z"
				/>
			<g>
				<path class="st6" d="M407.46,244.68c2.38-3.85,7.39-10.95,12.56-10.07c1.86,0.43,4.12,2.04,3.24,4.2
					c-1.34,3.24-6.09,1.09-4.46-1.99c0,0,0.05,0.03,0.05,0.03c-0.49,1.14,0.09,2.56,1.16,2.93c1.07,0.44,2.36-0.1,2.71-1.17
					c0.7-1.84-1.3-3.09-2.81-3.57C414.52,233.68,410.72,241.61,407.46,244.68L407.46,244.68z"/>
			</g>
			<path class="st0" d="M386.18,294.27c-2.21,0-4.41-0.56-6.34-1.62l-9.64-5.27c-3.92-2.15-6.47-6.08-6.83-10.53l-0.26-3.28
				c-0.21-2.57,0.34-5.13,1.58-7.4c1.05-1.92,2.57-3.56,4.41-4.75c2.14-1.39,4.63-2.12,7.18-2.12c2.21,0,4.4,0.56,6.34,1.62
				l13.03,7.12c4.41,2.41,7.04,7.03,6.86,12.06c-0.07,2.04-0.63,4.07-1.61,5.87c-1.38,2.51-3.48,4.47-6.07,5.67l-3.11,1.43
				C389.96,293.87,388.1,294.27,386.18,294.27z"/>
			<path class="st0" d="M393.95,282.18c-0.54,0.98-1.38,1.79-2.44,2.28l-3.11,1.43c-1.53,0.7-3.29,0.64-4.76-0.17l-9.65-5.28
				c-1.57-0.86-2.6-2.45-2.75-4.23l-0.26-3.28c-0.08-1.05,0.15-2.08,0.63-2.97c0.42-0.76,1.02-1.42,1.77-1.91
				c1.64-1.06,3.72-1.14,5.44-0.2l13.02,7.12c1.76,0.96,2.83,2.84,2.76,4.84C394.57,280.66,394.34,281.46,393.95,282.18z"/>
			<polygon class="st6" points="389.29,279.63 386.18,281.06 376.53,275.78 376.27,272.51 			"/>
			<path class="st0" d="M398.55,278.96c-0.38,0.7-0.93,1.32-1.61,1.8l-2.51,1.76c-1.62,1.14-3.74,1.28-5.49,0.37l-15.06-7.79
				c-1.85-0.96-2.97-2.9-2.86-4.98l0.17-3.48c0.04-0.81,0.27-1.59,0.64-2.28c0.47-0.86,1.18-1.59,2.07-2.09
				c1.59-0.89,3.54-0.9,5.14-0.03l17.39,9.51c1.61,0.88,2.65,2.53,2.75,4.36C399.25,277.12,399.02,278.1,398.55,278.96z"/>
			<polygon class="st6" points="393.89,276.41 391.39,278.17 376.33,270.38 376.51,266.9 			"/>
			<path class="st0" d="M395.75,287.43c-2.01,0-4.03-0.47-5.83-1.36l-18.64-9.17c-5.57-2.74-8.45-8.87-7.02-14.9l0.84-3.53
				c0.28-1.17,0.71-2.28,1.27-3.31c1.35-2.46,3.51-4.48,6.07-5.65c1.74-0.8,3.6-1.2,5.51-1.2c2.1,0,4.2,0.51,6.06,1.47l19.76,10.21
				c3.52,1.82,6.01,5.08,6.85,8.94c0.67,3.1,0.21,6.34-1.32,9.14c-0.35,0.64-0.76,1.26-1.22,1.84l-1.96,2.49
				C403.61,285.6,399.83,287.43,395.75,287.43z"/>
			<path class="st0" d="M402.38,274.27c-0.14,0.26-0.3,0.5-0.49,0.74l-1.97,2.5c-1.55,1.97-4.27,2.59-6.52,1.48l-18.63-9.17
				c-2.22-1.09-3.39-3.58-2.82-5.99l0.84-3.53c0.11-0.47,0.28-0.91,0.51-1.32c0.54-0.99,1.39-1.8,2.44-2.28
				c1.48-0.68,3.2-0.64,4.65,0.11L400.16,267c1.41,0.73,2.42,2.04,2.75,3.59C403.18,271.85,402.99,273.16,402.38,274.27z"/>
			<polygon class="st6" points="397.72,271.72 395.75,274.22 377.12,265.05 377.96,261.52 			"/>
		</g>
		<g>
			<g>
				<path class="st0" d="M391.58,284.62c1.44,0.49,3.06-0.39,3.9-1.65c0.84-1.26,1.08-2.82,1.28-4.33c1.74,1.19,4.1,1.27,6.07,0.5
					c1.96-0.78,3.56-2.33,4.69-4.11c0.85-1.33,1.48-2.88,1.29-4.45c-0.15-1.21-0.77-2.32-1.5-3.3c-2.06-2.78-5.04-4.86-8.36-5.83
					c-0.26-0.08-0.57-0.14-0.8-0.01c-0.12,0.07-0.21,0.19-0.3,0.3c-3.54,4.64-7.1,9.3-9.96,14.39
					C386.24,279.07,388.23,283.48,391.58,284.62z"/>
				<path d="M391.59,284.58c3.46,0.85,4.81-3.23,4.86-5.98c0,0,0.04-0.48,0.04-0.48c3.26,2.32,7.7,0.74,10.03-2.21
					c1.56-1.82,2.84-4.38,1.75-6.74c-1.79-3.62-5.44-6.16-9.25-7.27c-0.75-0.23-0.64-0.12-1.1,0.48c0,0-0.57,0.76-0.57,0.76
					c-2.96,4-6.02,8.15-8.63,12.37C386.32,278.5,388,283.3,391.59,284.58L391.59,284.58z M391.56,284.66
					c-3.7-1.28-5.9-6.19-3.53-9.57c2.39-4.39,5.55-8.55,8.63-12.5c0.18-0.22,0.7-0.9,0.87-1.12c0.64-0.95,1.86-0.29,2.63-0.01
					c4.03,1.62,10.05,6.53,8.6,11.39c-1.33,4.92-7.36,9.41-12.18,6.04c0,0,0.48-0.22,0.48-0.22
					C396.78,281.48,395.06,285.58,391.56,284.66L391.56,284.66z"/>
			</g>
			<g>
				<circle class="st5" cx="397.39" cy="245.31" r="10.12"/>
				<path class="st1" d="M402.27,236.39c8.28,4.49,7.17,16.22-1.99,18.79c-5.29,1.58-11.49-1.46-13.03-6.9
					C384.52,239.19,394.09,231.79,402.27,236.39L402.27,236.39z M402.22,236.47c-7.45-4.09-16.51,3.54-14.13,11.56
					c2.34,8.46,13.82,9.93,17.83,1.95C408.38,245.42,406.98,238.99,402.22,236.47L402.22,236.47z"/>
			</g>
			<g>
				<path class="st0" d="M370.94,271.64c-1.19-0.95-1.32-2.78-0.71-4.18s1.79-2.44,2.96-3.42c-1.94-0.83-3.29-2.77-3.69-4.84
					c-0.41-2.07,0.04-4.25,0.93-6.17c0.66-1.43,1.63-2.8,3.05-3.49c1.1-0.53,2.37-0.6,3.59-0.52c3.45,0.23,6.81,1.62,9.41,3.89
					c0.21,0.18,0.43,0.4,0.44,0.67c0.01,0.14-0.04,0.28-0.09,0.41c-2,5.49-4,10.99-6.74,16.15
					C378.49,273.14,373.71,273.85,370.94,271.64z"/>
				<path d="M370.91,271.68c-2.65-2.43-0.15-6.13,2.07-7.87c0,0,0.08,0.52,0.08,0.52c-5.44-2.23-4.91-9.73-1.48-13.51
					c3.31-3.84,10.69-1.42,14.23,1.09c0.65,0.5,1.87,1.16,1.41,2.22c-0.1,0.27-0.37,1.06-0.47,1.34c-1.66,4.72-3.46,9.62-5.87,14.01
					C379.31,273.31,373.99,274.1,370.91,271.68L370.91,271.68z M370.97,271.61c2.46,1.91,6.43,1.5,8.32-0.9
					c1.01-1.54,1.63-3.35,2.44-5.01c1.48-3.31,2.88-7.11,4.2-10.51c0.09-0.31,0.56-1.38,0.57-1.57c-0.11-0.31-0.81-0.82-1.13-1.09
					c-2.89-2.24-6.7-3.7-10.4-3.27c-3.83,0.66-5.28,5.3-5.21,8.71c0.11,2.38,1.4,4.75,3.56,5.81l0.46,0.23
					c-1.3,1.01-2.69,2.03-3.42,3.52C369.71,268.81,369.78,270.64,370.97,271.61L370.97,271.61z"/>
			</g>
			<g>
				<path class="st5" d="M394.32,255.08c5.43,2.97,7.43,9.79,4.46,15.22s-13.57,14.35-19.01,11.38s-3.64-16.71-0.67-22.15
					S388.88,252.1,394.32,255.08z"/>
				<path class="st1" d="M394.34,255.03c4.63,2.45,7.35,8.3,5.66,13.42c-1.77,5.01-6.25,8.47-10.48,11.33
					c-4.65,3.01-10.99,4.75-12.97-2.13c-1.63-6.05-0.5-15.15,3.41-20.17C383.39,253.35,389.73,252.41,394.34,255.03L394.34,255.03z
					 M394.29,255.12c-4.57-2.52-10.53-1.11-13.65,2.94c-1.03,1.32-1.75,2.82-2.27,4.41c-1.47,4.78-2.29,10.06-1.11,14.98
					c1.57,6.56,7.78,4.99,12.08,2.06c4.11-2.86,8.04-6.58,9.89-11.3C400.9,263.39,398.91,257.58,394.29,255.12L394.29,255.12z"/>
			</g>
			<circle class="st6" cx="395.84" cy="237.42" r="0.89"/>
			<circle class="st6" cx="404.87" cy="242.35" r="0.89"/>
			<g>
				<path class="st6" d="M393.14,236.28c1.04-4.42,5.43-11.97,1.45-15.66c-1.22-1.01-3.35-2.03-4.52-0.44
					c-0.71,0.87-0.47,2.25,0.48,2.91c0.89,0.7,2.4,0.42,3.09-0.6l0.05,0.03c-1.72,3.03-6.09,0.19-4.09-2.68
					c1.34-1.91,3.92-0.88,5.29,0.46C398.38,224.02,395.2,232.45,393.14,236.28L393.14,236.28z"/>
			</g>
			<g>
				<path class="st6" d="M407.46,244.79c2.38-3.85,7.39-10.95,12.56-10.07c1.86,0.43,4.12,2.04,3.24,4.2
					c-1.34,3.24-6.09,1.09-4.46-1.99c0,0,0.05,0.03,0.05,0.03c-0.49,1.14,0.09,2.56,1.16,2.93c1.07,0.44,2.36-0.1,2.71-1.17
					c0.7-1.84-1.3-3.09-2.81-3.57C414.52,233.78,410.72,241.71,407.46,244.79L407.46,244.79z"/>
			</g>
			<polygon class="st6" points="389.29,279.73 386.18,281.16 376.53,275.89 376.27,272.61 			"/>
			<polygon class="st6" points="393.89,276.52 391.39,278.28 376.33,270.49 376.5,267.01 			"/>
			<polygon class="st6" points="397.72,271.83 395.75,274.32 377.12,265.15 377.95,261.62 			"/>
		</g>
	</g>
</g>
</svg>
