<svg width="131" height="113" viewBox="0 0 131 113" fill="none" xmlns="http://www.w3.org/2000/svg">
<style>
		path {
			fill: #3a4a92;
            stroke: #3a4a92;
		}
		@media ( prefers-color-scheme: dark ) {
			path {
				fill: #e6c619;
                stroke: #e6c619;
			}
		}
	</style>
<path fill-rule="evenodd" clip-rule="evenodd" d="M34.2042 2H96.6127L127.817 56.049L96.6127 110.098H34.2042L3 56.049L34.2042 2ZM35.3647 4.01004L5.32098 56.049L35.3648 108.088H95.4522L125.496 56.049L95.4522 4.01004H35.3647Z" fill="#37468A" stroke="#3A4A92" stroke-width="3" stroke-miterlimit="10"/>
<path fill-rule="evenodd" clip-rule="evenodd" d="M71.8968 29.5303L71.8182 24.4922L70.1099 24.5189L70.2152 31.2648L72.303 31.2328L72.3819 36.3347L74.0902 36.3083L73.985 29.4983L71.8968 29.5303Z" fill="#37468A" stroke="#3A4A92" stroke-miterlimit="10"/>
<path fill-rule="evenodd" clip-rule="evenodd" d="M70.9482 23.2154C70.828 23.2154 70.7305 23.3128 70.7305 23.4331C70.7305 23.5534 70.828 23.6508 70.9482 23.6508C71.0685 23.6508 71.166 23.5534 71.166 23.4331C71.166 23.3128 71.0685 23.2154 70.9482 23.2154ZM69.022 23.4331C69.022 22.3693 69.8844 21.5068 70.9482 21.5068C72.0121 21.5068 72.8745 22.3693 72.8745 23.4331C72.8745 24.4969 72.0121 25.3594 70.9482 25.3594C69.8844 25.3594 69.022 24.4969 69.022 23.4331Z" fill="#37468A" stroke="#3A4A92" stroke-width="2" stroke-miterlimit="10"/>
<path fill-rule="evenodd" clip-rule="evenodd" d="M61.3356 32.4347C62.685 31.7532 64.0618 31.3301 65.2723 31.3301C66.4828 31.3301 67.8596 31.7532 69.209 32.4347C70.5705 33.1222 71.9627 34.1021 73.2153 35.2867C75.6995 37.6359 77.7546 40.9109 77.7546 44.4483C77.7546 48.1414 76.1475 51.4612 73.6028 53.7442L73.3593 53.9626H57.1813L56.9378 53.7442C54.3926 51.4608 52.79 48.1407 52.79 44.4483C52.79 40.9109 54.8451 37.6359 57.3293 35.2867C58.5819 34.1021 59.9741 33.1222 61.3356 32.4347ZM58.5033 36.528C56.2015 38.7047 54.4986 41.5617 54.4986 44.4483C54.4986 47.5202 55.7815 50.2915 57.8425 52.2541H72.6981C74.7598 50.291 76.046 47.5196 76.046 44.4483C76.046 41.5617 74.3431 38.7047 72.0413 36.528C70.9009 35.4495 69.6431 34.568 68.4388 33.9597C67.2225 33.3455 66.1178 33.0386 65.2723 33.0386C64.4268 33.0386 63.3221 33.3455 62.1058 33.9597C60.9015 34.568 59.6437 35.4495 58.5033 36.528Z" fill="#37468A" stroke="#3A4A92" stroke-width="3" stroke-miterlimit="10"/>
<path fill-rule="evenodd" clip-rule="evenodd" d="M53.7174 55.1543H77.0996L77.3387 55.6152C79.2954 59.3876 80.4466 64.1045 80.4466 69.2086C80.4466 75.2684 78.8226 80.7936 76.1512 84.8291C73.4841 88.8581 69.7036 91.4868 65.4084 91.4868C61.1131 91.4868 57.3327 88.8581 54.6656 84.8291C51.9941 80.7936 50.3701 75.2684 50.3701 69.2086C50.3701 64.1047 51.5213 59.3836 53.4782 55.6149L53.7174 55.1543ZM54.7622 56.8628C53.0825 60.2916 52.0786 64.5628 52.0786 69.2086C52.0786 74.9807 53.6286 80.1675 56.0902 83.886C58.5561 87.611 61.8676 89.7783 65.4084 89.7783C68.9491 89.7783 72.2607 87.611 74.7266 83.886C77.1881 80.1675 78.7381 74.9807 78.7381 69.2086C78.7381 64.563 77.7343 60.2951 76.0543 56.8628H54.7622Z" fill="#37468A" stroke="#3A4A92" stroke-width="2" stroke-miterlimit="10"/>
<path fill-rule="evenodd" clip-rule="evenodd" d="M77.1445 82.0952H53.4565V80.3867H77.1445V82.0952Z" fill="#37468A" stroke="#3A4A92" stroke-miterlimit="10"/>
<path fill-rule="evenodd" clip-rule="evenodd" d="M75.4523 85.187H55.3643V83.4785H75.4523V85.187Z" fill="#37468A" stroke="#3A4A92" stroke-miterlimit="10"/>
<path fill-rule="evenodd" clip-rule="evenodd" d="M72.7644 88.3384H58.0044V86.6299H72.7644V88.3384Z" fill="#37468A" stroke="#3A4A92" stroke-miterlimit="10"/>
<path fill-rule="evenodd" clip-rule="evenodd" d="M60.2103 24.4277L60.3156 31.1741L58.228 31.2061L58.3103 36.3073L56.602 36.3348L56.4922 29.524L58.5806 29.492L58.502 24.4544L60.2103 24.4277Z" fill="#37468A" stroke="#3A4A92" stroke-miterlimit="10"/>
<path fill-rule="evenodd" clip-rule="evenodd" d="M59.3359 23.147C59.2157 23.147 59.1182 23.2445 59.1182 23.3647C59.1182 23.485 59.2157 23.5825 59.3359 23.5825C59.4562 23.5825 59.5537 23.485 59.5537 23.3647C59.5537 23.2445 59.4562 23.147 59.3359 23.147ZM57.4097 23.3647C57.4097 22.3009 58.2721 21.4385 59.3359 21.4385C60.3998 21.4385 61.2622 22.3009 61.2622 23.3647C61.2622 24.4286 60.3998 25.291 59.3359 25.291C58.2721 25.291 57.4097 24.4286 57.4097 23.3647Z" fill="#37468A" stroke="#3A4A92" stroke-width="2" stroke-miterlimit="10"/>
<path fill-rule="evenodd" clip-rule="evenodd" d="M77.0348 55.1406L110.842 64.0426L110.87 64.6705C111.179 71.5736 105.834 77.4209 98.9309 77.7301C93.7833 77.9617 89.2201 75.0474 87.1097 70.6855L87.1078 70.6819C86.6055 70.9808 86.0418 71.2814 85.4557 71.5422C84.542 71.9487 83.5108 72.2872 82.5464 72.3301C77.3914 72.563 73.0202 68.5704 72.7911 63.411C72.6415 60.1214 74.2147 57.15 76.7087 55.373L77.0348 55.1406ZM77.3867 57.0001C75.5282 58.4735 74.3819 60.7878 74.4978 63.3338L74.4979 63.3348C74.6849 67.551 78.2572 70.814 82.4698 70.6233L82.4705 70.6233C83.1261 70.5941 83.9309 70.3506 84.7612 69.9812C85.5794 69.6171 86.3613 69.1584 86.9534 68.7574L87.7438 68.222L88.6354 69.9161L88.6419 69.9296C90.4624 73.7041 94.407 76.2234 98.854 76.0233C104.606 75.7657 109.105 71.0556 109.173 65.37L77.3867 57.0001Z" fill="#37468A" stroke="#3A4A92" stroke-width="3" stroke-miterlimit="10"/>
<path fill-rule="evenodd" clip-rule="evenodd" d="M53.7819 55.1484L54.108 55.3808C56.6019 57.1577 58.175 60.129 58.0257 63.4183C57.7967 68.5779 53.4254 72.5708 48.2703 72.3379C47.3059 72.295 46.2747 71.9565 45.361 71.55C44.7749 71.2892 44.2112 70.9886 43.7089 70.6897L43.707 70.6933C41.5966 75.0552 37.0334 77.9695 31.8858 77.7379C24.9825 77.4287 19.6377 71.5814 19.9468 64.6783L19.975 64.0504L53.7819 55.1484ZM21.6434 65.3778C21.7119 71.0635 26.2108 75.7735 31.9625 76.0311C36.4095 76.2312 40.3543 73.7119 42.1748 69.9374L42.1813 69.9239L43.0729 68.2298L43.8633 68.7652C44.4554 69.1662 45.2373 69.6249 46.0555 69.989C46.8858 70.3584 47.6906 70.6019 48.3462 70.6311L48.3469 70.6311C52.5595 70.8218 56.1318 67.5588 56.3188 63.3426L56.3189 63.3416C56.4348 60.7956 55.2885 58.4813 53.43 57.0079L21.6434 65.3778Z" fill="#37468A" stroke="#3A4A92" stroke-width="3" stroke-miterlimit="10"/>
</svg>
